<?xml version="1.0" standalone="no"?>
<!DOCTYPE svg PUBLIC "-//W3C//DTD SVG 1.1//EN" "http://www.w3.org/Graphics/SVG/1.1/DTD/svg11.dtd" >
<svg xmlns="http://www.w3.org/2000/svg" xmlns:xlink="http://www.w3.org/1999/xlink" version="1.1">
<metadata>
Created by FontForge 20160407 at Mon Dec 12 16:37:09 2016
 By Jimmy Warting
(c) the.bend aka Dimitri Castrique 2006, www.thebend.be
</metadata>
<defs>
<font id="RaspoutineClassic" horiz-adv-x="229" >
  <font-face 
    font-family="Raspoutine Classic"
    font-weight="400"
    font-style="italic"
    font-stretch="normal"
    units-per-em="1000"
    panose-1="2 1 5 3 5 0 1 5 5 5"
    ascent="800"
    descent="-200"
    x-height="544"
    cap-height="705"
    bbox="-200.904 -263 1067 905"
    underline-thickness="50"
    underline-position="-100"
    slope="-11"
    stemh="68"
    stemv="97"
    unicode-range="U+0020-FB02"
  />
<missing-glyph 
 />
    <glyph glyph-name=".notdef" 
 />
    <glyph glyph-name="exclam" unicode="!" horiz-adv-x="271" 
d="M126 121c-33 0 -75 -31 -75 -77c0 -39 30 -52 52 -52c39 0 72 39 72 77c0 31 -20 52 -49 52zM171 642c-6 -64 -16 -115 -39 -245c-19 -107 -27 -149 -34 -181c-5 -22 15 -41 38 -41c25 0 47 17 51 41c22 132 71 344 98 444c6 25 -20 44 -45 41c-34 -4 -65 -26 -69 -59z
" />
    <glyph glyph-name="quotedbl" unicode="&#x22;" horiz-adv-x="396" 
d="M161 445l82 246c3 10 5 20 2 31c-5 17 -21 27 -41 27c-26 0 -57 -17 -63 -52c-1 -5 -2 -9 -3 -18l-4 -234c0 -6 5 -11 12 -11c6 0 13 5 15 11zM328 445l82 246c3 10 5 20 2 31c-5 17 -21 27 -40 27c-27 0 -58 -17 -65 -52c0 -5 -1 -9 -2 -18l-4 -234c0 -6 5 -11 12 -11
c6 0 13 5 15 11z" />
    <glyph glyph-name="numbersign" unicode="#" horiz-adv-x="667" 
d="M497 229l-33 -229h-79l33 229h-111l-33 -229h-80l34 229h-139v77h149l16 108h-141v77h151l31 214h80l-31 -214h110l32 214h78l-29 -214h137v-77h-148l-16 -108h139v-77h-150zM317 306h112l15 108h-110z" />
    <glyph glyph-name="dollar" unicode="$" horiz-adv-x="500" 
d="M498 710c28 -7 43 -37 34 -65c-9 -23 -36 -30 -58 -19c-33 17 -73 18 -110 21l-28 -86c-6 -19 -35 -14 -33 6l5 72c-35 -11 -109 -41 -109 -123c0 -71 63 -91 90 -107c89 -45 164 -91 164 -190c0 -57 -23 -111 -65 -150c-52 -49 -109 -63 -157 -75l-13 -63
c0 -2 -1 -5 -1 -7c-2 -18 -17 -32 -35 -32c-14 0 -26 13 -22 27c1 5 3 10 4 17l10 51c-74 -2 -116 2 -153 14c-29 9 -35 45 -24 73c10 24 40 28 62 16c28 -16 67 -24 131 -23l26 79c7 20 37 14 35 -7l-4 -63c25 7 59 18 84 52c15 19 23 43 23 68c4 65 -67 91 -89 102
c-67 35 -165 87 -165 189c0 20 3 41 9 61c14 49 41 83 73 110c49 41 92 51 142 61c7 30 10 45 12 60c2 18 18 30 35 30s28 -17 23 -33c-4 -12 -7 -27 -12 -52c49 -2 80 -5 116 -14z" />
    <glyph glyph-name="percent" unicode="%" horiz-adv-x="846" 
d="M367 689c-20 17 -46 26 -78 26c-30 0 -63 -9 -91 -26c-101 -65 -125 -239 -125 -294c0 -41 7 -84 39 -111c19 -17 45 -26 74 -26c163 0 216 227 216 331c0 26 -3 71 -35 100zM279 665c50 0 50 -52 50 -64c0 -61 -31 -207 -66 -253c-20 -26 -45 -34 -64 -34
c-47 0 -51 49 -51 77c0 51 30 274 131 274zM635 706c-15 9 -33 5 -40 -8c-31 -59 -54 -98 -153 -274c-20 -35 -38 -70 -58 -105c-90 -159 -104 -184 -163 -284c-7 -11 0 -28 14 -37c13 -8 30 -8 36 4c54 98 78 141 221 394c97 174 120 212 158 274c7 11 -1 27 -15 36z
M769 423c-20 17 -46 26 -77 26s-64 -9 -91 -26c-101 -64 -125 -239 -125 -294c0 -41 7 -84 39 -111c24 -21 54 -26 74 -26c163 0 215 228 215 332c0 25 -3 70 -35 99zM681 399c50 0 50 -52 50 -64c0 -61 -31 -207 -66 -253c-20 -25 -44 -34 -63 -34c-47 0 -51 49 -51 77
c0 51 30 274 130 274z" />
    <glyph glyph-name="ampersand" unicode="&#x26;" horiz-adv-x="587" 
d="M445 145l-7 -34c-2 -21 -12 -60 -45 -68c-13 -4 -29 -6 -29 -6c-48 -9 -87 -12 -124 -12c-32 0 -60 3 -84 11c-30 9 -52 21 -66 37c-22 23 -33 54 -33 88c0 19 4 67 38 111c54 70 142 78 176 81c4 0 10 1 11 6c0 4 -7 5 -13 6c-17 3 -36 6 -59 16c-39 20 -62 57 -62 103
c0 47 21 92 58 126c30 27 85 60 174 60c25 0 47 -2 67 -6c7 -2 13 -6 16 -12c5 -8 6 -19 4 -28c-3 -6 -7 -11 -13 -15c-7 -3 -15 -4 -22 -1c-19 9 -41 13 -68 13c-100 0 -153 -70 -153 -138c0 -25 9 -86 91 -102c32 -6 87 -6 131 -6l13 68c8 38 14 64 17 81
c4 26 23 45 46 50c8 1 15 -1 19 -6s5 -10 3 -17c-13 -35 -26 -96 -41 -176h36h16l11 1c5 0 10 -2 13 -6c4 -4 5 -8 4 -13c-5 -16 -21 -27 -39 -26h-49c-37 -183 -37 -186 -37 -186zM371 76l53 255c-76 0 -135 0 -176 -10c-83 -21 -121 -92 -121 -149c0 -46 21 -78 64 -95
c33 -13 70 -13 86 -13c43 0 78 9 94 12z" />
    <glyph glyph-name="quoteright" unicode="&#x2019;" 
d="M168 573c38 39 62 66 87 106c9 15 -5 34 -23 32c-11 -1 -21 -1 -28 -1h-8c-5 0 -10 1 -15 1c-4 1 -9 -2 -10 -6c-9 -41 -31 -84 -67 -132c-7 -10 2 -22 14 -22c19 0 37 8 50 22z" />
    <glyph glyph-name="parenleft" unicode="(" horiz-adv-x="386" 
d="M383 752c-14 0 -26 -7 -34 -18c-89 -129 -141 -250 -166 -321c-31 -94 -49 -191 -49 -290c0 -130 31 -229 54 -292c3 -11 14 -18 26 -18c11 0 17 11 15 22c-15 70 -22 142 -22 215c0 200 57 411 113 538c14 32 18 38 74 147c4 8 -2 17 -11 17z" />
    <glyph glyph-name="parenright" unicode=")" horiz-adv-x="377" 
d="M-16 -187c13 0 25 7 33 18c88 125 141 247 167 322c31 93 49 191 49 289c0 130 -31 229 -54 292c-4 11 -14 18 -26 18c-11 0 -17 -11 -15 -22c16 -70 22 -143 22 -215c0 -200 -57 -411 -113 -538c-14 -32 -18 -38 -74 -146c-4 -8 2 -17 11 -18z" />
    <glyph glyph-name="asterisk" unicode="*" horiz-adv-x="333" 
d="M250 593l-5 -4c3 9 15 51 17 60l9 30c4 12 -6 24 -19 24c-18 0 -34 -12 -34 -30c-1 -31 -3 -72 -4 -87c-36 33 -48 44 -63 58c-10 9 -24 6 -32 -4c-9 -13 -5 -30 8 -37c24 -12 39 -21 68 -40c-5 -2 -57 -22 -91 -35c-14 -4 -18 -21 -11 -33c6 -13 22 -17 33 -9
c7 6 14 11 22 16c10 7 52 33 60 39c-5 -14 -16 -43 -24 -64c-2 -6 -4 -12 -5 -16c-5 -14 3 -29 18 -29c19 0 34 15 35 33c1 17 5 56 7 76c24 -19 40 -33 52 -46c11 -12 30 -9 41 4c10 11 0 27 -13 34c-20 10 -42 22 -58 32c13 5 20 8 44 19c17 8 29 13 38 17
c12 4 16 20 11 32c-6 12 -19 20 -29 12c-20 -16 -41 -29 -75 -52z" />
    <glyph glyph-name="plus" unicode="+" horiz-adv-x="667" 
d="M358 40l37 211h211c22 0 43 18 47 40s-11 40 -33 40h-211l37 209c4 22 -11 40 -33 40s-43 -18 -47 -40l-36 -209h-209c-23 0 -44 -18 -48 -40c-3 -22 11 -40 33 -40h209l-37 -211c-4 -22 11 -40 33 -40s43 18 47 40z" />
    <glyph glyph-name="comma" unicode="," 
d="M-6 -118c69 81 110 138 134 210c8 21 -14 41 -36 36c-29 -6 -48 -30 -54 -59c-4 -17 -9 -33 -14 -46c-22 -63 -44 -95 -63 -119c-7 -8 -5 -19 4 -25s21 -5 29 3z" />
    <glyph glyph-name="hyphen" unicode="-" horiz-adv-x="313" 
d="M282 291c5 23 -12 46 -36 44c-28 -2 -45 -2 -73 -2c-22 0 -39 0 -55 1c-26 2 -50 -15 -55 -40c-4 -24 15 -46 39 -45c7 0 15 1 23 1c15 0 61 -2 98 -4c28 -1 52 18 59 45z" />
    <glyph glyph-name="period" unicode="." 
d="M15 43c0 46 42 77 75 77c29 0 49 -21 49 -52c0 -38 -33 -77 -72 -77c-22 0 -52 13 -52 52z" />
    <glyph glyph-name="slash" unicode="/" horiz-adv-x="354" 
d="M75 93l277 493c32 54 42 72 54 91c9 14 -5 28 -21 29c-20 2 -40 -8 -49 -27c-44 -95 -50 -106 -103 -203c-28 -50 -55 -100 -83 -149c-22 -39 -45 -78 -67 -119c-53 -93 -62 -109 -106 -175c-8 -13 3 -29 18 -30c22 -1 41 12 49 31c7 18 15 33 31 59z" />
    <glyph glyph-name="zero" unicode="0" horiz-adv-x="562" 
d="M91 65c23 -39 75 -75 148 -75c242 0 340 331 340 531c0 186 -132 196 -183 196c-67 0 -171 -23 -257 -181c-55 -100 -82 -257 -82 -325c0 -55 12 -110 34 -146zM235 522c22 49 67 127 147 127c22 0 92 -5 92 -107c0 -73 -26 -249 -73 -359c-15 -34 -54 -117 -143 -117
c-93 0 -93 105 -93 135c0 97 33 240 70 321z" />
    <glyph glyph-name="one" unicode="1" horiz-adv-x="382" 
d="M234 383l-34 -166c-16 -78 -28 -129 -38 -164c-7 -24 9 -51 35 -50h10h10c29 -1 52 23 55 52c1 13 3 27 6 43l59 336c22 122 32 169 47 230c6 23 -16 44 -37 34c-69 -29 -112 -45 -178 -57c-28 -5 -49 -29 -52 -58c-2 -21 22 -35 42 -25c39 19 58 26 108 41
c0 -23 -25 -179 -33 -216z" />
    <glyph glyph-name="two" unicode="2" horiz-adv-x="562" 
d="M559 549c0 139 -111 169 -215 169c-47 0 -89 -6 -125 -13c-33 -6 -58 -35 -63 -68c-3 -22 19 -39 40 -30c43 17 92 22 120 22c72 0 138 -26 138 -93c0 -110 -156 -242 -239 -308c-59 -47 -97 -74 -134 -99c-27 -19 -46 -49 -53 -82c-5 -25 14 -49 39 -48
c69 2 183 3 279 1c22 -1 50 -1 76 -1c32 -1 61 22 69 54c0 3 1 6 2 9c6 21 -10 43 -31 39c-21 -5 -50 -7 -98 -6h-255c31 21 62 42 95 65c154 107 249 182 299 246c48 61 56 125 56 143z" />
    <glyph glyph-name="three" unicode="3" horiz-adv-x="562" 
d="M426 705c-24 7 -50 11 -81 11c-53 0 -100 -9 -138 -18c-29 -7 -49 -32 -55 -62c-4 -17 15 -30 32 -24c13 5 28 9 47 14c18 3 41 7 71 7c78 0 113 -38 113 -87c0 -82 -80 -155 -217 -155h-10c-24 0 -47 -14 -52 -37c-5 -18 10 -36 30 -33c16 2 33 4 54 4
c157 0 174 -56 174 -102c0 -59 -41 -165 -213 -165c-41 0 -70 8 -89 18c-20 11 -45 3 -52 -19c-9 -24 3 -52 28 -58c28 -6 61 -10 120 -10c177 0 316 91 316 254c0 67 -46 109 -125 121c-18 2 -36 4 -54 5c17 5 33 10 49 15c83 26 155 94 155 189c0 43 -23 108 -103 132z
" />
    <glyph glyph-name="four" unicode="4" horiz-adv-x="562" 
d="M81 166h267l-13 -63c-4 -19 -7 -32 -11 -47c-8 -28 14 -54 42 -54c32 0 61 21 64 52c2 13 4 27 6 42l13 70h30h8c27 -2 52 16 57 43c5 23 -14 43 -38 43h-6h-35l44 237c11 54 26 117 37 164c7 27 -13 52 -40 51h-18h-8c-37 1 -74 -15 -97 -43
c-52 -62 -110 -130 -125 -149c-27 -34 -146 -187 -170 -218c-4 -4 -6 -7 -9 -11c-18 -23 -29 -50 -33 -78c-3 -21 14 -39 35 -39zM442 628l-77 -376h-226c67 90 174 228 254 319c15 18 32 38 49 57z" />
    <glyph glyph-name="five" unicode="5" horiz-adv-x="562" 
d="M194 364l46 240c55 -4 109 -6 164 -6c94 0 132 4 161 32c11 11 18 23 24 37c10 24 -17 44 -44 41c-2 0 -4 0 -7 -1c-39 -4 -83 -4 -124 -4c-32 0 -69 1 -107 2c-19 1 -39 3 -59 4c-33 2 -64 -18 -69 -51c-19 -119 -29 -175 -58 -295c-6 -23 19 -40 41 -31
c33 12 70 21 114 21c73 0 133 -26 133 -107c0 -75 -46 -190 -195 -190c-18 0 -43 1 -72 10c-13 4 -23 8 -31 13c-20 11 -47 4 -54 -18c-8 -26 3 -55 29 -62c28 -7 60 -12 101 -12c77 0 151 11 219 61c84 62 114 142 114 214c0 94 -58 170 -170 170c-72 0 -129 -61 -156 -68z
" />
    <glyph glyph-name="six" unicode="6" horiz-adv-x="562" 
d="M548 306c0 101 -64 164 -163 164c-117 0 -175 -125 -208 -180c32 153 89 365 266 357c34 0 57 -7 75 -17c22 -12 50 -9 63 12s5 50 -18 56c-29 9 -65 15 -113 15c-93 0 -172 -36 -226 -85c-116 -109 -157 -329 -157 -427c0 -69 14 -134 66 -173c35 -28 84 -39 130 -39
c52 0 107 14 148 39c129 78 137 260 137 278zM171 162c0 66 45 233 170 233c63 0 98 -41 98 -109c0 -43 -21 -151 -73 -198c-38 -33 -74 -33 -94 -33c-67 0 -101 41 -101 107z" />
    <glyph glyph-name="seven" unicode="7" horiz-adv-x="562" 
d="M250 610h240l-275 -409c-53 -80 -76 -113 -109 -157c-13 -18 2 -42 25 -42h13h6c35 0 68 17 84 48c34 70 86 165 201 345c28 44 127 194 180 274c12 18 0 45 -22 43c-40 -3 -81 -5 -138 -5h-63c-62 0 -104 1 -127 1c-30 0 -50 1 -66 2c-30 2 -58 -18 -62 -48
c-1 -13 -3 -24 -5 -36c-3 -18 16 -33 34 -26c3 1 7 2 11 3c19 6 43 6 73 7z" />
    <glyph glyph-name="eight" unicode="8" horiz-adv-x="562" 
d="M537 677c-46 44 -121 46 -151 46c-35 0 -115 -2 -176 -49c-65 -51 -80 -132 -80 -168c0 -21 3 -54 21 -80c22 -31 42 -39 84 -50c-29 -6 -74 -14 -122 -62c-54 -55 -63 -134 -63 -169c0 -84 56 -157 211 -157c223 0 276 176 276 254c0 112 -91 126 -122 135
c27 8 74 17 116 74c26 36 42 88 42 130c0 35 -12 70 -36 96zM231 310c31 23 65 27 92 27c64 0 102 -34 102 -96c0 -44 -17 -100 -42 -134c-36 -49 -83 -56 -115 -56c-71 0 -106 37 -106 103c0 39 16 116 69 156zM269 609c16 24 44 58 108 58c20 0 86 -4 86 -81
c0 -64 -26 -124 -52 -150c-28 -28 -62 -30 -76 -30c-48 0 -97 22 -97 96c0 33 11 75 31 107z" />
    <glyph glyph-name="nine" unicode="9" horiz-adv-x="562" 
d="M570 500c0 202 -124 218 -196 218c-219 0 -290 -188 -290 -315c0 -133 93 -171 163 -171c38 0 84 10 123 37c34 22 59 91 76 114c-8 -54 -34 -193 -84 -250c-56 -71 -117 -72 -147 -72c-48 0 -79 11 -100 24c-20 13 -47 6 -59 -15c-14 -25 -8 -58 19 -67
c23 -8 56 -15 101 -15c117 0 210 49 262 105c74 81 99 195 112 254c11 54 20 104 20 153zM258 599c34 40 69 49 104 49c28 0 59 -6 83 -35c37 -46 12 -204 -52 -266c-21 -21 -48 -35 -101 -35c-59 0 -93 36 -93 107c0 44 14 127 59 180z" />
    <glyph glyph-name="colon" unicode=":" horiz-adv-x="271" 
d="M132 120c-33 0 -75 -31 -75 -77c0 -39 30 -52 52 -52c39 0 72 39 72 77c0 31 -20 52 -49 52zM209 549c-33 0 -75 -31 -75 -76c0 -39 30 -53 52 -53c39 0 72 39 72 77c0 31 -20 52 -49 52z" />
    <glyph glyph-name="semicolon" unicode=";" horiz-adv-x="271" 
d="M33 -119c69 80 110 137 134 209c8 22 -13 42 -36 38c-29 -6 -48 -31 -54 -59c-4 -17 -9 -33 -14 -46c-22 -63 -44 -96 -63 -119c-6 -8 -5 -20 4 -26s22 -5 29 3zM201 546c-33 0 -75 -32 -75 -77c0 -39 31 -52 52 -52c39 0 72 38 72 77c0 30 -19 52 -49 52z" />
    <glyph glyph-name="less" unicode="&#x3c;" horiz-adv-x="687" 
d="M641 40c4 27 -7 51 -28 62l-484 251l572 250c25 12 45 36 50 63c3 20 -15 33 -35 25l-637 -277c-26 -11 -45 -35 -50 -61c-4 -26 6 -50 28 -61l540 -276c17 -9 40 4 44 24z" />
    <glyph glyph-name="equal" unicode="=" horiz-adv-x="669" 
d="M653 381c4 21 -11 39 -32 39h-470c-22 0 -42 -18 -46 -39c-4 -22 11 -39 32 -39h470c22 0 42 17 46 39zM621 201c4 21 -10 39 -32 39h-470c-21 0 -42 -18 -46 -39c-3 -22 11 -39 33 -39h469c22 0 42 17 46 39z" />
    <glyph glyph-name="greater" unicode="&#x3e;" horiz-adv-x="742" 
d="M55 16l637 276c26 11 45 35 50 61s-6 50 -28 61l-540 277c-17 8 -40 -5 -44 -25c-4 -27 7 -51 29 -63l483 -250l-572 -251c-26 -11 -45 -35 -50 -62c-3 -20 15 -33 35 -24z" />
    <glyph glyph-name="question" unicode="?" horiz-adv-x="437" 
d="M127 121c-33 0 -75 -31 -75 -77c0 -39 30 -52 52 -52c39 0 72 39 72 77c0 31 -20 52 -49 52zM263 291l49 17c49 20 97 40 127 130c10 30 19 72 19 108c0 86 -45 169 -201 169c-28 0 -52 -3 -74 -6c-27 -4 -43 -29 -43 -56c0 -20 21 -33 40 -26c17 6 38 11 66 11
c33 0 64 -8 82 -24c26 -23 27 -56 27 -74c0 -41 -10 -91 -31 -123c-29 -44 -63 -54 -108 -68c-60 -18 -80 -26 -101 -57c-11 -17 -18 -38 -23 -63c-4 -25 18 -44 42 -45c27 -1 48 20 54 46c9 38 27 45 75 61z" />
    <glyph glyph-name="at" unicode="@" horiz-adv-x="896" 
d="M796 53c2 -1 6 -1 8 -4c5 -7 4 -17 -2 -22c-13 -13 -35 -32 -67 -53c-83 -56 -177 -86 -272 -86c-138 0 -371 73 -371 346c0 257 201 466 448 466c173 0 285 -108 285 -275c0 -176 -106 -343 -219 -343c-18 0 -28 4 -34 8c-39 20 -46 46 -47 66c3 33 7 44 7 54
c-37 -49 -89 -144 -162 -144c-59 0 -117 42 -117 133c0 39 14 187 133 275c19 15 65 45 131 45c36 0 60 -9 86 -18l18 6c19 6 35 -14 30 -34c-6 -26 -24 -113 -38 -187c-7 -37 -16 -81 -16 -111c-3 -34 4 -58 31 -58c63 0 164 140 164 305c0 183 -139 248 -258 248
c-222 0 -410 -199 -410 -435c0 -219 170 -316 338 -316c146 0 257 70 324 130c3 3 7 4 10 4zM551 345l20 111c-15 5 -37 13 -68 13c-134 0 -170 -173 -170 -240c0 -55 20 -96 72 -96c30 0 65 14 93 54c23 34 38 80 53 158z" />
    <glyph glyph-name="A" unicode="A" horiz-adv-x="604" 
d="M518 169l-40 353c-4 45 -8 87 -11 129c-3 31 -32 50 -63 50c-9 0 -16 0 -23 1c-34 1 -68 -15 -83 -46c-50 -103 -151 -300 -201 -393c-38 -71 -80 -152 -118 -216c-12 -20 5 -42 27 -42c5 0 9 0 13 -1c30 -1 55 22 67 50c6 16 15 36 28 63l46 95h249l6 -91
c2 -31 4 -54 5 -71c1 -27 24 -46 51 -45h11c3 0 6 0 9 -1c27 -1 46 25 42 52c-4 20 -7 50 -15 113zM195 286l90 177c13 25 71 132 82 154c2 -12 7 -43 16 -129l19 -202c-36 -2 -53 -2 -83 -2c-23 0 -50 0 -124 2z" />
    <glyph glyph-name="B" unicode="B" horiz-adv-x="562" 
d="M127 541l-76 -381c-11 -52 -18 -84 -24 -107c-8 -28 13 -55 41 -55h13c23 0 41 -1 62 -2c22 -1 46 -2 80 -2c165 0 220 67 244 96c30 38 47 79 47 127c0 123 -104 139 -160 148c28 3 69 8 114 38c61 41 92 108 92 166c0 34 -11 69 -30 92c-39 46 -106 49 -166 49
c-58 0 -124 -5 -168 -5h-14c-27 1 -43 -26 -42 -53c0 -25 -3 -60 -13 -111zM147 151l35 171c63 2 81 2 97 2c32 0 125 0 125 -101c0 -54 -31 -162 -185 -162c-48 0 -79 3 -79 41c0 10 2 23 7 49zM198 402l46 237c32 4 58 8 89 8c49 0 120 -8 120 -94
c0 -47 -25 -106 -89 -134c-21 -9 -43 -14 -66 -16c-53 -5 -79 -2 -100 -1z" />
    <glyph glyph-name="C" unicode="C" horiz-adv-x="562" 
d="M494 722c-347 0 -439 -272 -439 -456c0 -73 16 -131 42 -171c52 -82 145 -109 249 -109c36 0 68 3 94 6c37 5 65 33 79 67c6 16 -12 28 -27 21c-5 -2 -10 -4 -16 -7c-38 -14 -66 -18 -101 -18c-147 0 -207 91 -207 218c0 165 83 376 297 376c43 0 72 -7 92 -18
c23 -11 50 -2 60 21c10 25 -3 53 -29 59c-43 9 -78 11 -94 11z" />
    <glyph glyph-name="D" unicode="D" horiz-adv-x="671" 
d="M122 504l-56 -291c-17 -87 -29 -135 -38 -163c-8 -25 11 -50 36 -49c17 1 30 2 42 2c21 0 114 -3 133 -3c76 0 266 0 368 243c28 66 47 144 47 219c0 33 -5 68 -16 99c-52 146 -195 146 -256 146c-24 0 -115 -3 -137 -3c-23 0 -43 1 -62 2c-29 1 -47 -28 -46 -57
s-2 -74 -15 -145zM156 156l74 386c7 35 13 61 21 95c31 4 35 7 68 7c140 0 223 -45 223 -198c0 -103 -45 -217 -66 -256c-67 -121 -164 -129 -233 -129c-90 0 -105 3 -87 95z" />
    <glyph glyph-name="E" unicode="E" horiz-adv-x="500" 
d="M187 337c0 0 62 4 107 0c29 -3 60 11 66 40c5 23 -19 39 -43 36c-17 -2 -39 -2 -69 -3h-47l43 224c12 0 76 3 133 3c49 0 79 -3 92 -5c23 -4 45 11 50 34c5 21 -12 40 -33 39c-44 -1 -98 -2 -156 -2c-46 0 -92 0 -138 1c-31 1 -55 -25 -57 -57c-2 -45 -13 -125 -40 -274
l-28 -154c-15 -87 -27 -137 -36 -167c-8 -25 5 -54 32 -53c50 0 101 0 151 1c57 0 107 -1 151 -1c32 -1 59 22 69 53c5 18 -10 35 -28 30c-7 -2 -15 -3 -24 -5c-45 -8 -106 -9 -136 -9c-102 0 -111 0 -95 83z" />
    <glyph glyph-name="F" unicode="F" horiz-adv-x="479" 
d="M152 129l36 201h103c42 0 67 -1 89 -5c29 -5 56 15 62 44c5 24 -18 43 -42 39c-9 -1 -20 -3 -34 -4c-26 -3 -51 -4 -83 -4c-22 0 -45 1 -82 2c14 76 28 161 45 226c100 4 105 4 129 4c32 0 60 -2 84 -7c27 -6 56 6 61 32s-10 53 -35 51c-15 -1 -34 -2 -62 -3
c-20 0 -163 -2 -190 -2h-47c-28 1 -46 -26 -46 -54c-1 -28 -5 -70 -18 -136l-66 -355c-6 -35 -15 -73 -26 -106c-8 -25 11 -50 37 -50h10h8c29 0 53 24 56 54c2 17 5 41 11 73z" />
    <glyph glyph-name="G" unicode="G" horiz-adv-x="653" 
d="M458 208l-31 -142c-25 -7 -53 -15 -91 -15c-67 0 -88 22 -121 56c-46 50 -47 127 -47 158c0 65 10 149 60 235c86 149 180 149 216 149c52 0 92 -9 123 -32c20 -15 50 -11 62 12c14 25 7 58 -21 67c-23 8 -49 14 -87 18c-28 3 -51 4 -70 4c-131 0 -204 -52 -271 -119
c-75 -76 -128 -203 -128 -343c0 -181 96 -265 244 -268c50 -1 108 6 145 12c10 1 22 2 36 3c32 3 55 30 59 61c2 11 5 25 8 42l20 99c6 31 11 52 17 70c8 26 -13 51 -40 52c-8 0 -16 0 -23 1c-26 1 -46 -22 -48 -48c-2 -17 -5 -41 -12 -72z" />
    <glyph glyph-name="H" unicode="H" horiz-adv-x="667" 
d="M202 415l28 141c9 45 15 76 22 100c6 23 -8 49 -32 49c-3 -1 -7 -1 -11 -1c-3 0 -7 1 -10 1c-29 1 -51 -23 -54 -51c-1 -14 -4 -33 -8 -57l-80 -429c-11 -53 -18 -86 -27 -113c-8 -26 13 -51 40 -50h8c32 0 60 24 64 56c3 24 7 56 16 104l29 171c48 2 73 3 139 3
c81 0 138 -2 181 -3l-37 -187c-7 -39 -16 -71 -24 -95s9 -49 34 -48h9h10c30 -1 53 22 56 51c2 20 6 48 13 88l81 434c9 38 15 64 20 82c7 23 -10 45 -33 45c-3 -1 -7 -1 -11 -1c-2 0 -4 1 -7 1c-29 1 -52 -24 -55 -54c-1 -9 -2 -21 -5 -35l-36 -202c-44 -2 -73 -3 -132 -3
c-67 0 -123 1 -188 3z" />
    <glyph glyph-name="I" unicode="I" horiz-adv-x="250" 
d="M126 532l-69 -363c-13 -58 -20 -91 -28 -117c-7 -25 11 -50 37 -49h18c30 0 54 23 57 53c3 25 8 61 18 113l64 350c12 66 22 109 30 136c7 25 -10 51 -36 50h-11h-11c-28 1 -47 -26 -50 -55c-3 -25 -8 -63 -19 -118z" />
    <glyph glyph-name="J" unicode="J" horiz-adv-x="354" 
d="M235 553l-42 -226c-29 -153 -49 -252 -144 -252c-3 0 -7 0 -10 1c-26 2 -54 -7 -64 -31c-10 -23 3 -52 28 -54c8 -1 17 -2 27 -2c62 0 126 14 170 57c45 46 58 110 80 218l49 263c6 31 18 93 28 125c8 24 -8 51 -34 50h-9h-10c-28 1 -50 -22 -53 -50
c-2 -18 -6 -47 -16 -99z" />
    <glyph glyph-name="K" unicode="K" horiz-adv-x="604" 
d="M270 303l-105 -88l-17 -106c-4 -23 -6 -41 -8 -55c-4 -31 -31 -51 -62 -51h-9c-27 -1 -47 24 -39 49c11 32 21 71 27 106l69 371c11 58 16 97 18 123c3 29 27 52 56 52h20c25 1 37 -27 30 -51c-6 -24 -14 -59 -25 -113l-41 -218c67 46 137 113 185 162
c45 43 83 89 105 140c5 10 8 20 11 29c8 29 31 53 61 52h8h20c27 3 45 -25 34 -50c-9 -21 -23 -48 -49 -80c-68 -90 -207 -209 -207 -209c8 -64 38 -109 74 -170c31 -57 83 -119 128 -162c12 -12 3 -31 -13 -31c-7 1 -14 1 -22 1c-36 0 -74 8 -97 36c-19 21 -41 50 -73 98
c-40 58 -64 105 -79 165z" />
    <glyph glyph-name="L" unicode="L" horiz-adv-x="458" 
d="M129 548l-61 -335c-13 -65 -23 -114 -40 -164c-8 -25 13 -49 39 -47c20 1 44 2 77 2c67 0 133 -2 199 -4c32 -1 59 22 68 53c1 2 2 5 2 7c6 18 -12 33 -30 27c-26 -9 -63 -15 -119 -15c-21 0 -42 0 -79 2c-40 3 -40 19 -28 85l61 340c15 83 27 131 36 161
c7 23 -13 45 -38 44h-10h-8c-29 2 -52 -23 -54 -52c-2 -23 -6 -55 -15 -104z" />
    <glyph glyph-name="M" unicode="M" horiz-adv-x="818" 
d="M388 197l-52 298c-10 60 -18 109 -22 154c-4 33 -33 55 -65 54c-9 -1 -18 -1 -29 -1c-10 0 -19 0 -27 1c-28 1 -51 -20 -51 -48c-1 -41 -10 -112 -39 -248c-4 -20 -35 -150 -53 -217c-16 -60 -30 -106 -42 -140c-8 -23 8 -48 32 -47h10c32 0 61 21 64 52
c3 29 9 71 20 128l86 433c5 -35 7 -46 23 -141l54 -284c10 -64 14 -90 17 -112c2 -17 17 -31 34 -31c22 0 42 11 51 31c26 51 16 31 62 113l249 425l-88 -453c-10 -53 -18 -88 -26 -112c-7 -23 7 -49 32 -48h16h10c29 -1 53 21 54 50c0 6 1 13 1 21c5 54 21 148 70 409
c17 88 29 141 40 174c7 22 -9 46 -33 45h-26h-25c-36 2 -70 -16 -86 -47c-17 -35 -41 -81 -62 -115l-137 -234c-18 -31 -42 -72 -62 -110z" />
    <glyph glyph-name="N" unicode="N" horiz-adv-x="667" 
d="M441 299l-115 263c-18 40 -28 63 -36 86c-10 32 -37 57 -71 56h-31h-12c-29 0 -47 -27 -47 -55c0 -35 -5 -93 -23 -190c-46 -247 -72 -355 -89 -407c-7 -23 11 -47 36 -47h11c30 -2 55 21 57 50c2 35 9 91 25 187c34 212 39 242 59 372c27 -82 55 -144 81 -202l97 -219
c39 -89 54 -125 63 -151c9 -25 35 -39 62 -40c26 -1 46 20 49 46c0 4 1 9 2 15c5 46 13 87 28 171l45 225c15 70 30 138 51 196c9 24 -9 49 -34 49h-5c-30 0 -53 -24 -56 -54c-2 -20 -6 -50 -14 -93l-37 -204c-8 -53 -17 -106 -26 -160c-3 -18 -3 -18 -6 -50
c-8 21 -17 48 -64 156z" />
    <glyph glyph-name="O" unicode="O" horiz-adv-x="729" 
d="M713 470c0 157 -89 248 -258 248c-104 0 -176 -39 -218 -69c-162 -118 -187 -317 -187 -394c0 -67 15 -135 60 -185c56 -63 139 -82 206 -82c290 0 397 314 397 482zM551 618c45 -39 51 -109 51 -155c0 -146 -72 -411 -280 -411c-46 1 -105 19 -135 71
c-22 38 -27 101 -27 130c0 155 79 398 284 398c41 0 81 -11 107 -33z" />
    <glyph glyph-name="P" unicode="P" horiz-adv-x="542" 
d="M121 509l-55 -299c-11 -53 -23 -109 -38 -156c-8 -25 10 -51 36 -51h12h5c31 0 55 24 59 55c1 10 3 22 5 36l33 188c19 -3 36 -4 65 -4c302 0 320 225 320 273c0 123 -88 158 -195 158c-15 0 -42 -1 -71 -2c-30 -1 -62 -2 -87 -2h-17c-29 1 -47 -26 -50 -55
c-3 -27 -9 -70 -22 -141zM189 352l29 156c9 39 10 49 30 136c33 1 50 2 63 2c51 0 143 0 143 -101c0 -39 -15 -133 -96 -173c-42 -20 -99 -22 -169 -20z" />
    <glyph glyph-name="Q" unicode="Q" horiz-adv-x="729" 
d="M456 717c169 0 258 -91 258 -248c0 -98 -36 -246 -124 -352c-58 -66 -88 -146 -102 -233c-2 -15 1 -50 -14 -60c-20 -13 -31 15 -39 28c-33 53 -25 95 -7 152c-34 -10 -70 -17 -110 -17c-67 0 -151 19 -207 82c-44 50 -60 118 -60 185c0 77 26 276 188 394
c41 30 114 69 217 69zM433 82c126 76 170 258 170 380c0 46 -6 116 -51 155c-26 22 -66 33 -107 33c-67 0 -133 -30 -178 -81c-74 -85 -105 -223 -105 -317c0 -30 5 -91 27 -130c29 -52 87 -71 134 -71c37 0 76 11 110 31z" />
    <glyph glyph-name="R" unicode="R" horiz-adv-x="583" 
d="M373 309c38 10 88 25 136 73c64 63 70 138 70 162c0 42 -15 101 -67 134c-43 26 -101 28 -144 28c-21 0 -42 -1 -110 -2h-63c-28 1 -47 -26 -50 -54c-2 -21 -5 -50 -13 -90l-65 -350c-15 -75 -25 -121 -37 -159c-8 -24 11 -49 37 -49c2 1 3 1 5 1c4 0 8 -1 12 -1
c30 0 53 25 57 55c1 5 1 11 2 17l37 220h96c8 -52 23 -103 48 -152c25 -50 41 -77 55 -98c19 -30 56 -41 92 -41c9 0 18 -1 25 -1c20 -1 25 25 12 40c-75 81 -127 173 -135 267zM194 366l24 129c15 78 19 98 30 140c44 5 63 7 85 7c73 0 132 -24 132 -107
c0 -40 -22 -118 -99 -150c-37 -17 -79 -20 -120 -20c-22 0 -43 1 -52 1z" />
    <glyph glyph-name="S" unicode="S" horiz-adv-x="521" 
d="M203 349l57 -34c64 -37 99 -61 99 -112c0 -87 -81 -141 -180 -141c-26 0 -58 4 -84 13c-7 3 -12 5 -17 8c-22 11 -50 4 -58 -20c-9 -28 2 -60 30 -67s58 -11 88 -11c70 0 143 14 203 51c36 22 122 90 122 192c0 80 -55 112 -113 146l-59 34c-39 22 -88 50 -88 109
c0 44 38 131 163 131c46 0 77 -10 99 -22c20 -12 46 -3 52 19c7 27 -5 58 -33 64c-29 6 -60 10 -93 10c-197 0 -289 -126 -289 -226c0 -78 52 -113 101 -144z" />
    <glyph glyph-name="T" unicode="T" horiz-adv-x="562" 
d="M273 458l-45 -246c-14 -70 -25 -120 -38 -162c-9 -25 15 -47 41 -46h14c29 0 55 20 58 49s9 73 22 144l46 255c6 30 27 137 39 185h115c17 0 30 0 41 -2c24 -3 52 5 58 29c5 25 -16 46 -41 45c-15 -1 -34 -1 -61 -2h-331c-16 0 -29 0 -40 1c-30 1 -60 -15 -67 -44
c-5 -21 14 -42 35 -36c29 8 58 9 99 9h86c-5 -29 -9 -61 -31 -179z" />
    <glyph glyph-name="U" unicode="U" horiz-adv-x="667" 
d="M562 576l-50 -272c-26 -135 -36 -166 -74 -197c-43 -36 -100 -39 -131 -39c-39 0 -105 16 -127 54c-25 40 -11 101 -4 149l62 335c3 19 8 36 12 51c8 23 -9 47 -33 47h-14h-7c-29 0 -49 -26 -52 -55c-1 -4 -1 -8 -2 -12l-76 -435c-13 -78 -7 -127 44 -168
c40 -32 103 -46 167 -46s130 10 179 35c47 23 81 58 101 114c11 29 16 52 37 160l53 285c6 31 12 56 18 75c8 24 -10 49 -35 49c-29 0 -54 -21 -56 -50c-2 -19 -6 -45 -12 -80z" />
    <glyph glyph-name="V" unicode="V" horiz-adv-x="625" 
d="M120 525l51 -332c11 -73 14 -103 18 -139c3 -31 34 -51 65 -51h7c35 0 68 18 83 51c24 51 60 118 135 255l139 253c26 47 43 76 60 99c12 17 1 41 -20 41h-6c-9 0 -18 0 -26 1c-33 1 -61 -22 -71 -54c-9 -29 -26 -69 -59 -136c-62 -122 -125 -243 -187 -365
c-3 -9 -24 -50 -28 -59l-55 423c-10 69 -13 112 -13 139c1 29 -21 54 -50 52c-9 -1 -17 -1 -24 -1h-11c-24 1 -42 -22 -35 -45c8 -26 17 -66 27 -132z" />
    <glyph glyph-name="W" unicode="W" horiz-adv-x="903" 
d="M494 494c-20 -49 -31 -74 -53 -120c-58 -118 -73 -143 -119 -255c-11 -29 -20 -51 -27 -68c-13 -31 -46 -50 -80 -49c-4 1 -7 1 -11 1c-6 0 -13 -1 -19 -1c-30 -2 -54 25 -54 55c1 22 0 50 -2 83l-22 378c-5 65 -8 106 -15 138c-6 27 17 49 44 48h12h7
c29 1 51 -24 49 -52c-1 -20 -2 -47 0 -86l13 -280c3 -68 4 -80 11 -195l170 374c29 67 41 97 57 144c11 32 46 47 80 48c29 1 51 -20 50 -49c-1 -33 -1 -77 4 -153l27 -364l38 87c91 211 156 367 184 476c9 30 38 49 69 48h12c6 0 12 0 17 1c21 0 34 -23 23 -41
c-15 -23 -30 -54 -51 -100l-163 -360c-20 -45 -30 -68 -48 -114c-5 -14 -10 -25 -13 -35c-12 -33 -46 -52 -81 -51c-4 0 -8 1 -12 1c-6 0 -12 -1 -18 -1c-29 -1 -55 20 -55 50c0 28 -1 68 -5 127l-12 170c-5 83 -5 107 -7 145z" />
    <glyph glyph-name="X" unicode="X" horiz-adv-x="604" 
d="M458 578l-117 -146l-65 145c-15 35 -25 58 -30 75c-11 29 -35 54 -65 52c-10 -1 -19 -1 -29 -1h-14c-22 1 -35 -23 -24 -42c11 -18 25 -42 41 -77l114 -236l-158 -183c-28 -31 -72 -80 -123 -128c-13 -13 -3 -35 15 -35h14h10c36 0 72 15 93 44c29 38 47 59 64 80
l120 149l57 -122c18 -39 32 -72 42 -99c12 -31 43 -52 77 -51h12h12c24 0 43 22 32 43l-3 6c-51 98 -57 109 -68 132l-89 180l236 266c16 18 28 31 38 41c12 12 4 33 -13 32c-6 -1 -12 -1 -18 -1h-12c-34 1 -67 -15 -87 -43c-13 -18 -32 -44 -62 -81z" />
    <glyph glyph-name="Y" unicode="Y" horiz-adv-x="542" 
d="M339 258l228 334c24 35 42 60 56 77c12 15 -3 35 -22 35h-17h-12c-32 0 -62 -18 -76 -48c-26 -56 -83 -142 -169 -278l-18 -28l-73 242c-8 26 -13 46 -16 61c-6 28 -28 53 -56 52c-7 -1 -13 -1 -20 -1s-13 0 -20 1c-24 1 -38 -26 -29 -48c6 -14 13 -31 22 -56
c3 -10 20 -56 23 -65l88 -273c-19 -42 -44 -86 -77 -127c-11 -14 -66 -74 -76 -87c-23 -24 -18 -45 7 -45h9h16c27 -2 69 22 92 49z" />
    <glyph glyph-name="Z" unicode="Z" horiz-adv-x="542" 
d="M282 629h129c-42 -72 -155 -229 -184 -268c-101 -143 -184 -249 -238 -316c-15 -18 -4 -45 18 -44c53 2 113 3 169 3c88 0 173 -2 234 -4c35 -1 65 24 77 57c2 7 5 14 8 22c6 15 -10 28 -26 22c-15 -6 -34 -11 -59 -15c-40 -7 -94 -9 -128 -9c-108 0 -118 8 -118 19
c0 7 3 14 23 43c69 101 170 243 320 444c22 29 42 54 58 74c15 19 5 48 -19 47c-57 -1 -112 -2 -182 -2c-50 0 -107 0 -215 2c-33 1 -60 -24 -66 -57c-4 -21 19 -36 40 -30c38 12 82 12 159 12z" />
    <glyph glyph-name="bracketleft" unicode="[" horiz-adv-x="355" 
d="M104 17l114 578c4 26 12 69 16 102c4 31 27 57 58 57h106c9 0 16 -9 14 -18c-2 -10 -11 -18 -22 -18h-80l-171 -871h79c9 0 16 -9 14 -18c-2 -11 -11 -18 -22 -18h-106c-28 0 -45 29 -36 56c12 39 23 88 36 150z" />
    <glyph glyph-name="backslash" unicode="\" horiz-adv-x="409" 
d="M282 93l-190 493c-22 54 -29 72 -38 91c-6 14 10 28 26 29c21 2 39 -8 45 -27c27 -95 31 -106 67 -203c19 -50 37 -100 57 -149c15 -39 31 -78 46 -119c36 -93 42 -109 75 -175c5 -13 -8 -29 -24 -30c-22 -1 -38 12 -43 31c-4 18 -9 33 -21 59z" />
    <glyph glyph-name="bracketright" unicode="]" horiz-adv-x="365" 
d="M263 547l-113 -578c-7 -43 -13 -76 -16 -102c-3 -30 -26 -56 -57 -56h-105c-9 0 -17 8 -15 18c3 10 12 18 23 18h78l172 871h-79c-10 0 -17 9 -15 18c3 11 12 18 23 18h104c27 0 47 -26 39 -51c-14 -43 -26 -95 -39 -156z" />
    <glyph glyph-name="asciicircum" unicode="^" horiz-adv-x="729" 
d="M470 672l142 -291c10 -20 -5 -44 -27 -44c-30 0 -57 17 -70 44l-102 215l-107 -216c-13 -26 -40 -43 -69 -43c-22 0 -37 24 -27 43l149 292c11 21 32 34 56 34c23 0 45 -13 55 -34z" />
    <glyph glyph-name="underscore" unicode="_" horiz-adv-x="525" 
d="M486 -100c3 14 -7 25 -20 25h-470c-14 0 -27 -11 -30 -25c-2 -14 7 -25 21 -25h470c14 0 27 11 29 25z" />
    <glyph glyph-name="quoteleft" unicode="&#x2018;" 
d="M196 690c-38 -39 -62 -66 -87 -106c-9 -15 5 -34 23 -32c11 1 21 1 28 1h8c5 0 10 -1 15 -1c4 -1 9 2 10 6c9 41 31 84 67 132c7 10 -2 22 -14 22c-19 0 -37 -8 -50 -22z" />
    <glyph glyph-name="a" unicode="a" horiz-adv-x="542" 
d="M481 543l-23 -8c-32 12 -62 23 -107 23c-83 0 -140 -38 -164 -56c-149 -110 -166 -296 -166 -344c0 -114 73 -167 146 -167c92 0 157 120 203 181c0 -12 -14 -86 -18 -127c-2 -24 19 -44 44 -43c24 1 47 18 47 42c0 32 5 85 22 181l18 99c17 93 28 144 36 177
c6 24 -14 50 -38 42zM419 479l-26 -139c-18 -97 -37 -155 -66 -197c-35 -51 -79 -68 -116 -68c-65 0 -90 51 -90 120c0 84 45 300 213 300c38 0 66 -10 85 -16z" />
    <glyph glyph-name="b" unicode="b" horiz-adv-x="542" 
d="M91 382l-35 -190c-12 -59 -19 -92 -26 -119c-9 -31 0 -68 31 -76c26 -7 56 -11 97 -11c182 0 298 121 343 291c9 35 16 72 16 108c0 120 -72 172 -147 172c-93 0 -156 -125 -183 -162l27 162c12 63 18 97 23 121c5 25 -22 41 -46 36c-12 -3 -23 -5 -35 -6
c-24 -3 -35 -28 -33 -52c1 -6 2 -14 2 -22c0 -57 -15 -144 -34 -252zM209 394c28 46 71 78 119 78c66 0 90 -57 90 -121c0 -57 -24 -304 -226 -304c-24 0 -41 3 -64 9c12 102 30 255 81 338z" />
    <glyph glyph-name="c" unicode="c" horiz-adv-x="417" 
d="M433 551c-18 4 -39 7 -65 7c-230 0 -338 -193 -338 -349c0 -136 88 -221 235 -221c17 0 34 1 50 3c25 3 48 20 57 44c5 15 -4 33 -19 29c-20 -7 -41 -11 -67 -11c-30 0 -59 6 -85 23c-53 34 -63 92 -63 140c0 138 80 274 215 274c19 0 34 -3 46 -7c20 -8 45 -5 53 15
c8 21 3 48 -19 53z" />
    <glyph glyph-name="d" unicode="d" horiz-adv-x="542" 
d="M461 240l54 302c13 69 19 104 25 130c5 24 -20 42 -45 37c-6 -2 -13 -3 -21 -4c-25 -3 -38 -30 -37 -56c2 -22 -3 -53 -13 -106c-24 7 -44 13 -75 13c-87 0 -170 -46 -226 -114c-93 -112 -101 -253 -101 -281c0 -114 69 -170 149 -170c91 0 151 121 190 174
c-6 -29 -16 -95 -18 -111c-4 -29 21 -52 50 -52c26 1 43 25 44 51c0 54 14 127 24 187zM122 194c0 63 42 300 217 300c29 0 50 -6 74 -13c-39 -197 -51 -257 -80 -315c-36 -71 -87 -94 -123 -94c-56 0 -88 52 -88 122z" />
    <glyph glyph-name="e" unicode="e" horiz-adv-x="484" 
d="M255 53c-153 -1 -119 166 -119 166c80 3 147 5 218 39c32 16 69 40 96 82c20 30 32 69 32 101c0 68 -48 120 -142 120c-65 0 -155 -28 -224 -113c-32 -40 -84 -128 -84 -239c2 -125 41 -217 200 -222c38 0 69 5 94 10c25 6 42 29 49 53c4 15 -9 29 -22 23
c-24 -10 -56 -20 -98 -20zM211 445c43 50 86 57 107 57c35 0 67 -21 67 -66c0 -38 -20 -73 -48 -100c-56 -53 -126 -93 -198 -94c7 54 27 152 72 203z" />
    <glyph glyph-name="f" unicode="f" horiz-adv-x="271" 
d="M126 559c-20 0 0 0 -12 1c-17 2 -33 -10 -37 -26c-3 -17 6 -36 23 -36h7h5l-57 -349c-24 -134 -40 -219 -77 -265c-9 -12 -32 -38 -74 -42c-22 -1 -46 -10 -54 -32c-7 -20 3 -45 25 -44c203 7 242 220 257 311c6 33 12 65 18 98l54 323h33c11 0 41 0 54 -1
c19 0 38 10 41 29c4 18 -11 34 -29 34c-11 0 -22 -1 -36 -1h-51c18 93 42 170 108 175c24 1 51 7 60 30c9 21 -6 45 -29 44c-40 -2 -85 -11 -131 -44c-51 -38 -79 -91 -98 -205z" />
    <glyph glyph-name="g" unicode="g" horiz-adv-x="542" 
d="M436 84l47 259c15 85 24 125 33 156c6 24 -13 48 -35 40c-6 -3 -13 -5 -21 -8c-27 11 -60 27 -113 27c-213 0 -325 -234 -325 -395c0 -23 2 -68 26 -106c24 -39 68 -66 124 -66c98 0 165 141 192 182c-27 -145 -47 -247 -95 -292c-39 -42 -96 -58 -153 -58
c-29 0 -50 4 -67 9c-23 8 -48 -2 -59 -24c-11 -21 0 -48 23 -52c20 -4 43 -6 73 -6c54 0 115 8 165 27c140 52 159 163 185 307zM332 494c42 0 69 -12 86 -20c-38 -191 -54 -269 -92 -327c-27 -40 -68 -71 -115 -71c-31 0 -56 14 -72 40c-15 24 -18 58 -18 82
c0 79 35 296 211 296z" />
    <glyph glyph-name="h" unicode="h" horiz-adv-x="562" 
d="M105 467l-51 -280c-14 -74 -22 -112 -30 -137c-7 -24 11 -47 35 -47c32 0 59 23 64 55c9 68 34 193 38 211c24 98 52 139 72 160c31 34 73 53 115 53c82 0 79 -57 68 -120l-39 -227c-7 -40 -12 -65 -17 -83c-7 -25 15 -48 41 -48c30 0 56 22 58 51c2 20 5 47 9 74l39 224
c9 51 13 77 13 99c0 79 -62 109 -126 109c-28 0 -67 -5 -110 -33c-48 -29 -81 -112 -100 -140l33 180c10 50 15 75 21 104c6 25 -19 45 -44 40c-11 -2 -22 -3 -34 -4c-22 -2 -29 -28 -28 -51c1 -30 -7 -84 -27 -190z" />
    <glyph glyph-name="i" unicode="i" 
d="M155 246l29 163c8 45 14 72 18 92c5 24 -14 48 -38 42c-11 -2 -23 -4 -37 -6c-24 -2 -31 -30 -30 -53c1 -36 -8 -102 -32 -235l-18 -98c-8 -44 -15 -74 -20 -96c-7 -25 10 -51 35 -50h8c28 0 54 19 56 47c3 35 11 94 29 194zM236 688c0 33 -22 49 -48 49
c-48 0 -70 -50 -70 -80c0 -36 25 -52 49 -52c45 0 69 51 69 83z" />
    <glyph glyph-name="j" unicode="j" 
d="M122 58l65 345c8 46 14 76 18 97c5 24 -15 46 -39 41c-12 -3 -25 -5 -40 -7c-24 -2 -34 -28 -33 -51c1 -2 1 -4 1 -7c0 -92 -57 -399 -87 -506c-21 -74 -45 -127 -100 -134c-23 -2 -45 -14 -52 -36c-6 -20 7 -43 28 -41c56 4 119 18 164 72c36 45 54 122 75 227zM235 685
c0 33 -22 49 -48 49c-48 0 -70 -50 -70 -80c0 -36 25 -52 49 -52c45 0 69 51 69 83z" />
    <glyph glyph-name="k" unicode="k" horiz-adv-x="495" 
d="M139 147l105 93c37 -125 65 -159 96 -198c22 -27 57 -42 92 -40h9c18 0 24 23 10 35c-38 33 -77 70 -113 176c-13 36 -20 55 -27 94c54 49 111 132 149 189c15 22 -9 48 -37 48h-11c-30 1 -48 -28 -58 -56c-2 -5 -4 -9 -6 -14c-36 -80 -120 -173 -189 -223l44 241
c13 76 22 122 34 177c6 24 -16 46 -41 41c-11 -3 -22 -4 -35 -5c-23 -2 -28 -29 -27 -52c1 -13 -1 -30 -5 -53l-69 -385c-8 -44 -21 -117 -31 -155c-1 -3 -2 -7 -3 -10c-7 -25 16 -45 42 -45c29 0 56 20 59 49c0 5 1 10 2 16c5 35 -6 63 10 77z" />
    <glyph glyph-name="l" unicode="l" horiz-adv-x="286" 
d="M148 -3c17 0 33 1 49 3c26 3 48 19 57 43c6 16 -4 34 -19 29c-20 -6 -29 -10 -54 -10c-31 2 -40 37 -40 37c-8 23 7 82 14 133l46 270c17 89 25 134 33 171c5 25 -18 46 -42 40c-11 -3 -21 -5 -33 -6c-23 -3 -32 -30 -31 -53c1 -34 -7 -93 -27 -208
c-40 -230 -33 -188 -43 -243c0 -10 -9 -52 -11 -87c-3 -51 6 -118 101 -119z" />
    <glyph glyph-name="m" unicode="m" horiz-adv-x="801" 
d="M654 561c-51 0 -90 -34 -101 -45c-30 -31 -68 -96 -82 -123c-4 37 -4 168 -109 168c-51 0 -91 -34 -101 -45c-30 -31 -65 -100 -80 -127c7 31 19 96 24 116c5 25 -21 42 -45 37c-9 -1 -19 -3 -30 -4c-24 -3 -32 -30 -31 -55c1 -19 -1 -47 -9 -89l-44 -251
c-8 -43 -13 -69 -19 -91c-7 -24 11 -47 35 -46h8c29 0 55 22 57 51c6 65 31 224 55 292c31 85 87 131 146 131c42 0 45 -19 45 -67c0 -27 -6 -69 -18 -138l-12 -70c-14 -78 -23 -121 -31 -151c-7 -25 15 -48 42 -48c29 0 55 21 58 50c5 57 24 201 54 285
c39 107 105 138 153 138c26 0 41 -12 41 -66c0 -21 -6 -59 -12 -94l-31 -177c-8 -42 -14 -69 -20 -89c-6 -24 10 -49 35 -48h8c30 0 56 23 58 54c2 30 7 76 20 146l31 171c7 37 11 59 11 83c0 89 -73 102 -106 102z" />
    <glyph glyph-name="n" unicode="n" horiz-adv-x="562" 
d="M83 357l-32 -188c-7 -47 -14 -83 -25 -120c-7 -23 14 -44 39 -43h8c28 0 54 19 56 47c1 19 3 42 8 73l18 117c9 55 20 122 57 170c29 38 82 69 129 69c96 0 89 -53 65 -188l-12 -67c-17 -98 -28 -147 -37 -178c-6 -23 13 -45 37 -44h9c29 0 54 21 56 50
c3 51 17 132 25 175l25 140c9 48 12 69 12 87c0 82 -74 104 -129 104c-51 0 -100 -19 -140 -50c-29 -23 -54 -93 -72 -120c6 34 19 99 23 119c5 24 -17 44 -41 39c-11 -2 -22 -4 -34 -5c-23 -2 -31 -28 -30 -51v-6c0 -38 -8 -89 -15 -130z" />
    <glyph glyph-name="o" unicode="o" horiz-adv-x="562" 
d="M487 508c-33 34 -84 51 -147 51c-212 0 -314 -204 -314 -365c0 -95 35 -135 57 -155c38 -35 89 -50 141 -50c216 0 312 225 312 381c0 30 -2 92 -49 138zM401 468c32 -30 33 -71 33 -94c0 -48 -24 -322 -201 -322c-57 0 -107 35 -107 130c0 79 39 313 199 313
c40 0 64 -16 76 -27z" />
    <glyph glyph-name="p" unicode="p" horiz-adv-x="542" 
d="M520 393c0 108 -52 165 -132 165c-59 0 -94 -25 -106 -34c-52 -37 -87 -129 -110 -164l29 143c5 24 -18 43 -43 39c-10 -2 -22 -4 -37 -5c-21 -2 -28 -26 -26 -47s0 -51 -8 -96c-8 -49 -12 -74 -20 -117l-63 -327c-11 -56 -22 -115 -35 -160c-7 -24 16 -44 41 -44h9
c29 -2 50 24 53 53c2 19 5 44 11 79l23 127c42 -9 73 -12 94 -12c75 0 146 34 199 87c75 75 121 208 121 313zM166 291c35 114 100 182 165 182c62 0 87 -51 87 -109c0 -59 -17 -177 -76 -246c-18 -22 -55 -59 -130 -59c-45 0 -70 14 -91 25c8 43 27 148 45 207z" />
    <glyph glyph-name="q" unicode="q" horiz-adv-x="542" 
d="M492 548l-27 -12c-20 10 -29 14 -54 20c-24 5 -40 7 -61 7c-150 0 -228 -113 -248 -142c-62 -88 -78 -199 -78 -253c0 -26 1 -93 50 -140c27 -26 62 -38 98 -38c64 0 101 32 114 43c45 39 73 125 89 156c-15 -76 -41 -222 -57 -293c-7 -32 -12 -52 -18 -77
c-6 -26 18 -48 45 -47c31 1 59 23 61 54c9 140 20 204 60 421c28 144 43 208 62 271c7 21 -16 39 -36 30zM425 482l-29 -139c-14 -67 -39 -171 -93 -224c-25 -25 -64 -42 -87 -42c-85 0 -95 73 -95 130c0 61 26 175 81 233c32 35 75 59 140 59c35 0 65 -11 83 -17z" />
    <glyph glyph-name="r" unicode="r" horiz-adv-x="333" 
d="M87 373l-49 -271c-2 -15 -7 -33 -12 -50c-7 -25 15 -47 40 -47h5c29 -1 53 22 56 51c5 66 28 198 43 251c28 100 85 142 132 153c30 7 60 23 70 52c8 23 -9 49 -33 42c-15 -5 -33 -13 -54 -27c-52 -35 -88 -119 -111 -156c8 42 25 112 29 131c5 25 -19 43 -44 38
c-8 -1 -17 -2 -27 -3c-24 -3 -35 -29 -33 -53c1 -23 -2 -57 -12 -111z" />
    <glyph glyph-name="s" unicode="s" horiz-adv-x="375" 
d="M122 255l62 -36c31 -18 59 -37 59 -72c0 -41 -42 -85 -121 -85c-41 0 -67 7 -86 16c-20 10 -45 4 -52 -18c-9 -28 5 -59 34 -65c21 -5 42 -7 71 -7c42 0 108 3 168 46c57 42 77 100 77 145c0 63 -43 90 -71 107l-51 31c-38 21 -75 42 -75 86c0 40 42 89 118 89
c24 0 43 -5 58 -12c20 -10 46 -5 56 16c10 23 -1 51 -26 56c-19 5 -38 7 -64 7c-38 0 -108 -7 -159 -45c-46 -35 -79 -85 -79 -142c0 -68 53 -100 81 -117z" />
    <glyph glyph-name="t" unicode="t" horiz-adv-x="292" 
d="M217 558c26 1 58 1 76 2s32 -17 28 -35c-5 -21 -26 -34 -48 -34c-20 1 -56 1 -70 1c-12 -62 -36 -182 -48 -245c-11 -52 -19 -97 -19 -126c0 -39 24 -55 58 -55c10 0 19 1 27 3c16 4 28 -12 24 -28c-6 -25 -24 -47 -50 -50c-8 -1 -16 -1 -24 -1c-56 0 -95 19 -110 39
c-24 33 -22 66 -10 129l65 334l-9 1c-17 0 -29 16 -26 33c3 19 19 35 38 33l10 -1c5 28 8 48 10 71c3 33 27 60 60 68c23 5 47 -13 41 -36c-9 -32 -15 -59 -23 -103z" />
    <glyph glyph-name="u" unicode="u" horiz-adv-x="542" 
d="M147 239l29 147c10 47 14 65 26 112c7 26 -15 50 -41 44c-8 -1 -16 -3 -24 -4c-27 -4 -38 -34 -40 -61c-1 -12 -3 -28 -7 -48l-50 -266c-6 -37 -8 -51 -8 -65c0 -73 58 -108 124 -108c14 0 66 3 112 35c44 31 73 112 89 136c-4 -22 -13 -84 -14 -108
c-2 -28 21 -52 50 -52c26 0 48 21 47 47v8c0 38 9 105 34 244c17 98 30 155 45 208c7 22 -15 42 -38 38c-7 -1 -15 -3 -23 -4c-28 -5 -45 -32 -46 -61c-1 -25 -6 -63 -17 -123c-15 -79 -37 -166 -62 -209c-43 -72 -107 -77 -128 -77c-55 0 -73 33 -73 71c0 22 4 45 15 96z
" />
    <glyph glyph-name="v" unicode="v" horiz-adv-x="521" 
d="M383 368l-142 -290c-21 114 -30 165 -49 321c-5 43 -7 72 -8 92c-1 29 -23 53 -51 52h-12h-12c-25 1 -46 -21 -38 -45c5 -16 10 -37 16 -69c14 -67 14 -69 24 -127l28 -167c4 -26 8 -52 11 -78c4 -31 32 -54 64 -54c35 0 69 16 83 47c8 17 17 36 33 67l30 60
c77 156 83 167 132 254c15 27 27 47 40 68c12 20 -4 45 -28 45c-32 0 -61 -21 -71 -52c-8 -29 -22 -64 -50 -124z" />
    <glyph glyph-name="w" unicode="w" horiz-adv-x="750" 
d="M689 545c22 1 35 -24 24 -42c-13 -23 -21 -40 -35 -69l-161 -359c-3 -6 -5 -12 -8 -18c-12 -33 -44 -54 -79 -53h-9c-31 0 -57 23 -58 54c-2 87 -6 182 -12 284l-68 -177c-22 -52 -35 -84 -45 -114c-11 -32 -45 -48 -79 -47h-8c-30 0 -55 24 -54 54c2 41 3 93 1 127
l-12 192c-4 58 -6 88 -11 113c-4 28 16 56 44 55h9c30 0 55 -23 53 -53c-1 -17 -2 -40 -2 -73l3 -239c0 -52 1 -65 1 -93c19 43 38 88 57 132l62 147c12 26 22 51 31 73c11 30 42 46 74 47c36 4 33 -199 47 -404l126 306c19 51 29 81 36 106c8 32 40 50 73 51z" />
    <glyph glyph-name="x" unicode="x" horiz-adv-x="521" 
d="M358 436l-81 -92l-35 82c-14 31 -23 52 -29 69c-9 30 -37 50 -68 50h-12h-11c-24 0 -40 -24 -28 -44c11 -18 20 -35 28 -50l90 -181l-170 -185l-51 -51c-12 -12 1 -30 18 -30h10c33 -1 65 15 86 41c9 11 21 26 38 45l101 118l53 -122c5 -11 9 -20 12 -29
c13 -31 43 -54 78 -52h10h9c20 -1 33 20 24 37c-7 14 -16 31 -27 55l-93 186l113 125c13 14 68 74 80 86l19 19c12 12 7 33 -10 33h-9h-10c-35 1 -66 -21 -87 -49c-10 -14 -25 -33 -48 -61z" />
    <glyph glyph-name="y" unicode="y" horiz-adv-x="479" 
d="M192 -4l-26 -48c-20 -36 -61 -107 -138 -111c-28 -2 -56 -15 -64 -42c-8 -26 13 -52 40 -49c143 17 199 126 256 237l163 358c17 40 43 100 68 145c3 6 5 10 8 15c11 19 -2 43 -24 43h-9c-33 2 -59 -23 -69 -55c-15 -49 -49 -139 -123 -314l-49 -114l-45 330
c-6 44 -9 75 -10 97c-3 30 -26 56 -57 55h-10h-11c-24 1 -43 -22 -35 -46c8 -28 19 -73 32 -149c23 -130 31 -183 41 -299c3 -30 32 -48 62 -53z" />
    <glyph glyph-name="z" unicode="z" horiz-adv-x="437" 
d="M199 320l-144 -196c-9 -11 -46 -60 -54 -70c-3 -4 -6 -8 -10 -13c-14 -17 0 -43 23 -42c56 3 101 4 167 4c60 0 104 -2 136 -4c34 -1 65 21 77 54c1 2 2 4 2 7c7 17 -14 29 -31 22c-14 -6 -30 -10 -52 -12c-26 -3 -77 -5 -110 -5c-24 0 -46 1 -78 2l153 217
c42 56 108 145 149 203c7 8 12 15 18 23c13 17 -3 40 -24 39c-39 -4 -75 -5 -149 -5c-78 0 -123 2 -152 4c-30 2 -56 -20 -62 -50c-3 -21 17 -35 37 -31c16 4 37 6 67 7c58 3 102 3 144 1c-28 -43 -70 -105 -107 -155z" />
    <glyph glyph-name="braceleft" unicode="{" horiz-adv-x="373" 
d="M99 282c2 10 10 19 20 22c10 2 21 7 32 16c27 24 29 47 48 135l23 130c13 75 45 165 185 171c9 0 13 -9 11 -18c-1 -9 -9 -18 -19 -19c-73 -8 -87 -77 -110 -209c-27 -155 -35 -197 -127 -228c81 -31 74 -73 47 -227c-20 -114 -34 -199 36 -209c9 -2 14 -10 13 -19
c-2 -9 -9 -19 -17 -18c-139 5 -139 96 -126 170l23 131c12 87 18 110 -1 134c-8 10 -16 14 -25 17s-15 11 -13 21z" />
    <glyph glyph-name="bar" unicode="|" 
d="M279 713l-162 -921c-4 -23 -24 -39 -47 -39c-21 0 -37 18 -33 39l162 921c4 22 24 39 47 39c21 0 37 -19 33 -39z" />
    <glyph glyph-name="braceright" unicode="}" horiz-adv-x="383" 
d="M274 282c-2 -10 -11 -18 -21 -21s-20 -7 -31 -17c-27 -24 -29 -47 -49 -134l-23 -131c-13 -74 -45 -165 -185 -170c-9 -1 -12 9 -11 18c2 9 10 17 19 19c74 10 91 95 111 209c27 154 34 196 127 227c-82 31 -74 73 -47 228c23 132 34 201 -37 209c-9 1 -14 10 -12 19
s8 18 17 18c138 -6 138 -96 125 -171l-23 -130c-11 -88 -17 -111 1 -135c8 -9 17 -14 26 -16c9 -3 15 -12 13 -22z" />
    <glyph glyph-name="asciitilde" unicode="~" horiz-adv-x="569" 
d="M513 330c-9 17 -31 20 -45 7c-18 -17 -42 -33 -70 -33c-23 0 -44 9 -70 21l-33 15c-38 17 -73 33 -111 33c-51 0 -87 -28 -110 -54c-16 -18 -14 -44 -2 -65c9 -18 35 -17 48 -2c12 14 19 20 30 25s23 8 36 8c27 0 55 -12 80 -24l30 -15c40 -19 66 -31 99 -31
c48 0 84 26 110 50c17 16 20 43 8 65z" />
    <glyph glyph-name="exclamdown" unicode="&#xa1;" horiz-adv-x="271" 
d="M23 73c-3 -12 -5 -21 -8 -29c-7 -24 15 -46 40 -43h5c34 4 63 26 67 60c7 63 16 114 39 244c19 107 27 149 34 181c5 23 -15 42 -38 41c-25 -1 -47 -18 -52 -42c-25 -153 -82 -395 -87 -412zM173 582c33 0 75 31 75 77c0 39 -30 52 -52 52c-39 0 -72 -39 -72 -77
c0 -31 20 -52 49 -52z" />
    <glyph glyph-name="cent" unicode="&#xa2;" horiz-adv-x="479" 
d="M463 547c23 -6 30 -34 19 -56c-10 -22 -38 -24 -59 -14c-16 8 -36 14 -64 15c-10 -22 -18 -44 -26 -66c-5 -14 -27 -15 -27 0c0 19 0 37 -1 56c-103 -26 -163 -150 -163 -265s57 -140 84 -153c9 21 17 41 25 61c5 14 26 12 25 -3c0 -22 0 -45 1 -68c40 -3 76 5 118 24
c16 7 30 -11 23 -27c-12 -29 -37 -53 -69 -57c-37 -5 -70 -7 -84 -7c-3 -17 -6 -32 -8 -43c-2 -17 -19 -28 -36 -29c-15 0 -25 14 -21 28c4 11 7 26 13 50c-115 19 -180 99 -180 214c0 167 120 332 288 350c3 23 4 36 5 47c2 17 17 29 34 31c16 1 28 -14 24 -29
c-4 -14 -8 -30 -10 -46c24 0 55 -4 89 -13z" />
    <glyph glyph-name="sterling" unicode="&#xa3;" horiz-adv-x="500" 
d="M159 456v-36c-18 0 -31 1 -41 1c-21 1 -40 -12 -43 -33c-3 -17 11 -32 29 -32h7h49c0 -51 -1 -106 -22 -168c-17 -51 -45 -83 -92 -90c-27 -5 -53 -21 -57 -48c-4 -25 11 -50 36 -49c101 3 184 4 199 4c41 0 76 -1 138 -3c34 -2 63 24 72 57c6 20 -15 37 -36 35
c-15 -1 -34 -1 -62 -2h-212c35 8 78 17 110 101c21 53 23 104 26 163h81h16c21 -1 40 13 44 33c4 18 -12 33 -30 31c-12 -1 -23 -1 -35 -1h-75c3 94 14 158 69 198c27 20 63 29 95 29c30 0 51 -6 67 -14c21 -11 50 -12 61 9c13 24 8 56 -18 64c-25 8 -55 13 -95 13
c-81 0 -163 -31 -216 -83c-60 -60 -63 -125 -65 -179z" />
    <glyph glyph-name="fraction" unicode="&#x2044;" horiz-adv-x="125" 
d="M336 705c-14 10 -33 6 -42 -7c-42 -60 -71 -99 -201 -275c-26 -35 -51 -70 -77 -105c-106 -143 -131 -178 -212 -282c-9 -12 -5 -29 7 -38c11 -8 29 -9 37 3c73 102 104 144 290 395c127 173 157 211 207 274c9 11 2 27 -9 35z" />
    <glyph glyph-name="yen" unicode="&#xa5;" horiz-adv-x="562" 
d="M342 246h59c11 0 23 1 35 2c18 1 33 -14 30 -32c-4 -20 -23 -34 -44 -33h-17l-75 1c-3 -16 -16 -83 -22 -130c-3 -29 -26 -52 -56 -51h-11c-6 0 -12 0 -18 -1c-23 0 -38 24 -32 47c7 23 15 58 23 109l4 25h-42h-8c-17 0 -32 15 -29 32c4 21 23 35 44 34
c10 -1 17 -1 35 -2h12l3 16l-18 55h-67h-7c-17 -1 -32 14 -29 32c4 20 23 34 43 33c10 0 23 -1 39 -1l-50 153c-19 60 -34 99 -46 126c-9 20 3 44 25 43h23h19c31 1 55 -24 60 -54c4 -18 10 -43 20 -77l60 -198l8 -26l17 27l136 213c17 29 28 49 36 66c14 29 42 49 73 49h14
h20c19 0 31 -21 19 -36c-14 -17 -32 -42 -56 -77l-142 -210c9 0 18 0 27 1c18 2 33 -13 30 -31c-4 -21 -23 -35 -44 -34c-5 1 -10 1 -17 1h-41l-41 -60z" />
    <glyph glyph-name="florin" unicode="&#x192;" horiz-adv-x="354" 
d="M126 559c-20 0 0 0 -12 1c-17 2 -33 -10 -37 -26c-3 -17 6 -36 23 -36h7h5l-57 -349c-24 -134 -40 -219 -77 -265c-9 -12 -32 -38 -74 -42c-22 -1 -46 -10 -54 -32c-7 -20 3 -45 25 -44c203 7 242 220 257 311c6 33 12 65 18 98l54 323h33c11 0 41 0 54 -1
c19 0 38 10 41 29c4 18 -11 34 -29 34c-11 0 -22 -1 -36 -1h-51c18 93 42 170 108 175c24 1 51 7 60 30c9 21 -6 45 -29 44c-40 -2 -85 -11 -131 -44c-51 -38 -79 -91 -98 -205z" />
    <glyph glyph-name="section" unicode="&#xa7;" horiz-adv-x="437" 
d="M394 638c-28 23 -62 26 -77 26c-66 0 -112 -47 -112 -98c0 -38 21 -60 42 -78c32 -28 66 -48 100 -72c30 -22 70 -55 70 -107c0 -22 -7 -52 -26 -79c-35 -50 -90 -63 -120 -70c47 -35 69 -81 69 -122c0 -91 -73 -175 -206 -175c-38 0 -77 6 -114 19c-23 8 -30 36 -21 60
c7 17 28 22 42 11c26 -22 62 -35 96 -35c66 0 118 43 118 105c0 36 -19 58 -48 82c-29 25 -60 44 -90 66c-36 26 -82 64 -82 123c0 69 61 128 155 133c-51 34 -76 81 -76 126c0 77 73 167 215 167c33 0 59 -3 79 -8c29 -6 33 -42 21 -69c-6 -14 -24 -14 -35 -5zM226 401
c-83 -10 -103 -64 -103 -91c0 -47 52 -81 113 -121c58 3 99 41 99 87c0 47 -37 76 -109 125z" />
    <glyph glyph-name="currency" unicode="&#xa4;" horiz-adv-x="667" 
d="M674 540l-53 -45c13 -26 37 -72 23 -155c-15 -85 -56 -131 -79 -157l38 -45c13 -17 9 -44 -11 -61s-47 -17 -61 0l-36 46c-28 -17 -81 -50 -163 -50c-85 0 -125 33 -147 51l-54 -46c-20 -16 -47 -16 -60 0c-14 17 -9 44 10 60l55 46c-13 24 -39 72 -24 155
c15 84 56 131 78 156l-37 45c-13 17 -9 43 11 60c19 17 46 17 60 0l37 -45c28 18 82 51 165 51c82 0 122 -32 145 -51l53 45c20 17 47 17 61 0c13 -17 8 -43 -11 -60zM347 151c102 0 198 81 217 190c20 112 -55 187 -153 187s-199 -74 -219 -189c-19 -109 52 -188 155 -188z
" />
    <glyph glyph-name="quotesingle" unicode="'" horiz-adv-x="208" 
d="M153 445l82 246c3 10 5 20 2 31c-5 17 -22 27 -40 27c-28 0 -58 -17 -65 -52c-1 -5 -1 -9 -2 -18l-4 -234c0 -6 5 -11 11 -11c7 0 13 5 16 11z" />
    <glyph glyph-name="quotedblleft" unicode="&#x201c;" horiz-adv-x="375" 
d="M206 690c-37 -38 -60 -64 -84 -102c-10 -17 4 -37 24 -36c31 2 58 20 70 48s30 58 53 90c7 10 -1 22 -13 22c-19 0 -37 -8 -50 -22zM349 690c-37 -38 -60 -64 -84 -102c-10 -17 5 -37 25 -36c30 2 57 20 69 48s30 58 54 90c7 10 -2 22 -14 22c-19 0 -37 -8 -50 -22z" />
    <glyph glyph-name="guillemotleft" unicode="&#xab;" horiz-adv-x="333" 
d="M146 238c5 28 -1 58 -21 79c-13 15 -24 23 -40 34c14 6 28 13 58 31c22 13 37 36 42 61c3 14 -13 24 -25 16c-29 -21 -49 -33 -79 -49c-24 -12 -41 -36 -45 -62s8 -51 29 -66c22 -16 36 -32 50 -54c9 -12 28 -5 31 10zM300 221c5 26 1 52 -15 73c-14 19 -27 30 -48 48
c32 16 49 25 63 34c22 12 36 35 40 59c3 14 -12 24 -24 17c-29 -20 -48 -32 -76 -47c-26 -14 -46 -38 -52 -67c-4 -26 6 -53 28 -70c18 -14 34 -31 53 -56c10 -12 28 -5 31 9z" />
    <glyph glyph-name="guilsinglleft" unicode="&#x2039;" horiz-adv-x="187" 
d="M159 283l-16 -90c-34 54 -48 78 -109 112l14 86c67 33 87 45 149 92l-14 -79c-55 -35 -75 -45 -93 -53c25 -17 38 -29 69 -68z" />
    <glyph glyph-name="guilsinglright" unicode="&#x203a;" horiz-adv-x="187" 
d="M60 423l15 80c43 -62 69 -84 112 -112l-16 -90c-67 -33 -87 -45 -151 -90l14 77c30 19 40 26 96 54c-31 26 -43 39 -70 81z" />
    <glyph glyph-name="fi" unicode="&#xfb01;" horiz-adv-x="500" 
d="M493 743c17 -12 17 -38 17 -38c0 -32 -24 -83 -69 -83c-24 0 -49 16 -49 52c0 7 1 16 4 25c6 22 -43 35 -69 31c-72 -12 -97 -92 -112 -171h33c20 0 33 1 43 1c16 0 26 -16 23 -31c-4 -19 -22 -32 -41 -31h-37h-33l-53 -323c-6 -33 -13 -65 -18 -98
c-16 -92 -55 -304 -258 -311c-21 -1 -32 24 -25 44c8 22 32 30 54 32c42 4 65 30 75 42c37 46 53 132 77 265l56 349h-5h-6c-17 0 -27 18 -23 36c4 17 21 27 39 26c14 -1 -7 -1 9 -1c18 106 48 160 98 205c78 68 251 5 270 -21zM435 543c24 6 42 -19 37 -43
c-4 -20 -9 -47 -18 -91l-28 -163c-19 -100 -26 -159 -29 -194c-2 -29 -28 -47 -57 -47h-7c-25 -1 -43 22 -36 46c5 22 11 51 21 100l24 134c22 115 28 173 25 204c-2 22 9 46 31 48c13 1 26 3 37 6z" />
    <glyph glyph-name="fl" unicode="&#xfb02;" horiz-adv-x="525" 
d="M216 559h33c14 0 25 1 35 1c18 0 33 -14 30 -31c-4 -19 -22 -32 -41 -31h-36h-33l-54 -323c-6 -33 -12 -65 -18 -98c-16 -92 -55 -304 -257 -311c-22 -1 -33 24 -25 44c7 22 31 30 53 32c42 4 66 30 75 42c37 46 53 132 77 265l57 349h-6h-6c-17 0 -27 18 -23 36
c4 17 22 27 40 26c13 -1 -8 -1 9 -1c18 106 47 160 98 205c77 68 247 5 267 -21c16 -12 16 -38 16 -38c-8 -39 -18 -94 -35 -186l-46 -287c-8 -51 -23 -110 -15 -134c0 0 9 -34 40 -36c26 0 34 4 55 10c15 5 24 -14 18 -29c-9 -24 -31 -40 -56 -43c-16 -2 -33 -4 -50 -4
c-95 0 -104 68 -101 120c2 34 11 77 12 87c9 54 3 29 43 259c8 47 16 99 21 140c5 39 7 75 8 97c2 24 -47 35 -73 31c-72 -12 -97 -92 -112 -171z" />
    <glyph glyph-name="endash" unicode="&#x2013;" horiz-adv-x="604" 
d="M575 353c5 23 -10 47 -34 46c-48 -2 -116 -5 -216 -5c-69 0 -138 1 -207 3c-28 1 -49 -22 -55 -49c-5 -23 18 -39 41 -37c21 1 48 1 95 1c107 0 214 -1 321 -3c27 -1 49 18 55 44z" />
    <glyph glyph-name="dagger" unicode="&#x2020;" horiz-adv-x="542" 
d="M280 572l-20 -101h-108c-10 0 -18 0 -24 1c-27 0 -50 -17 -55 -43c-6 -24 15 -44 39 -43h47h86l-50 -269c-26 -131 -35 -179 -50 -228c-8 -24 18 -41 43 -41c30 0 54 24 59 54c1 11 3 24 6 41c8 48 23 124 32 171l52 273h89c19 0 33 0 44 -1c28 -1 50 20 56 47
c5 22 -13 41 -36 40c-13 -2 -30 -2 -57 -2h-80l19 99c8 40 14 66 20 85c7 24 -14 47 -39 47c-32 0 -57 -26 -62 -57c-3 -25 -8 -53 -11 -73z" />
    <glyph glyph-name="daggerdbl" unicode="&#x2021;" horiz-adv-x="583" 
d="M323 145l54 280h102c16 0 28 -1 38 -1c27 -1 50 16 56 42c5 22 -13 43 -36 41c-14 -1 -28 -1 -42 -1h-104l15 79c5 27 10 53 17 77c7 22 -13 43 -36 42h-6c-29 -2 -53 -25 -57 -55c-3 -21 -8 -45 -11 -65l-16 -78h-114c-14 1 -26 1 -38 2c-27 1 -50 -19 -55 -46
c-3 -22 16 -39 38 -38c11 1 25 1 44 1h110l-52 -280h-104c-19 1 -33 1 -45 2c-27 2 -51 -17 -56 -44c-5 -23 15 -43 38 -41c13 1 29 1 50 2h102l-22 -112c-3 -16 -8 -41 -13 -62c-6 -23 11 -46 35 -46h6c30 1 54 25 58 55c1 11 4 27 8 50l21 115h99c14 -1 27 -1 39 -2
c30 -2 57 19 63 48c4 21 -16 38 -37 37c-11 -1 -26 -1 -45 -2h-104z" />
    <glyph glyph-name="periodcentered" unicode="&#xb7;" 
d="M62 276c0 46 42 77 75 77c29 0 49 -21 49 -52c0 -38 -33 -77 -72 -77c-22 0 -52 13 -52 52z" />
    <glyph glyph-name="paragraph" unicode="&#xb6;" horiz-adv-x="667" 
d="M599 706h-202c-41 -1 -105 -2 -168 -51c-48 -37 -79 -93 -89 -149c-11 -59 2 -116 42 -151c29 -27 59 -32 83 -36l-81 -456c-2 -16 8 -29 24 -29s30 13 33 29l139 789h144l-139 -789c-2 -16 8 -29 24 -29s31 13 34 29l139 789h7c15 0 29 12 32 27s-7 27 -22 27z" />
    <glyph glyph-name="bullet" unicode="&#x2022;" horiz-adv-x="333" 
d="M161 223c78 0 139 60 151 130c13 75 -34 130 -105 130c-78 0 -143 -63 -155 -130c-12 -68 30 -130 109 -130z" />
    <glyph glyph-name="quotesinglbase" unicode="&#x201a;" 
d="M41 -81c36 38 59 65 83 102c11 17 -4 37 -24 36c-31 -2 -59 -21 -71 -49c-12 -29 -30 -58 -53 -90c-7 -9 3 -21 14 -21c20 0 38 9 51 22z" />
    <glyph glyph-name="quotedblbase" unicode="&#x201e;" horiz-adv-x="375" 
d="M41 -81c36 38 59 65 83 102c11 17 -4 37 -24 36c-31 -2 -59 -21 -71 -49c-12 -29 -30 -58 -53 -90c-7 -9 3 -21 14 -21c20 0 38 9 51 22zM184 -81c36 38 59 65 83 102c10 17 -5 37 -24 36c-31 -2 -58 -20 -70 -48c-12 -29 -30 -59 -53 -91c-7 -9 2 -21 13 -21
c20 0 38 9 51 22z" />
    <glyph glyph-name="quotedblright" unicode="&#x201d;" horiz-adv-x="375" 
d="M168 572c38 39 61 66 86 106c9 16 -5 34 -23 32c-11 -1 -20 -1 -28 -1h-8c-5 0 -10 1 -15 2c-4 0 -8 -3 -9 -7c-10 -41 -32 -84 -67 -133c-7 -9 2 -21 13 -21c19 0 37 8 51 22zM311 572c37 39 61 66 86 106c9 16 -8 33 -27 32c-9 -1 -17 -1 -24 -1h-8c-5 0 -10 1 -15 2
c-4 0 -9 -3 -10 -7c-9 -41 -31 -84 -66 -133c-7 -9 2 -21 14 -21c19 0 37 8 50 22z" />
    <glyph glyph-name="guillemotright" unicode="&#xbb;" horiz-adv-x="333" 
d="M66 463c-5 -25 -1 -52 15 -72c14 -20 27 -31 47 -49c-32 -16 -48 -25 -62 -33c-22 -13 -36 -35 -40 -59c-3 -14 12 -25 24 -17c29 19 49 32 76 46c26 14 46 38 52 67c5 26 -6 53 -27 70c-19 15 -35 31 -54 56c-10 12 -28 6 -31 -9zM220 447c-5 -29 1 -59 21 -80
c13 -14 23 -23 39 -34c-13 -6 -27 -13 -57 -31c-22 -13 -37 -36 -42 -61c-3 -14 14 -24 25 -15c29 20 49 33 79 48c24 13 41 36 45 63c4 25 -8 50 -29 65c-22 16 -36 32 -50 54c-9 13 -28 6 -31 -9z" />
    <glyph glyph-name="ellipsis" unicode="&#x2026;" horiz-adv-x="1000" 
d="M67 43c0 46 42 77 75 77c29 0 49 -21 49 -52c0 -38 -33 -77 -72 -77c-22 0 -52 13 -52 52zM400 43c0 46 42 77 75 77c29 0 49 -21 49 -52c0 -38 -33 -77 -72 -77c-22 0 -52 13 -52 52zM733 43c0 46 42 77 75 77c29 0 49 -21 49 -52c0 -38 -33 -77 -72 -77
c-22 0 -52 13 -52 52z" />
    <glyph glyph-name="perthousand" unicode="&#x2030;" horiz-adv-x="1141" 
d="M402 589c0 -104 -53 -331 -216 -331c-29 0 -54 9 -73 26c-32 27 -39 70 -39 111c0 55 24 229 125 294c28 17 60 26 91 26s57 -9 77 -26c32 -29 35 -74 35 -100zM199 314c19 0 45 8 64 34c35 46 66 192 66 253c0 12 0 64 -50 64c-100 0 -131 -223 -131 -274
c0 -28 5 -77 51 -77zM1043 430c22 -20 24 -51 24 -69c0 -72 -36 -232 -151 -232c-14 0 -35 3 -52 19c-22 18 -27 48 -27 77c0 39 17 160 87 205c20 13 43 19 64 19c22 0 41 -7 55 -19zM970 192c24 33 46 135 46 177c0 9 0 45 -35 45c-71 0 -92 -156 -92 -192
c0 -19 3 -53 36 -53c13 0 31 5 45 23zM693 449c31 0 56 -9 76 -26c32 -29 35 -74 35 -99c0 -104 -52 -332 -215 -332c-19 0 -49 5 -73 26c-32 27 -39 70 -39 111c0 55 24 230 125 294c27 17 60 26 91 26zM665 82c35 46 66 192 66 253c0 12 0 64 -49 64
c-100 0 -130 -223 -130 -274c0 -28 4 -77 51 -77c19 0 42 9 62 34zM652 670c-39 -62 -62 -100 -159 -274c-143 -253 -167 -296 -220 -394c-7 -12 -24 -12 -37 -4c-14 9 -21 26 -14 37c59 100 73 125 163 284c20 35 38 70 58 105c100 176 122 215 153 274c7 13 25 17 40 8
c14 -9 23 -25 16 -36z" />
    <glyph glyph-name="questiondown" unicode="&#xbf;" horiz-adv-x="437" 
d="M208 413l-49 -17c-49 -20 -97 -40 -127 -130c-10 -30 -19 -72 -19 -108c0 -90 49 -169 201 -169c28 0 53 2 75 6c26 4 42 29 42 56c0 20 -21 32 -40 26c-17 -6 -38 -11 -66 -11c-33 0 -64 8 -82 24c-26 23 -27 56 -27 74c0 41 10 91 32 123c28 44 62 54 107 68
c60 18 80 26 101 57c11 17 18 38 22 63c5 25 -17 44 -41 45c-27 1 -48 -20 -54 -46c-10 -38 -27 -45 -75 -61zM344 583c33 0 75 31 75 77c0 39 -30 52 -52 52c-39 0 -72 -39 -72 -77c0 -31 20 -52 49 -52z" />
    <glyph glyph-name="grave" unicode="`" 
d="M110 626c-45 34 -53 42 -62 67c-6 25 9 44 31 44c33 0 42 -20 50 -48c5 -19 21 -38 53 -61c16 -10 22 -26 8 -26c-23 0 -52 8 -80 24z" />
    <glyph glyph-name="acute" unicode="&#xb4;" 
d="M56 602c-14 0 -8 16 7 26c33 23 49 42 54 61c7 28 17 48 50 48c22 0 37 -19 30 -44c-8 -25 -16 -33 -62 -67c-27 -16 -57 -24 -79 -24z" />
    <glyph glyph-name="circumflex" unicode="&#x2c6;" 
d="M-3 601c-14 0 -17 17 -7 26c31 27 58 54 60 57c8 7 14 13 18 18c18 20 42 34 69 34c28 0 53 -18 66 -43c7 -16 19 -34 38 -57c11 -13 4 -33 -14 -33c-26 0 -53 9 -70 30c-12 14 -20 27 -34 50c-28 -29 -38 -41 -61 -60c-18 -15 -42 -22 -65 -22z" />
    <glyph glyph-name="tilde" unicode="&#x2dc;" 
d="M82 716l54 -19c12 -4 35 -14 53 -14c20 0 33 20 41 35c2 4 7 6 11 4c4 -1 6 -5 5 -9l-8 -45c-6 -27 -14 -37 -47 -37c-15 0 -43 9 -60 15l-54 16c-14 4 -24 7 -34 7c-22 0 -33 -14 -43 -31c-2 -5 -7 -7 -12 -5c-4 2 -7 7 -5 11l8 32c11 39 26 51 49 51c10 0 22 -4 42 -11
z" />
    <glyph glyph-name="macron" unicode="&#xaf;" 
d="M10 698c38 -1 76 -2 113 -2c36 0 70 1 107 2c18 1 33 -14 30 -32c-4 -20 -21 -34 -41 -34c-37 1 -74 2 -111 2s-73 -1 -110 -2c-18 0 -33 15 -30 33c4 20 21 34 42 33z" />
    <glyph glyph-name="breve" unicode="&#x2d8;" 
d="M38 721c23 0 34 -24 39 -46c6 -25 29 -33 47 -33c36 0 51 28 58 52c4 15 16 27 32 27c15 0 24 -16 19 -30c-22 -64 -69 -86 -128 -86c-55 0 -110 18 -116 71c-4 27 22 45 49 45z" />
    <glyph glyph-name="dotaccent" unicode="&#x2d9;" 
d="M126 730c29 0 51 -20 51 -53c0 -35 -31 -75 -74 -75c-25 0 -51 15 -51 51c0 42 35 77 74 77z" />
    <glyph glyph-name="dieresis" unicode="&#xa8;" 
d="M31 730c37 0 52 -27 52 -52c0 -37 -32 -76 -74 -76c-25 0 -51 15 -51 51c0 43 36 77 73 77zM220 730c37 0 52 -27 52 -52c0 -37 -32 -76 -74 -76c-25 0 -51 15 -51 51c0 43 36 77 73 77z" />
    <glyph glyph-name="ring" unicode="&#x2da;" 
d="M33 651c0 47 39 99 96 99c37 0 67 -28 67 -66c0 -46 -42 -102 -100 -102c-47 0 -63 40 -63 69zM159 680c0 26 -19 35 -35 35c-32 0 -57 -31 -57 -64c0 -24 15 -36 32 -36c26 0 60 26 60 65z" />
    <glyph glyph-name="cedilla" unicode="&#xb8;" 
d="M172 33l-34 -100c15 0 64 -2 64 -53c0 -39 -40 -100 -130 -100c-7 0 -13 1 -19 1c-14 2 -21 17 -16 31c4 13 20 15 34 12c4 -1 9 -2 15 -2c39 0 60 31 60 53c0 10 -3 18 -9 23c-19 20 -43 42 -33 67c13 32 16 47 21 68h47z" />
    <glyph glyph-name="hungarumlaut" unicode="&#x2dd;" 
d="M121 602c22 0 44 9 61 24c35 33 55 52 72 70c15 16 0 41 -23 41c-32 0 -61 -19 -78 -47c-10 -19 -23 -37 -44 -61c-9 -11 -2 -27 12 -27zM-23 602c22 0 44 9 61 24c35 33 55 52 72 70c15 16 0 41 -23 41c-32 0 -61 -19 -78 -47c-10 -19 -23 -37 -44 -61
c-9 -11 -2 -27 12 -27z" />
    <glyph glyph-name="ogonek" unicode="&#x2db;" 
d="M140 8l52 -5c-16 -8 -32 -15 -44 -24c-29 -20 -46 -47 -46 -68c0 -17 12 -36 41 -36c4 0 7 0 10 1c11 1 15 -12 9 -22c-12 -19 -28 -38 -51 -38c-42 0 -75 27 -75 67c0 34 29 77 71 106c4 3 31 19 33 19z" />
    <glyph glyph-name="caron" unicode="&#x2c7;" 
d="M233 737c14 0 17 -17 7 -26c-31 -27 -58 -54 -60 -57c-8 -7 -14 -13 -18 -18c-18 -20 -42 -34 -69 -34c-28 0 -53 18 -66 43c-7 16 -19 34 -38 57c-11 13 -4 33 14 33c26 0 53 -9 70 -30c12 -14 20 -27 34 -50c28 29 38 41 61 60c18 15 42 22 65 22z" />
    <glyph glyph-name="emdash" unicode="&#x2014;" horiz-adv-x="646" 
d="M63 351c-5 -23 11 -45 35 -44h39h371c25 0 37 -1 55 -1c26 -1 47 19 54 44c6 24 -12 46 -37 45c-34 -1 -74 -2 -96 -2h-252c-34 0 -79 1 -115 3c-26 1 -48 -19 -54 -45z" />
    <glyph glyph-name="AE" unicode="&#xc6;" horiz-adv-x="854" 
d="M846 710c23 1 39 -21 34 -43s-28 -35 -50 -31c-20 3 -48 5 -96 5c-28 0 -37 0 -119 -3l-43 -227h38c33 1 57 3 74 6c22 4 42 -16 37 -38c-6 -29 -38 -42 -67 -39c-12 1 -26 1 -43 1c-13 0 -42 -1 -54 -1l-38 -205c-11 -59 4 -64 81 -64c88 0 133 4 165 14
c19 5 32 -16 27 -35c-10 -30 -38 -49 -69 -48c-35 1 -65 2 -92 2h-94c-43 -1 -76 -2 -104 -2c-26 -1 -40 26 -32 50c10 30 16 61 24 99l23 122h-203l-48 -68c-43 -66 -65 -98 -90 -148c-1 -3 -2 -5 -3 -7c-15 -30 -48 -48 -83 -48c-3 0 -6 1 -10 1c-6 0 -13 -1 -20 -1
c-20 -1 -25 25 -12 39c16 19 86 114 109 145l193 264c89 122 127 179 151 220c18 28 51 43 85 40c19 -2 44 -3 79 -3c137 0 201 1 250 3zM462 347l52 306c-17 -24 -35 -49 -53 -74c-26 -37 -63 -87 -113 -155l-51 -77c27 -1 54 -1 81 -1c28 0 56 0 84 1z" />
    <glyph glyph-name="ordfeminine" unicode="&#xaa;" horiz-adv-x="333" 
d="M331 699c-20 7 -37 14 -66 14c-60 0 -105 -32 -135 -65c-63 -69 -71 -160 -71 -186c0 -77 51 -105 93 -105c34 0 70 40 117 98c-2 -11 -6 -47 -7 -58c-1 -19 15 -33 34 -33c15 0 29 12 29 27c0 20 2 44 9 86l15 88c9 50 14 76 20 97c5 23 -16 44 -38 37zM303 657l-16 -82
c-7 -41 -16 -86 -39 -119c-19 -26 -42 -39 -67 -39c-37 0 -51 30 -51 70c0 50 26 179 124 179c24 0 42 -6 49 -9z" />
    <glyph glyph-name="Oslash" unicode="&#xd8;" horiz-adv-x="729" 
d="M630 667c-52 42 -120 51 -179 51c-111 0 -226 -50 -306 -161c-61 -83 -97 -197 -97 -302c0 -104 35 -150 55 -176c-25 -28 -36 -40 -56 -58c-11 -11 -11 -29 0 -39c13 -11 32 -11 43 2c16 21 25 31 50 59c29 -21 75 -54 181 -54c148 0 253 93 306 186
c69 116 86 240 86 303c0 86 -31 130 -45 151c25 29 36 40 55 57c11 11 8 29 -3 39c-13 12 -32 12 -43 -1c-13 -16 -25 -31 -47 -57zM569 599l-402 -448c-13 33 -15 73 -15 108c0 69 18 169 69 256c53 91 123 136 226 136c48 0 89 -12 122 -52zM197 107l401 447
c4 -15 11 -42 11 -94c0 -182 -100 -408 -282 -408c-49 0 -93 16 -130 55z" />
    <glyph glyph-name="OE" unicode="&#x152;" horiz-adv-x="896" 
d="M649 410h-39l44 227c40 1 118 3 139 3c25 0 46 -1 72 -5c24 -3 50 9 54 33c4 22 -12 43 -35 42c-68 -3 -141 -4 -195 -4c-56 0 -92 2 -143 7c-31 3 -61 6 -92 6c-76 0 -133 -19 -191 -57c-173 -115 -209 -329 -209 -410c0 -144 75 -266 249 -266c28 0 56 3 84 5
c89 11 148 11 225 11c49 0 103 0 152 -2c32 0 59 23 69 53c6 18 -10 36 -28 30c-29 -8 -71 -15 -144 -15c-16 0 -79 0 -91 7c-21 10 -18 30 -11 72l37 191c12 0 41 2 54 2c17 0 31 0 42 -1c30 -3 61 10 68 39c5 22 -15 42 -37 38c-18 -3 -41 -5 -74 -6zM166 267
c0 125 67 385 277 385c51 0 76 -12 100 -24c-2 -23 -4 -52 -17 -129c-22 -138 -46 -274 -75 -410c-32 -22 -56 -35 -115 -35c-137 0 -170 100 -170 213z" />
    <glyph glyph-name="ordmasculine" unicode="&#xba;" horiz-adv-x="354" 
d="M356 681c-24 25 -60 32 -93 32c-132 0 -198 -126 -198 -228c0 -109 79 -130 125 -130c134 0 197 138 197 239c0 15 0 56 -31 87zM131 478c0 46 22 188 118 188c44 0 63 -29 63 -71c0 -25 -13 -193 -119 -193c-62 0 -62 65 -62 76z" />
    <glyph glyph-name="ae" unicode="&#xe6;" horiz-adv-x="785" 
d="M655 562c94 0 142 -52 142 -120c0 -32 -12 -71 -32 -101c-27 -42 -64 -66 -96 -82c-71 -34 -138 -36 -219 -39c0 0 -16 -167 137 -166c42 0 74 10 98 20c13 6 26 -8 22 -23c-7 -24 -24 -47 -49 -53c-25 -5 -56 -10 -94 -10c-142 4 -188 79 -198 184
c-46 -63 -115 -183 -205 -183c-73 0 -146 53 -146 167c0 48 17 234 166 344c24 18 81 56 164 56c45 0 75 -11 107 -23l23 8c21 6 38 -11 39 -31c54 37 95 52 141 52zM205 73c37 0 81 17 116 68c29 42 48 100 66 197l26 139c-19 6 -47 16 -85 16c-168 0 -213 -216 -213 -300
c0 -69 25 -120 90 -120zM652 337c28 27 48 62 48 100c0 45 -32 66 -67 66c-21 0 -64 -7 -107 -57c-47 -52 -66 -153 -73 -203c72 1 143 41 199 94z" />
    <glyph glyph-name="dotlessi" unicode="&#x131;" 
d="M155 246l29 163c8 45 14 72 18 92c5 24 -14 48 -38 42c-11 -2 -23 -4 -37 -6c-24 -2 -31 -30 -30 -53c1 -36 -8 -102 -32 -235l-18 -98c-8 -44 -15 -74 -20 -96c-7 -25 10 -51 35 -50h8c28 0 54 19 56 47c3 35 11 94 29 194z" />
    <glyph glyph-name="oslash" unicode="&#xf8;" horiz-adv-x="562" 
d="M499 564l-32 -40c-25 16 -55 35 -127 35c-82 0 -174 -28 -235 -114c-56 -80 -76 -187 -76 -252c0 -86 26 -120 40 -137l-41 -45c-9 -10 -7 -25 3 -34s26 -8 34 2l37 46c40 -29 81 -37 127 -37c67 0 134 23 184 67c97 84 123 235 123 318c0 71 -21 100 -34 118l37 41
c9 9 8 24 -2 32c-12 9 -29 11 -38 0zM414 461l-284 -332c-5 20 -5 38 -5 56c0 61 26 309 203 309c47 0 69 -18 86 -33zM153 85l289 337v-38c0 -114 -37 -226 -79 -275c-44 -52 -99 -58 -126 -58c-45 0 -66 18 -84 34z" />
    <glyph glyph-name="oe" unicode="&#x153;" horiz-adv-x="801" 
d="M662 562c94 0 142 -52 142 -120c0 -32 -12 -71 -32 -101c-27 -42 -64 -66 -96 -82c-71 -34 -138 -36 -219 -39c0 0 -16 -167 137 -166c42 0 74 10 98 20c13 6 26 -8 22 -23c-7 -24 -24 -47 -49 -53c-25 -5 -55 -10 -94 -10c-141 4 -187 79 -198 184
c-46 -63 -114 -183 -204 -183c-73 0 -146 53 -146 167c0 48 17 234 166 344c24 18 81 56 164 56c45 0 79 -10 101 -23c9 -4 28 -21 33 -29c81 52 132 57 175 58zM213 73c153 0 201 274 201 322c0 23 -6 65 -15 74c-11 11 -23 24 -63 24c-168 0 -213 -216 -213 -300
c0 -69 25 -120 90 -120zM659 337c28 27 48 62 48 100c0 45 -32 66 -67 66c-21 0 -64 -7 -107 -57c-46 -52 -66 -153 -72 -203c72 1 142 41 198 94z" />
    <glyph glyph-name="germandbls" unicode="&#xdf;" horiz-adv-x="542" 
d="M96 425l-42 -244c-42 -231 -57 -290 -86 -378c-9 -25 16 -45 42 -47c31 -1 60 20 65 51l114 608c26 133 40 178 72 219c12 13 40 50 102 50c47 0 79 -28 79 -77c0 -40 -25 -126 -105 -149c-10 -2 -24 -5 -43 -5c-27 -1 -51 -19 -57 -45c-6 -23 14 -44 37 -44
c41 0 84 -10 109 -43c15 -20 17 -41 17 -61c0 -104 -66 -203 -148 -203c-10 0 -19 1 -26 3c-22 5 -48 0 -56 -22c-8 -24 5 -53 31 -56c9 -1 20 -1 31 -1c98 0 182 58 226 130c27 45 43 106 43 146s-14 77 -36 101c-28 31 -71 40 -90 43c-20 4 -39 6 -60 7c21 2 42 5 61 9
c141 28 164 155 164 196c0 96 -84 134 -161 134c-55 0 -132 -20 -185 -69c-63 -60 -80 -147 -98 -253z" />
    <glyph glyph-name="Ograve" unicode="&#xd2;" horiz-adv-x="729" 
d="M713 470c0 -168 -107 -482 -397 -482c-67 0 -150 19 -206 82c-45 50 -60 118 -60 185c0 77 25 276 187 394c42 30 114 69 218 69c169 0 258 -91 258 -248zM551 618c-26 22 -66 33 -107 33c-205 0 -284 -243 -284 -398c0 -29 5 -92 27 -130c30 -52 89 -70 135 -71
c208 0 280 265 280 411c0 46 -6 116 -51 155zM439 781c-45 34 -53 42 -62 67c-6 25 9 44 31 44c33 0 42 -20 50 -48c5 -19 21 -38 53 -61c16 -10 22 -26 8 -26c-23 0 -52 8 -80 24z" />
    <glyph glyph-name="Ccedilla" unicode="&#xc7;" horiz-adv-x="562" 
d="M319 -70l18 56c42 0 77 3 106 7c35 5 63 32 75 66c6 16 -12 28 -27 21c-5 -2 -11 -4 -17 -7c-36 -14 -64 -18 -100 -18c-41 0 -104 5 -153 57c-52 56 -53 132 -53 161c0 167 84 376 297 376c43 0 72 -7 92 -17c22 -11 49 -3 59 20s1 52 -24 58c-47 11 -86 12 -105 12
c-62 0 -143 -13 -206 -44c-163 -78 -226 -260 -226 -412c0 -148 61 -205 106 -235c53 -34 110 -40 134 -42c-4 -10 -7 -19 -11 -28c-10 -25 15 -46 34 -65c5 -6 8 -13 8 -24c0 -22 -20 -53 -59 -53c-6 0 -11 1 -16 2c-13 3 -29 1 -34 -12c-4 -13 3 -29 17 -30
c5 -1 11 -2 19 -2c90 0 130 61 130 100c0 51 -50 53 -64 53z" />
    <glyph glyph-name="Ntilde" unicode="&#xd1;" horiz-adv-x="667" 
d="M400 868l54 -19c12 -4 35 -14 53 -14c20 0 33 20 41 35c2 4 7 6 11 4c4 -1 6 -5 5 -9l-8 -45c-6 -27 -14 -37 -47 -37c-15 0 -43 9 -60 15l-54 16c-14 4 -24 7 -34 7c-22 0 -33 -14 -43 -31c-2 -5 -7 -7 -12 -5c-4 2 -7 7 -5 11l8 32c11 39 26 51 49 51
c10 0 22 -4 42 -11zM326 562l115 -263c47 -108 56 -135 64 -156c3 32 3 32 6 50c9 54 18 107 26 160l37 204c8 43 12 73 14 93c3 30 26 54 56 54h5c25 0 43 -25 34 -49c-21 -58 -36 -126 -51 -196l-45 -225c-15 -84 -23 -125 -28 -171c-1 -6 -2 -11 -2 -15
c-3 -26 -23 -47 -49 -46c-27 1 -53 15 -62 40c-9 26 -24 62 -63 151l-97 219c-26 58 -54 120 -81 202c-20 -130 -25 -160 -59 -372c-16 -96 -23 -152 -25 -187c-2 -29 -27 -52 -57 -50h-11c-25 0 -43 24 -36 47c17 52 43 160 89 407c18 97 23 155 23 190c0 28 18 55 47 55
h12h31c34 1 61 -24 71 -56c8 -23 18 -46 36 -86z" />
    <glyph glyph-name="Otilde" unicode="&#xd5;" horiz-adv-x="729" 
d="M713 470c0 -168 -107 -482 -397 -482c-67 0 -150 19 -206 82c-45 50 -60 118 -60 185c0 77 25 276 187 394c42 30 114 69 218 69c169 0 258 -91 258 -248zM551 618c-26 22 -66 33 -107 33c-205 0 -284 -243 -284 -398c0 -29 5 -92 27 -130c30 -52 89 -70 135 -71
c208 0 280 265 280 411c0 46 -6 116 -51 155zM431 868l54 -19c12 -4 35 -14 53 -14c20 0 33 20 41 35c2 4 7 6 11 4c4 -1 6 -5 5 -9l-8 -45c-6 -27 -14 -37 -47 -37c-15 0 -43 9 -60 15l-54 16c-14 4 -24 7 -34 7c-22 0 -33 -14 -43 -31c-2 -5 -7 -7 -12 -5c-4 2 -7 7 -5 11
l8 32c11 39 26 51 49 51c10 0 22 -4 42 -11z" />
    <glyph glyph-name="mu" unicode="&#xb5;" horiz-adv-x="542" 
d="M89 415l-25 -126l-75 -380c-11 -56 -19 -91 -26 -115c-6 -24 11 -48 36 -48c29 1 56 19 60 48c4 23 9 48 16 85l27 152c4 -4 15 -39 70 -39c64 0 109 41 133 65c24 23 33 37 45 57c-4 -22 -6 -36 -7 -60c-2 -28 22 -51 50 -51c26 0 48 21 47 47v8c0 36 8 101 34 244
c17 98 30 152 44 201c7 25 -14 49 -39 44c-7 -2 -14 -3 -21 -5c-29 -4 -45 -32 -47 -61c-1 -13 -3 -29 -6 -50c-24 -181 -52 -251 -81 -294c-32 -47 -82 -65 -118 -65c-47 0 -89 19 -68 121l38 194c11 50 15 69 27 115c7 25 -17 47 -43 42c-6 -2 -11 -3 -17 -4
c-27 -4 -44 -31 -45 -58c0 -16 -3 -37 -9 -67z" />
    <glyph glyph-name="Oacute" unicode="&#xd3;" horiz-adv-x="729" 
d="M713 470c0 -168 -107 -482 -397 -482c-67 0 -150 19 -206 82c-45 50 -60 118 -60 185c0 77 25 276 187 394c42 30 114 69 218 69c169 0 258 -91 258 -248zM551 618c-26 22 -66 33 -107 33c-205 0 -284 -243 -284 -398c0 -29 5 -92 27 -130c30 -52 89 -70 135 -71
c208 0 280 265 280 411c0 46 -6 116 -51 155zM410 758c-14 0 -8 16 7 26c33 23 49 42 54 61c7 28 17 48 50 48c22 0 37 -19 30 -44c-8 -25 -16 -33 -62 -67c-27 -16 -57 -24 -79 -24z" />
    <glyph glyph-name="Igrave" unicode="&#xcc;" horiz-adv-x="250" 
d="M57 169l69 363c11 55 16 93 19 118c3 29 22 56 50 55h11h11c26 1 43 -25 36 -50c-8 -27 -18 -70 -30 -136l-64 -350c-10 -52 -15 -88 -18 -113c-3 -30 -27 -53 -57 -53h-18c-26 -1 -44 24 -37 49c8 26 15 59 28 117zM195 781c-45 34 -53 42 -62 67c-6 25 9 44 31 44
c33 0 42 -20 50 -48c5 -19 21 -38 53 -61c16 -10 22 -26 8 -26c-23 0 -52 8 -80 24z" />
    <glyph glyph-name="Ocircumflex" unicode="&#xd4;" horiz-adv-x="729" 
d="M713 470c0 -168 -107 -482 -397 -482c-67 0 -150 19 -206 82c-45 50 -60 118 -60 185c0 77 25 276 187 394c42 30 114 69 218 69c169 0 258 -91 258 -248zM551 618c-26 22 -66 33 -107 33c-205 0 -284 -243 -284 -398c0 -29 5 -92 27 -130c30 -52 89 -70 135 -71
c208 0 280 265 280 411c0 46 -6 116 -51 155zM340 758c-14 0 -17 17 -7 26c31 27 58 54 60 57c8 7 14 13 18 18c18 20 42 34 69 34c28 0 53 -18 66 -43c7 -16 19 -34 38 -57c11 -13 4 -33 -14 -33c-26 0 -53 9 -70 30c-12 14 -20 27 -34 50c-28 -29 -38 -41 -61 -60
c-18 -15 -42 -22 -65 -22z" />
    <glyph glyph-name="Eacute" unicode="&#xc9;" horiz-adv-x="500" 
d="M306 758c-14 0 -8 16 7 26c33 23 49 42 54 61c7 28 17 48 50 48c22 0 37 -19 30 -44c-8 -25 -16 -33 -62 -67c-27 -16 -57 -24 -79 -24zM187 337l-36 -186c-16 -83 -7 -83 95 -83c30 0 91 1 136 9c9 2 17 3 24 5c18 5 33 -12 28 -30c-10 -31 -37 -54 -69 -53
c-44 0 -94 1 -151 1c-50 -1 -101 -1 -151 -1c-27 -1 -40 28 -32 53c9 30 21 80 36 167l28 154c27 149 38 229 40 274c2 32 26 58 57 57c46 -1 92 -1 138 -1c58 0 112 1 156 2c21 1 38 -18 33 -39c-5 -23 -27 -38 -50 -34c-13 2 -43 5 -92 5c-57 0 -121 -3 -133 -3l-43 -224
h47c30 1 52 1 69 3c24 3 48 -13 43 -36c-6 -29 -37 -43 -66 -40c-45 4 -107 0 -107 0z" />
    <glyph glyph-name="Edieresis" unicode="&#xcb;" horiz-adv-x="500" 
d="M265 887c37 0 52 -27 52 -52c0 -37 -32 -76 -74 -76c-25 0 -51 15 -51 51c0 43 36 77 73 77zM454 887c37 0 52 -27 52 -52c0 -37 -32 -76 -74 -76c-25 0 -51 15 -51 51c0 43 36 77 73 77zM187 337l-36 -186c-16 -83 -7 -83 95 -83c30 0 91 1 136 9c9 2 17 3 24 5
c18 5 33 -12 28 -30c-10 -31 -37 -54 -69 -53c-44 0 -94 1 -151 1c-50 -1 -101 -1 -151 -1c-27 -1 -40 28 -32 53c9 30 21 80 36 167l28 154c27 149 38 229 40 274c2 32 26 58 57 57c46 -1 92 -1 138 -1c58 0 112 1 156 2c21 1 38 -18 33 -39c-5 -23 -27 -38 -50 -34
c-13 2 -43 5 -92 5c-57 0 -121 -3 -133 -3l-43 -224h47c30 1 52 1 69 3c24 3 48 -13 43 -36c-6 -29 -37 -43 -66 -40c-45 4 -107 0 -107 0z" />
    <glyph glyph-name="Aacute" unicode="&#xc1;" horiz-adv-x="604" 
d="M478 522l40 -353c8 -63 11 -93 15 -113c4 -27 -15 -53 -42 -52c-3 1 -6 1 -9 1h-11c-27 -1 -50 18 -51 45c-1 17 -3 40 -5 71l-6 91h-249l-46 -95c-13 -27 -22 -47 -28 -63c-12 -28 -37 -51 -67 -50c-4 1 -8 1 -13 1c-22 0 -39 22 -27 42c38 64 80 145 118 216
c50 93 151 290 201 393c15 31 49 47 83 46c7 -1 14 -1 23 -1c31 0 60 -19 63 -50c3 -42 7 -84 11 -129zM285 463l-90 -177c74 -2 101 -2 124 -2c30 0 47 0 83 2l-19 202c-9 86 -14 117 -16 129c-11 -22 -69 -129 -82 -154zM343 758c-14 0 -8 16 7 26c33 23 49 42 54 61
c7 28 17 48 50 48c22 0 37 -19 30 -44c-8 -25 -16 -33 -62 -67c-27 -16 -57 -24 -79 -24z" />
    <glyph glyph-name="Zcaron" unicode="&#x17d;" horiz-adv-x="542" 
d="M411 629h-129c-77 0 -121 0 -159 -12c-21 -6 -44 9 -40 30c6 33 33 58 66 57c108 -2 165 -2 215 -2c70 0 125 1 182 2c24 1 34 -28 19 -47c-16 -20 -36 -45 -58 -74c-150 -201 -251 -343 -320 -444c-20 -29 -23 -36 -23 -43c0 -11 10 -19 118 -19c34 0 88 2 128 9
c25 4 44 9 59 15c16 6 32 -7 26 -22c-3 -8 -6 -15 -8 -22c-12 -33 -42 -58 -77 -57c-61 2 -146 4 -234 4c-56 0 -116 -1 -169 -3c-22 -1 -33 26 -18 44c54 67 137 173 238 316c29 39 142 196 184 268zM481 900c14 0 17 -17 7 -26c-31 -27 -58 -54 -60 -57
c-8 -7 -14 -13 -18 -18c-18 -20 -42 -34 -69 -34c-28 0 -53 18 -66 43c-7 16 -19 34 -38 57c-11 13 -4 33 14 33c26 0 53 -9 70 -30c12 -14 20 -27 34 -50c28 29 38 41 61 60c18 15 42 22 65 22z" />
    <glyph glyph-name="ccedilla" unicode="&#xe7;" horiz-adv-x="417" 
d="M228 -70l20 59c25 0 43 0 70 4c25 2 46 19 54 42c6 15 -3 34 -18 29c-20 -6 -41 -11 -68 -11c-58 0 -97 24 -120 56c-27 38 -28 86 -28 107c0 138 81 274 216 274c19 0 34 -3 46 -7c20 -7 45 -4 53 16c8 21 3 49 -20 53c-17 4 -38 6 -65 6c-230 0 -338 -193 -338 -349
c0 -71 22 -134 85 -179c36 -26 68 -32 90 -36c-4 -14 -9 -26 -13 -36c-9 -24 18 -44 36 -62c5 -6 8 -13 8 -24c0 -22 -21 -53 -61 -53c-5 0 -10 1 -15 2c-13 3 -29 1 -34 -12c-4 -13 3 -29 17 -30c6 -1 12 -2 18 -2c91 0 131 61 131 100c0 51 -49 53 -64 53z" />
    <glyph glyph-name="logicalnot" unicode="&#xac;" horiz-adv-x="667" 
d="M599 252l-37 -212c-4 -22 10 -40 32 -40c23 0 44 18 48 40l41 232c5 33 -17 59 -49 59h-568c-22 0 -43 -18 -47 -39c-4 -22 11 -40 33 -40h547z" />
    <glyph glyph-name="Atilde" unicode="&#xc3;" horiz-adv-x="604" 
d="M478 522l40 -353c8 -63 11 -93 15 -113c4 -27 -15 -53 -42 -52c-3 1 -6 1 -9 1h-11c-27 -1 -50 18 -51 45c-1 17 -3 40 -5 71l-6 91h-249l-46 -95c-13 -27 -22 -47 -28 -63c-12 -28 -37 -51 -67 -50c-4 1 -8 1 -13 1c-22 0 -39 22 -27 42c38 64 80 145 118 216
c50 93 151 290 201 393c15 31 49 47 83 46c7 -1 14 -1 23 -1c31 0 60 -19 63 -50c3 -42 7 -84 11 -129zM285 463l-90 -177c74 -2 101 -2 124 -2c30 0 47 0 83 2l-19 202c-9 86 -14 117 -16 129c-11 -22 -69 -129 -82 -154zM369 868l54 -19c12 -4 35 -14 53 -14
c20 0 33 20 41 35c2 4 7 6 11 4c4 -1 6 -5 5 -9l-8 -45c-6 -27 -14 -37 -47 -37c-15 0 -43 9 -60 15l-54 16c-14 4 -24 7 -34 7c-22 0 -33 -14 -43 -31c-2 -5 -7 -7 -12 -5c-4 2 -7 7 -5 11l8 32c11 39 26 51 49 51c10 0 22 -4 42 -11z" />
    <glyph glyph-name="Acircumflex" unicode="&#xc2;" horiz-adv-x="604" 
d="M478 522l40 -353c8 -63 11 -93 15 -113c4 -27 -15 -53 -42 -52c-3 1 -6 1 -9 1h-11c-27 -1 -50 18 -51 45c-1 17 -3 40 -5 71l-6 91h-249l-46 -95c-13 -27 -22 -47 -28 -63c-12 -28 -37 -51 -67 -50c-4 1 -8 1 -13 1c-22 0 -39 22 -27 42c38 64 80 145 118 216
c50 93 151 290 201 393c15 31 49 47 83 46c7 -1 14 -1 23 -1c31 0 60 -19 63 -50c3 -42 7 -84 11 -129zM285 463l-90 -177c74 -2 101 -2 124 -2c30 0 47 0 83 2l-19 202c-9 86 -14 117 -16 129c-11 -22 -69 -129 -82 -154zM277 758c-14 0 -17 17 -7 26c31 27 58 54 60 57
c8 7 14 13 18 18c18 20 42 34 69 34c28 0 53 -18 66 -43c7 -16 19 -34 38 -57c11 -13 4 -33 -14 -33c-26 0 -53 9 -70 30c-12 14 -20 27 -34 50c-28 -29 -38 -41 -61 -60c-18 -15 -42 -22 -65 -22z" />
    <glyph glyph-name="Odieresis" unicode="&#xd6;" horiz-adv-x="729" 
d="M399 887c37 0 52 -27 52 -52c0 -37 -32 -76 -74 -76c-25 0 -51 15 -51 51c0 43 36 77 73 77zM588 887c37 0 52 -27 52 -52c0 -37 -32 -76 -74 -76c-25 0 -51 15 -51 51c0 43 36 77 73 77zM713 470c0 -168 -107 -482 -397 -482c-67 0 -150 19 -206 82
c-45 50 -60 118 -60 185c0 77 25 276 187 394c42 30 114 69 218 69c169 0 258 -91 258 -248zM551 618c-26 22 -66 33 -107 33c-205 0 -284 -243 -284 -398c0 -29 5 -92 27 -130c30 -52 89 -70 135 -71c208 0 280 265 280 411c0 46 -6 116 -51 155z" />
    <glyph glyph-name="Ucircumflex" unicode="&#xdb;" horiz-adv-x="667" 
d="M512 304l50 272c6 35 10 61 12 80c2 29 27 50 56 50c25 0 43 -25 35 -49c-6 -19 -12 -44 -18 -75l-53 -285c-21 -108 -26 -131 -37 -160c-20 -56 -54 -91 -101 -114c-49 -25 -115 -35 -179 -35s-127 14 -167 46c-51 41 -57 90 -44 168l76 435c1 4 1 8 2 12
c3 29 23 55 52 55h7h14c24 0 41 -24 33 -47c-4 -15 -9 -32 -12 -51l-62 -335c-7 -48 -21 -109 4 -149c22 -38 88 -54 127 -54c31 0 88 3 131 39c38 31 48 62 74 197zM308 758c-14 0 -17 17 -7 26c31 27 58 54 60 57c8 7 14 13 18 18c18 20 42 34 69 34c28 0 53 -18 66 -43
c7 -16 19 -34 38 -57c11 -13 4 -33 -14 -33c-26 0 -53 9 -70 30c-12 14 -20 27 -34 50c-28 -29 -38 -41 -61 -60c-18 -15 -42 -22 -65 -22z" />
    <glyph glyph-name="Ugrave" unicode="&#xd9;" horiz-adv-x="667" 
d="M512 304l50 272c6 35 10 61 12 80c2 29 27 50 56 50c25 0 43 -25 35 -49c-6 -19 -12 -44 -18 -75l-53 -285c-21 -108 -26 -131 -37 -160c-20 -56 -54 -91 -101 -114c-49 -25 -115 -35 -179 -35s-127 14 -167 46c-51 41 -57 90 -44 168l76 435c1 4 1 8 2 12
c3 29 23 55 52 55h7h14c24 0 41 -24 33 -47c-4 -15 -9 -32 -12 -51l-62 -335c-7 -48 -21 -109 4 -149c22 -38 88 -54 127 -54c31 0 88 3 131 39c38 31 48 62 74 197zM409 781c-45 34 -53 42 -62 67c-6 25 9 44 31 44c33 0 42 -20 50 -48c5 -19 21 -38 53 -61
c16 -10 22 -26 8 -26c-23 0 -52 8 -80 24z" />
    <glyph glyph-name="Udieresis" unicode="&#xdc;" horiz-adv-x="667" 
d="M358 887c37 0 52 -27 52 -52c0 -37 -32 -76 -74 -76c-25 0 -51 15 -51 51c0 43 36 77 73 77zM547 887c37 0 52 -27 52 -52c0 -37 -32 -76 -74 -76c-25 0 -51 15 -51 51c0 43 36 77 73 77zM512 304l50 272c6 35 10 61 12 80c2 29 27 50 56 50c25 0 43 -25 35 -49
c-6 -19 -12 -44 -18 -75l-53 -285c-21 -108 -26 -131 -37 -160c-20 -56 -54 -91 -101 -114c-49 -25 -115 -35 -179 -35s-127 14 -167 46c-51 41 -57 90 -44 168l76 435c1 4 1 8 2 12c3 29 23 55 52 55h7h14c24 0 41 -24 33 -47c-4 -15 -9 -32 -12 -51l-62 -335
c-7 -48 -21 -109 4 -149c22 -38 88 -54 127 -54c31 0 88 3 131 39c38 31 48 62 74 197z" />
    <glyph glyph-name="Iacute" unicode="&#xcd;" horiz-adv-x="250" 
d="M162 758c-14 0 -8 16 7 26c33 23 49 42 54 61c7 28 17 48 50 48c22 0 37 -19 30 -44c-8 -25 -16 -33 -62 -67c-27 -16 -57 -24 -79 -24zM57 169l69 363c11 55 16 93 19 118c3 29 22 56 50 55h11h11c26 1 43 -25 36 -50c-8 -27 -18 -70 -30 -136l-64 -350
c-10 -52 -15 -88 -18 -113c-3 -30 -27 -53 -57 -53h-18c-26 -1 -44 24 -37 49c8 26 15 59 28 117z" />
    <glyph glyph-name="Agrave" unicode="&#xc0;" horiz-adv-x="604" 
d="M478 522l40 -353c8 -63 11 -93 15 -113c4 -27 -15 -53 -42 -52c-3 1 -6 1 -9 1h-11c-27 -1 -50 18 -51 45c-1 17 -3 40 -5 71l-6 91h-249l-46 -95c-13 -27 -22 -47 -28 -63c-12 -28 -37 -51 -67 -50c-4 1 -8 1 -13 1c-22 0 -39 22 -27 42c38 64 80 145 118 216
c50 93 151 290 201 393c15 31 49 47 83 46c7 -1 14 -1 23 -1c31 0 60 -19 63 -50c3 -42 7 -84 11 -129zM285 463l-90 -177c74 -2 101 -2 124 -2c30 0 47 0 83 2l-19 202c-9 86 -14 117 -16 129c-11 -22 -69 -129 -82 -154zM370 781c-45 34 -53 42 -62 67c-6 25 9 44 31 44
c33 0 42 -20 50 -48c5 -19 21 -38 53 -61c16 -10 22 -26 8 -26c-23 0 -52 8 -80 24z" />
    <glyph glyph-name="degree" unicode="&#xb0;" horiz-adv-x="354" 
d="M387 594c15 81 -39 147 -121 147c-81 0 -158 -66 -173 -147c-14 -81 40 -147 121 -147c82 0 159 66 173 147zM153 594c9 47 54 87 103 87c48 0 80 -40 71 -87c-8 -48 -54 -87 -102 -87c-49 0 -80 39 -72 87z" />
    <glyph glyph-name="Yacute" unicode="&#xdd;" horiz-adv-x="562" 
d="M567 592l-228 -334l-140 -205c-23 -27 -65 -51 -92 -49h-16h-9c-25 0 -30 21 -7 45c10 13 65 73 76 87c33 41 58 85 77 127l-88 273c-3 9 -20 55 -23 65c-9 25 -16 42 -22 56c-9 22 5 49 29 48c7 -1 13 -1 20 -1s13 0 20 1c28 1 50 -24 56 -52c3 -15 8 -35 16 -61
l73 -242l18 28c86 136 143 222 169 278c14 30 44 48 76 48h12h17c19 0 34 -20 22 -35c-14 -17 -32 -42 -56 -77zM327 758c-14 0 -8 16 7 26c33 23 49 42 54 61c7 28 17 48 50 48c22 0 37 -19 30 -44c-8 -25 -16 -33 -62 -67c-27 -16 -57 -24 -79 -24z" />
    <glyph glyph-name="Uacute" unicode="&#xda;" horiz-adv-x="667" 
d="M512 304l50 272c6 35 10 61 12 80c2 29 27 50 56 50c25 0 43 -25 35 -49c-6 -19 -12 -44 -18 -75l-53 -285c-21 -108 -26 -131 -37 -160c-20 -56 -54 -91 -101 -114c-49 -25 -115 -35 -179 -35s-127 14 -167 46c-51 41 -57 90 -44 168l76 435c1 4 1 8 2 12
c3 29 23 55 52 55h7h14c24 0 41 -24 33 -47c-4 -15 -9 -32 -12 -51l-62 -335c-7 -48 -21 -109 4 -149c22 -38 88 -54 127 -54c31 0 88 3 131 39c38 31 48 62 74 197zM368 758c-14 0 -8 16 7 26c33 23 49 42 54 61c7 28 17 48 50 48c22 0 37 -19 30 -44
c-8 -25 -16 -33 -62 -67c-27 -16 -57 -24 -79 -24z" />
    <glyph glyph-name="registered" unicode="&#xae;" horiz-adv-x="833" 
d="M432 707c206 0 357 -162 357 -355c0 -197 -155 -356 -357 -356c-185 0 -355 145 -355 355c0 205 163 356 355 356zM433 28c183 0 324 145 324 324c0 176 -138 323 -323 323c-183 0 -325 -146 -325 -324c0 -181 146 -323 324 -323zM615 483c0 -15 -4 -63 -45 -104
c-31 -31 -63 -41 -87 -47c5 -60 38 -119 86 -171c9 -9 5 -26 -7 -25h-17c-22 0 -46 8 -59 27c-8 13 -18 30 -35 62c-16 32 -25 65 -30 97h-62l-23 -140c-1 -4 -1 -8 -2 -11c-2 -19 -17 -35 -36 -35h-8h-3c-17 0 -29 16 -24 31c7 24 14 54 24 102l42 224c4 26 7 44 8 58
c2 18 14 34 32 34h40c44 1 57 2 71 2c27 0 64 -2 92 -18c33 -21 43 -59 43 -86zM478 381c50 21 64 71 64 96c0 53 -38 69 -85 69c-14 0 -26 -2 -54 -5c-7 -27 -10 -39 -19 -89l-15 -83c5 0 19 -1 33 -1c26 0 53 2 76 13z" />
    <glyph glyph-name="copyright" unicode="&#xa9;" horiz-adv-x="833" 
d="M432 707c206 0 357 -161 357 -355c0 -197 -155 -356 -357 -356c-186 0 -355 145 -355 355c0 205 163 356 355 356zM432 28c185 0 325 145 325 324c0 177 -138 323 -323 323c-183 0 -325 -145 -325 -324c0 -181 145 -323 323 -323zM582 573c17 -3 25 -22 19 -38
c-6 -14 -24 -20 -39 -13c-12 7 -31 12 -59 12c-137 0 -190 -135 -190 -241c0 -81 39 -139 133 -139c22 0 41 2 64 11c4 2 8 3 11 5c9 4 21 -4 17 -14c-9 -22 -27 -40 -51 -43c-16 -2 -36 -4 -60 -4c-66 0 -126 18 -159 70c-17 26 -27 63 -27 110c0 117 59 291 281 291
c10 0 33 -1 60 -7z" />
    <glyph glyph-name="Ecircumflex" unicode="&#xca;" horiz-adv-x="500" 
d="M225 758c-14 0 -17 17 -7 26c31 27 58 54 60 57c8 7 14 13 18 18c18 20 42 34 69 34c28 0 53 -18 66 -43c7 -16 19 -34 38 -57c11 -13 4 -33 -14 -33c-26 0 -53 9 -70 30c-12 14 -20 27 -34 50c-28 -29 -38 -41 -61 -60c-18 -15 -42 -22 -65 -22zM187 337l-36 -186
c-16 -83 -7 -83 95 -83c30 0 91 1 136 9c9 2 17 3 24 5c18 5 33 -12 28 -30c-10 -31 -37 -54 -69 -53c-44 0 -94 1 -151 1c-50 -1 -101 -1 -151 -1c-27 -1 -40 28 -32 53c9 30 21 80 36 167l28 154c27 149 38 229 40 274c2 32 26 58 57 57c46 -1 92 -1 138 -1
c58 0 112 1 156 2c21 1 38 -18 33 -39c-5 -23 -27 -38 -50 -34c-13 2 -43 5 -92 5c-57 0 -121 -3 -133 -3l-43 -224h47c30 1 52 1 69 3c24 3 48 -13 43 -36c-6 -29 -37 -43 -66 -40c-45 4 -107 0 -107 0z" />
    <glyph glyph-name="trademark" unicode="&#x2122;" horiz-adv-x="687" 
d="M182 403l44 254h80c13 0 26 10 29 24c2 14 -7 25 -21 25h-220c-13 0 -26 -11 -28 -25c-3 -14 6 -24 20 -24h82l-44 -254c-3 -16 7 -29 24 -29c15 0 31 13 34 29zM635 402l47 264c4 22 -11 40 -33 40c-23 0 -47 -16 -58 -38l-108 -224l-32 224c-3 22 -21 38 -45 38
c-21 0 -42 -18 -46 -40l-47 -264c-2 -16 8 -28 23 -28c16 -1 30 12 33 28l30 178c2 16 5 44 7 66c5 -42 6 -47 7 -55l27 -193c2 -15 14 -24 29 -24s30 10 37 24l95 193c16 34 17 37 25 56c-3 -14 -9 -38 -14 -67l-33 -178c-3 -16 7 -28 23 -28s31 12 33 28z" />
    <glyph glyph-name="plusminus" unicode="&#xb1;" horiz-adv-x="652" 
d="M385 210l29 167h176c22 0 43 18 47 40s-11 39 -33 39h-176l30 167c3 22 -11 40 -34 40c-22 0 -43 -18 -46 -40l-30 -167h-179c-22 0 -42 -17 -46 -39s10 -40 32 -40h179l-29 -167c-4 -22 10 -40 33 -40c22 0 43 18 47 40zM517 40c4 22 -10 39 -32 39h-329
c-22 0 -43 -17 -47 -39s11 -40 33 -40h329c22 0 42 18 46 40z" />
    <glyph glyph-name="Adieresis" unicode="&#xc4;" horiz-adv-x="604" 
d="M195 286l90 177c13 25 71 132 82 154c2 -12 7 -43 16 -129l19 -202c-36 -2 -53 -2 -83 -2c-23 0 -50 0 -124 2zM518 169l-40 353c-4 45 -8 87 -11 129c-3 31 -32 50 -63 50c-9 0 -16 0 -23 1c-34 1 -68 -15 -83 -46c-50 -103 -151 -300 -201 -393
c-38 -71 -80 -152 -118 -216c-12 -20 5 -42 27 -42c5 0 9 0 13 -1c30 -1 55 22 67 50c6 16 15 36 28 63l46 95h249l6 -91c2 -31 4 -54 5 -71c1 -27 24 -46 51 -45h11c3 0 6 0 9 -1c27 -1 46 25 42 52c-4 20 -7 50 -15 113zM515 887c-37 0 -73 -34 -73 -77
c0 -36 26 -51 51 -51c42 0 74 39 74 76c0 25 -15 52 -52 52zM326 887c-37 0 -73 -34 -73 -77c0 -36 26 -51 51 -51c42 0 74 39 74 76c0 25 -15 52 -52 52z" />
    <glyph glyph-name="Aring" unicode="&#xc5;" horiz-adv-x="604" 
d="M518 168l-40 354c-4 45 -8 87 -11 129c-3 31 -32 50 -63 50c-8 0 -16 0 -23 1c-34 1 -68 -15 -83 -46c-50 -103 -151 -300 -201 -393c-38 -72 -80 -152 -118 -216c-12 -20 5 -42 27 -42c5 0 9 -1 13 -1c30 -1 55 22 67 50c6 16 15 36 28 62l46 95h249l6 -91
c2 -30 4 -53 5 -70c1 -27 24 -46 51 -46c3 0 7 1 11 1c3 0 6 -1 9 -1c27 -1 46 25 42 52c-4 20 -7 50 -15 112zM195 285l90 178c13 26 71 132 82 154c2 -13 7 -43 16 -128l19 -204c-36 -1 -53 -1 -83 -1c-23 0 -50 0 -124 1zM430 905c-56 0 -96 -52 -96 -100
c0 -29 16 -69 64 -69c57 0 99 56 99 103c0 38 -30 66 -67 66zM427 872c15 0 34 -9 34 -35c0 -40 -33 -66 -59 -66c-17 0 -32 12 -32 36c0 33 25 65 57 65z" />
    <glyph glyph-name="Ydieresis" unicode="&#x178;" horiz-adv-x="562" 
d="M296 887c37 0 52 -27 52 -52c0 -37 -32 -76 -74 -76c-25 0 -51 15 -51 51c0 43 36 77 73 77zM485 887c37 0 52 -27 52 -52c0 -37 -32 -76 -74 -76c-25 0 -51 15 -51 51c0 43 36 77 73 77zM567 592l-228 -334l-140 -205c-23 -27 -65 -51 -92 -49h-16h-9
c-25 0 -30 21 -7 45c10 13 65 73 76 87c33 41 58 85 77 127l-88 273c-3 9 -20 55 -23 65c-9 25 -16 42 -22 56c-9 22 5 49 29 48c7 -1 13 -1 20 -1s13 0 20 1c28 1 50 -24 56 -52c3 -15 8 -35 16 -61l73 -242l18 28c86 136 143 222 169 278c14 30 44 48 76 48h12h17
c19 0 34 -20 22 -35c-14 -17 -32 -42 -56 -77z" />
    <glyph glyph-name="divide" unicode="&#xf7;" horiz-adv-x="562" 
d="M586 291c3 22 -11 39 -33 39h-480c-22 0 -43 -17 -47 -39s11 -40 33 -40h480c22 0 43 18 47 40zM322 379c36 0 62 27 67 56c6 30 -13 56 -46 56c-35 0 -62 -27 -67 -57c-5 -31 14 -55 46 -55zM271 90c37 0 62 27 67 56c6 30 -13 56 -46 56c-34 0 -61 -27 -67 -57
c-5 -31 14 -55 46 -55z" />
    <glyph glyph-name="Egrave" unicode="&#xc8;" horiz-adv-x="500" 
d="M325 781c-45 34 -53 42 -62 67c-6 25 9 44 31 44c33 0 42 -20 50 -48c5 -19 21 -38 53 -61c16 -10 22 -26 8 -26c-23 0 -52 8 -80 24zM187 337l-36 -186c-16 -83 -7 -83 95 -83c30 0 91 1 136 9c9 2 17 3 24 5c18 5 33 -12 28 -30c-10 -31 -37 -54 -69 -53
c-44 0 -94 1 -151 1c-50 -1 -101 -1 -151 -1c-27 -1 -40 28 -32 53c9 30 21 80 36 167l28 154c27 149 38 229 40 274c2 32 26 58 57 57c46 -1 92 -1 138 -1c58 0 112 1 156 2c21 1 38 -18 33 -39c-5 -23 -27 -38 -50 -34c-13 2 -43 5 -92 5c-57 0 -121 -3 -133 -3l-43 -224
h47c30 1 52 1 69 3c24 3 48 -13 43 -36c-6 -29 -37 -43 -66 -40c-45 4 -107 0 -107 0z" />
    <glyph glyph-name="Idieresis" unicode="&#xcf;" horiz-adv-x="250" 
d="M140 887c37 0 52 -27 52 -52c0 -37 -32 -76 -74 -76c-25 0 -51 15 -51 51c0 43 36 77 73 77zM329 887c37 0 52 -27 52 -52c0 -37 -32 -76 -74 -76c-25 0 -51 15 -51 51c0 43 36 77 73 77zM57 169l69 363c11 55 16 93 19 118c3 29 22 56 50 55h11h11c26 1 43 -25 36 -50
c-8 -27 -18 -70 -30 -136l-64 -350c-10 -52 -15 -88 -18 -113c-3 -30 -27 -53 -57 -53h-18c-26 -1 -44 24 -37 49c8 26 15 59 28 117z" />
    <glyph glyph-name="Scaron" unicode="&#x160;" horiz-adv-x="521" 
d="M260 315l-57 34c-49 31 -101 66 -101 144c0 100 92 226 289 226c33 0 64 -4 93 -10c28 -6 40 -37 33 -64c-6 -22 -32 -31 -52 -19c-22 12 -53 22 -99 22c-125 0 -163 -87 -163 -131c0 -59 49 -87 88 -109l59 -34c58 -34 113 -66 113 -146c0 -102 -86 -170 -122 -192
c-60 -37 -133 -51 -203 -51c-30 0 -60 4 -88 11s-39 39 -30 67c8 24 36 31 58 20c5 -3 10 -5 17 -8c26 -9 58 -13 84 -13c99 0 180 54 180 141c0 51 -35 75 -99 112zM495 900c14 0 17 -17 7 -26c-31 -27 -58 -54 -60 -57c-8 -7 -14 -13 -18 -18c-18 -20 -42 -34 -69 -34
c-28 0 -53 18 -66 43c-7 16 -19 34 -38 57c-11 13 -4 33 14 33c26 0 53 -9 70 -30c12 -14 20 -27 34 -50c28 29 38 41 61 60c18 15 42 22 65 22z" />
    <glyph glyph-name="Icircumflex" unicode="&#xce;" horiz-adv-x="250" 
d="M57 169l69 363c11 55 16 93 19 118c3 29 22 56 50 55h11h11c26 1 43 -25 36 -50c-8 -27 -18 -70 -30 -136l-64 -350c-10 -52 -15 -88 -18 -113c-3 -30 -27 -53 -57 -53h-18c-26 -1 -44 24 -37 49c8 26 15 59 28 117zM99 758c-14 0 -17 17 -7 26c31 27 58 54 60 57
c8 7 14 13 18 18c18 20 42 34 69 34c28 0 53 -18 66 -43c7 -16 19 -34 38 -57c11 -13 4 -33 -14 -33c-26 0 -53 9 -70 30c-12 14 -20 27 -34 50c-28 -29 -38 -41 -61 -60c-18 -15 -42 -22 -65 -22z" />
    <glyph glyph-name="space" unicode=" " 
 />
    <glyph glyph-name="aacute" unicode="&#xe1;" horiz-adv-x="542" 
d="M481 543l-23 -8c-32 12 -62 23 -107 23c-83 0 -140 -38 -164 -56c-149 -110 -166 -296 -166 -344c0 -114 73 -167 146 -167c92 0 157 120 203 181c0 -12 -14 -86 -18 -127c-2 -24 19 -44 44 -43c24 1 47 18 47 42c0 32 5 85 22 181l18 99c17 93 28 144 36 177
c6 24 -14 50 -38 42zM419 479l-26 -139c-18 -97 -37 -155 -66 -197c-35 -51 -79 -68 -116 -68c-65 0 -90 51 -90 120c0 84 45 300 213 300c38 0 66 -10 85 -16zM285 602c-14 0 -8 16 7 26c33 23 49 42 54 61c7 28 17 48 50 48c22 0 37 -19 30 -44c-8 -25 -16 -33 -62 -67
c-27 -16 -57 -24 -79 -24z" />
    <glyph glyph-name="acircumflex" unicode="&#xe2;" horiz-adv-x="542" 
d="M481 543l-23 -8c-32 12 -62 23 -107 23c-83 0 -140 -38 -164 -56c-149 -110 -166 -296 -166 -344c0 -114 73 -167 146 -167c92 0 157 120 203 181c0 -12 -14 -86 -18 -127c-2 -24 19 -44 44 -43c24 1 47 18 47 42c0 32 5 85 22 181l18 99c17 93 28 144 36 177
c6 24 -14 50 -38 42zM419 479l-26 -139c-18 -97 -37 -155 -66 -197c-35 -51 -79 -68 -116 -68c-65 0 -90 51 -90 120c0 84 45 300 213 300c38 0 66 -10 85 -16zM224 601c-14 0 -17 17 -7 26c31 27 58 54 60 57c8 7 14 13 18 18c18 20 42 34 69 34c28 0 53 -18 66 -43
c7 -16 19 -34 38 -57c11 -13 4 -33 -14 -33c-26 0 -53 9 -70 30c-12 14 -20 27 -34 50c-28 -29 -38 -41 -61 -60c-18 -15 -42 -22 -65 -22z" />
    <glyph glyph-name="adieresis" unicode="&#xe4;" horiz-adv-x="542" 
d="M481 543l-23 -8c-32 12 -62 23 -107 23c-83 0 -140 -38 -164 -56c-149 -110 -166 -296 -166 -344c0 -114 73 -167 146 -167c92 0 157 120 203 181c0 -12 -14 -86 -18 -127c-2 -24 19 -44 44 -43c24 1 47 18 47 42c0 32 5 85 22 181l18 99c17 93 28 144 36 177
c6 24 -14 50 -38 42zM419 479l-26 -139c-18 -97 -37 -155 -66 -197c-35 -51 -79 -68 -116 -68c-65 0 -90 51 -90 120c0 84 45 300 213 300c38 0 66 -10 85 -16zM298 730c37 0 52 -27 52 -52c0 -37 -32 -76 -74 -76c-25 0 -51 15 -51 51c0 43 36 77 73 77zM487 730
c37 0 52 -27 52 -52c0 -37 -32 -76 -74 -76c-25 0 -51 15 -51 51c0 43 36 77 73 77z" />
    <glyph glyph-name="agrave" unicode="&#xe0;" horiz-adv-x="542" 
d="M481 543l-23 -8c-32 12 -62 23 -107 23c-83 0 -140 -38 -164 -56c-149 -110 -166 -296 -166 -344c0 -114 73 -167 146 -167c92 0 157 120 203 181c0 -12 -14 -86 -18 -127c-2 -24 19 -44 44 -43c24 1 47 18 47 42c0 32 5 85 22 181l18 99c17 93 28 144 36 177
c6 24 -14 50 -38 42zM419 479l-26 -139c-18 -97 -37 -155 -66 -197c-35 -51 -79 -68 -116 -68c-65 0 -90 51 -90 120c0 84 45 300 213 300c38 0 66 -10 85 -16zM314 626c-45 34 -53 42 -62 67c-6 25 9 44 31 44c33 0 42 -20 50 -48c5 -19 21 -38 53 -61c16 -10 22 -26 8 -26
c-23 0 -52 8 -80 24z" />
    <glyph glyph-name="aring" unicode="&#xe5;" horiz-adv-x="542" 
d="M481 543l-23 -8c-32 12 -62 23 -107 23c-83 0 -140 -38 -164 -56c-149 -110 -166 -296 -166 -344c0 -114 73 -167 146 -167c92 0 157 120 203 181c0 -12 -14 -86 -18 -127c-2 -24 19 -44 44 -43c24 1 47 18 47 42c0 32 5 85 22 181l18 99c17 93 28 144 36 177
c6 24 -14 50 -38 42zM419 479l-26 -139c-18 -97 -37 -155 -66 -197c-35 -51 -79 -68 -116 -68c-65 0 -90 51 -90 120c0 84 45 300 213 300c38 0 66 -10 85 -16zM306 651c0 47 39 99 96 99c37 0 67 -28 67 -66c0 -46 -42 -102 -100 -102c-47 0 -63 40 -63 69zM432 680
c0 26 -19 35 -35 35c-32 0 -57 -31 -57 -64c0 -24 15 -36 32 -36c26 0 60 26 60 65z" />
    <glyph glyph-name="atilde" unicode="&#xe3;" horiz-adv-x="542" 
d="M481 543l-23 -8c-32 12 -62 23 -107 23c-83 0 -140 -38 -164 -56c-149 -110 -166 -296 -166 -344c0 -114 73 -167 146 -167c92 0 157 120 203 181c0 -12 -14 -86 -18 -127c-2 -24 19 -44 44 -43c24 1 47 18 47 42c0 32 5 85 22 181l18 99c17 93 28 144 36 177
c6 24 -14 50 -38 42zM419 479l-26 -139c-18 -97 -37 -155 -66 -197c-35 -51 -79 -68 -116 -68c-65 0 -90 51 -90 120c0 84 45 300 213 300c38 0 66 -10 85 -16zM311 716l54 -19c12 -4 35 -14 53 -14c20 0 33 20 41 35c2 4 7 6 11 4c4 -1 6 -5 5 -9l-8 -45
c-6 -27 -14 -37 -47 -37c-15 0 -43 9 -60 15l-54 16c-14 4 -24 7 -34 7c-22 0 -33 -14 -43 -31c-2 -5 -7 -7 -12 -5c-4 2 -7 7 -5 11l8 32c11 39 26 51 49 51c10 0 22 -4 42 -11z" />
    <glyph glyph-name="eacute" unicode="&#xe9;" horiz-adv-x="479" 
d="M255 53c-153 -1 -119 166 -119 166c80 3 147 5 218 39c32 16 69 40 96 82c20 30 32 69 32 101c0 68 -48 120 -142 120c-65 0 -155 -28 -224 -113c-32 -40 -84 -128 -84 -239c2 -125 41 -217 200 -222c38 0 69 5 94 10c25 6 42 29 49 53c4 15 -9 29 -22 23
c-24 -10 -56 -20 -98 -20zM211 445c43 50 86 57 107 57c35 0 67 -21 67 -66c0 -38 -20 -73 -48 -100c-56 -53 -126 -93 -198 -94c7 54 27 152 72 203zM304 602c-14 0 -8 16 7 26c33 23 49 42 54 61c7 28 17 48 50 48c22 0 37 -19 30 -44c-8 -25 -16 -33 -62 -67
c-27 -16 -57 -24 -79 -24z" />
    <glyph glyph-name="ecircumflex" unicode="&#xea;" horiz-adv-x="479" 
d="M255 53c-153 -1 -119 166 -119 166c80 3 147 5 218 39c32 16 69 40 96 82c20 30 32 69 32 101c0 68 -48 120 -142 120c-65 0 -155 -28 -224 -113c-32 -40 -84 -128 -84 -239c2 -125 41 -217 200 -222c38 0 69 5 94 10c25 6 42 29 49 53c4 15 -9 29 -22 23
c-24 -10 -56 -20 -98 -20zM211 445c43 50 86 57 107 57c35 0 67 -21 67 -66c0 -38 -20 -73 -48 -100c-56 -53 -126 -93 -198 -94c7 54 27 152 72 203zM203 601c-14 0 -17 17 -7 26c31 27 58 54 60 57c8 7 14 13 18 18c18 20 42 34 69 34c28 0 53 -18 66 -43
c7 -16 19 -34 38 -57c11 -13 4 -33 -14 -33c-26 0 -53 9 -70 30c-12 14 -20 27 -34 50c-28 -29 -38 -41 -61 -60c-18 -15 -42 -22 -65 -22z" />
    <glyph glyph-name="edieresis" unicode="&#xeb;" horiz-adv-x="479" 
d="M255 53c-153 -1 -119 166 -119 166c80 3 147 5 218 39c32 16 69 40 96 82c20 30 32 69 32 101c0 68 -48 120 -142 120c-65 0 -155 -28 -224 -113c-32 -40 -84 -128 -84 -239c2 -125 41 -217 200 -222c38 0 69 5 94 10c25 6 42 29 49 53c4 15 -9 29 -22 23
c-24 -10 -56 -20 -98 -20zM211 445c43 50 86 57 107 57c35 0 67 -21 67 -66c0 -38 -20 -73 -48 -100c-56 -53 -126 -93 -198 -94c7 54 27 152 72 203zM242 730c37 0 52 -27 52 -52c0 -37 -32 -76 -74 -76c-25 0 -51 15 -51 51c0 43 36 77 73 77zM431 730c37 0 52 -27 52 -52
c0 -37 -32 -76 -74 -76c-25 0 -51 15 -51 51c0 43 36 77 73 77z" />
    <glyph glyph-name="egrave" unicode="&#xe8;" horiz-adv-x="479" 
d="M255 53c-153 -1 -119 166 -119 166c80 3 147 5 218 39c32 16 69 40 96 82c20 30 32 69 32 101c0 68 -48 120 -142 120c-65 0 -155 -28 -224 -113c-32 -40 -84 -128 -84 -239c2 -125 41 -217 200 -222c38 0 69 5 94 10c25 6 42 29 49 53c4 15 -9 29 -22 23
c-24 -10 -56 -20 -98 -20zM211 445c43 50 86 57 107 57c35 0 67 -21 67 -66c0 -38 -20 -73 -48 -100c-56 -53 -126 -93 -198 -94c7 54 27 152 72 203zM293 626c-45 34 -53 42 -62 67c-6 25 9 44 31 44c33 0 42 -20 50 -48c5 -19 21 -38 53 -61c16 -10 22 -26 8 -26
c-23 0 -52 8 -80 24z" />
    <glyph glyph-name="iacute" unicode="&#xed;" 
d="M155 246l29 163c8 45 14 72 18 92c5 24 -14 48 -38 42c-11 -2 -23 -4 -37 -6c-24 -2 -31 -30 -30 -53c1 -36 -8 -102 -32 -235l-18 -98c-8 -44 -15 -74 -20 -96c-7 -25 10 -51 35 -50h8c28 0 54 19 56 47c3 35 11 94 29 194zM123 602c-14 0 -8 16 7 26c33 23 49 42 54 61
c7 28 17 48 50 48c22 0 37 -19 30 -44c-8 -25 -16 -33 -62 -67c-27 -16 -57 -24 -79 -24z" />
    <glyph glyph-name="icircumflex" unicode="&#xee;" 
d="M155 246l29 163c8 45 14 72 18 92c5 24 -14 48 -38 42c-11 -2 -23 -4 -37 -6c-24 -2 -31 -30 -30 -53c1 -36 -8 -102 -32 -235l-18 -98c-8 -44 -15 -74 -20 -96c-7 -25 10 -51 35 -50h8c28 0 54 19 56 47c3 35 11 94 29 194zM52 601c-14 0 -17 17 -7 26
c31 27 58 54 60 57c8 7 14 13 18 18c18 20 42 34 69 34c28 0 53 -18 66 -43c7 -16 19 -34 38 -57c11 -13 4 -33 -14 -33c-26 0 -53 9 -70 30c-12 14 -20 27 -34 50c-28 -29 -38 -41 -61 -60c-18 -15 -42 -22 -65 -22z" />
    <glyph glyph-name="idieresis" unicode="&#xef;" 
d="M155 246l29 163c8 45 14 72 18 92c5 24 -14 48 -38 42c-11 -2 -23 -4 -37 -6c-24 -2 -31 -30 -30 -53c1 -36 -8 -102 -32 -235l-18 -98c-8 -44 -15 -74 -20 -96c-7 -25 10 -51 35 -50h8c28 0 54 19 56 47c3 35 11 94 29 194zM91 730c37 0 52 -27 52 -52
c0 -37 -32 -76 -74 -76c-25 0 -51 15 -51 51c0 43 36 77 73 77zM280 730c37 0 52 -27 52 -52c0 -37 -32 -76 -74 -76c-25 0 -51 15 -51 51c0 43 36 77 73 77z" />
    <glyph glyph-name="igrave" unicode="&#xec;" 
d="M155 246l29 163c8 45 14 72 18 92c5 24 -14 48 -38 42c-11 -2 -23 -4 -37 -6c-24 -2 -31 -30 -30 -53c1 -36 -8 -102 -32 -235l-18 -98c-8 -44 -15 -74 -20 -96c-7 -25 10 -51 35 -50h8c28 0 54 19 56 47c3 35 11 94 29 194zM142 626c-45 34 -53 42 -62 67
c-6 25 9 44 31 44c33 0 42 -20 50 -48c5 -19 21 -38 53 -61c16 -10 22 -26 8 -26c-23 0 -52 8 -80 24z" />
    <glyph glyph-name="ntilde" unicode="&#xf1;" horiz-adv-x="562" 
d="M83 357l-32 -188c-7 -47 -14 -83 -25 -120c-7 -23 14 -44 39 -43h8c28 0 54 19 56 47c1 19 3 42 8 73l18 117c9 55 20 122 57 170c29 38 82 69 129 69c96 0 89 -53 65 -188l-12 -67c-17 -98 -28 -147 -37 -178c-6 -23 13 -45 37 -44h9c29 0 54 21 56 50
c3 51 17 132 25 175l25 140c9 48 12 69 12 87c0 82 -74 104 -129 104c-51 0 -100 -19 -140 -50c-29 -23 -54 -93 -72 -120c6 34 19 99 23 119c5 24 -17 44 -41 39c-11 -2 -22 -4 -34 -5c-23 -2 -31 -28 -30 -51v-6c0 -38 -8 -89 -15 -130zM306 716l54 -19
c12 -4 35 -14 53 -14c20 0 33 20 41 35c2 4 7 6 11 4c4 -1 6 -5 5 -9l-8 -45c-6 -27 -14 -37 -47 -37c-15 0 -43 9 -60 15l-54 16c-14 4 -24 7 -34 7c-22 0 -33 -14 -43 -31c-2 -5 -7 -7 -12 -5c-4 2 -7 7 -5 11l8 32c11 39 26 51 49 51c10 0 22 -4 42 -11z" />
    <glyph glyph-name="oacute" unicode="&#xf3;" horiz-adv-x="562" 
d="M487 508c-33 34 -84 51 -147 51c-212 0 -314 -204 -314 -365c0 -95 35 -135 57 -155c38 -35 89 -50 141 -50c216 0 312 225 312 381c0 30 -2 92 -49 138zM401 468c32 -30 33 -71 33 -94c0 -48 -24 -322 -201 -322c-57 0 -107 35 -107 130c0 79 39 313 199 313
c40 0 64 -16 76 -27zM310 602c-14 0 -8 16 7 26c33 23 49 42 54 61c7 28 17 48 50 48c22 0 37 -19 30 -44c-8 -25 -16 -33 -62 -67c-27 -16 -57 -24 -79 -24z" />
    <glyph glyph-name="ocircumflex" unicode="&#xf4;" horiz-adv-x="562" 
d="M487 508c-33 34 -84 51 -147 51c-212 0 -314 -204 -314 -365c0 -95 35 -135 57 -155c38 -35 89 -50 141 -50c216 0 312 225 312 381c0 30 -2 92 -49 138zM401 468c32 -30 33 -71 33 -94c0 -48 -24 -322 -201 -322c-57 0 -107 35 -107 130c0 79 39 313 199 313
c40 0 64 -16 76 -27zM219 601c-14 0 -17 17 -7 26c31 27 58 54 60 57c8 7 14 13 18 18c18 20 42 34 69 34c28 0 53 -18 66 -43c7 -16 19 -34 38 -57c11 -13 4 -33 -14 -33c-26 0 -53 9 -70 30c-12 14 -20 27 -34 50c-28 -29 -38 -41 -61 -60c-18 -15 -42 -22 -65 -22z" />
    <glyph glyph-name="odieresis" unicode="&#xf6;" horiz-adv-x="562" 
d="M487 508c-33 34 -84 51 -147 51c-212 0 -314 -204 -314 -365c0 -95 35 -135 57 -155c38 -35 89 -50 141 -50c216 0 312 225 312 381c0 30 -2 92 -49 138zM401 468c32 -30 33 -71 33 -94c0 -48 -24 -322 -201 -322c-57 0 -107 35 -107 130c0 79 39 313 199 313
c40 0 64 -16 76 -27zM285 730c37 0 52 -27 52 -52c0 -37 -32 -76 -74 -76c-25 0 -51 15 -51 51c0 43 36 77 73 77zM474 730c37 0 52 -27 52 -52c0 -37 -32 -76 -74 -76c-25 0 -51 15 -51 51c0 43 36 77 73 77z" />
    <glyph glyph-name="ograve" unicode="&#xf2;" horiz-adv-x="562" 
d="M487 508c-33 34 -84 51 -147 51c-212 0 -314 -204 -314 -365c0 -95 35 -135 57 -155c38 -35 89 -50 141 -50c216 0 312 225 312 381c0 30 -2 92 -49 138zM401 468c32 -30 33 -71 33 -94c0 -48 -24 -322 -201 -322c-57 0 -107 35 -107 130c0 79 39 313 199 313
c40 0 64 -16 76 -27zM329 626c-45 34 -53 42 -62 67c-6 25 9 44 31 44c33 0 42 -20 50 -48c5 -19 21 -38 53 -61c16 -10 22 -26 8 -26c-23 0 -52 8 -80 24z" />
    <glyph glyph-name="otilde" unicode="&#xf5;" horiz-adv-x="562" 
d="M487 508c-33 34 -84 51 -147 51c-212 0 -314 -204 -314 -365c0 -95 35 -135 57 -155c38 -35 89 -50 141 -50c216 0 312 225 312 381c0 30 -2 92 -49 138zM401 468c32 -30 33 -71 33 -94c0 -48 -24 -322 -201 -322c-57 0 -107 35 -107 130c0 79 39 313 199 313
c40 0 64 -16 76 -27zM306 716l54 -19c12 -4 35 -14 53 -14c20 0 33 20 41 35c2 4 7 6 11 4c4 -1 6 -5 5 -9l-8 -45c-6 -27 -14 -37 -47 -37c-15 0 -43 9 -60 15l-54 16c-14 4 -24 7 -34 7c-22 0 -33 -14 -43 -31c-2 -5 -7 -7 -12 -5c-4 2 -7 7 -5 11l8 32c11 39 26 51 49 51
c10 0 22 -4 42 -11z" />
    <glyph glyph-name="scaron" unicode="&#x161;" horiz-adv-x="375" 
d="M122 255l62 -36c31 -18 59 -37 59 -72c0 -41 -42 -85 -121 -85c-41 0 -67 7 -86 16c-20 10 -45 4 -52 -18c-9 -28 5 -59 34 -65c21 -5 42 -7 71 -7c42 0 108 3 168 46c57 42 77 100 77 145c0 63 -43 90 -71 107l-51 31c-38 21 -75 42 -75 86c0 40 42 89 118 89
c24 0 43 -5 58 -12c20 -10 46 -5 56 16c10 23 -1 51 -26 56c-19 5 -38 7 -64 7c-38 0 -108 -7 -159 -45c-46 -35 -79 -85 -79 -142c0 -68 53 -100 81 -117zM381 737c14 0 17 -17 7 -26c-31 -27 -58 -54 -60 -57c-8 -7 -14 -13 -18 -18c-18 -20 -42 -34 -69 -34
c-28 0 -53 18 -66 43c-7 16 -19 34 -38 57c-11 13 -4 33 14 33c26 0 53 -9 70 -30c12 -14 20 -27 34 -50c28 29 38 41 61 60c18 15 42 22 65 22z" />
    <glyph glyph-name="uacute" unicode="&#xfa;" horiz-adv-x="542" 
d="M147 239l29 147c10 47 14 65 26 112c7 26 -15 50 -41 44c-8 -1 -16 -3 -24 -4c-27 -4 -38 -34 -40 -61c-1 -12 -3 -28 -7 -48l-50 -266c-6 -37 -8 -51 -8 -65c0 -73 58 -108 124 -108c14 0 66 3 112 35c44 31 73 112 89 136c-4 -22 -13 -84 -14 -108
c-2 -28 21 -52 50 -52c26 0 48 21 47 47v8c0 38 9 105 34 244c17 98 30 155 45 208c7 22 -15 42 -38 38c-7 -1 -15 -3 -23 -4c-28 -5 -45 -32 -46 -61c-1 -25 -6 -63 -17 -123c-15 -79 -37 -166 -62 -209c-43 -72 -107 -77 -128 -77c-55 0 -73 33 -73 71c0 22 4 45 15 96z
M290 602c-14 0 -8 16 7 26c33 23 49 42 54 61c7 28 17 48 50 48c22 0 37 -19 30 -44c-8 -25 -16 -33 -62 -67c-27 -16 -57 -24 -79 -24z" />
    <glyph glyph-name="ucircumflex" unicode="&#xfb;" horiz-adv-x="542" 
d="M147 239l29 147c10 47 14 65 26 112c7 26 -15 50 -41 44c-8 -1 -16 -3 -24 -4c-27 -4 -38 -34 -40 -61c-1 -12 -3 -28 -7 -48l-50 -266c-6 -37 -8 -51 -8 -65c0 -73 58 -108 124 -108c14 0 66 3 112 35c44 31 73 112 89 136c-4 -22 -13 -84 -14 -108
c-2 -28 21 -52 50 -52c26 0 48 21 47 47v8c0 38 9 105 34 244c17 98 30 155 45 208c7 22 -15 42 -38 38c-7 -1 -15 -3 -23 -4c-28 -5 -45 -32 -46 -61c-1 -25 -6 -63 -17 -123c-15 -79 -37 -166 -62 -209c-43 -72 -107 -77 -128 -77c-55 0 -73 33 -73 71c0 22 4 45 15 96z
M209 601c-14 0 -17 17 -7 26c31 27 58 54 60 57c8 7 14 13 18 18c18 20 42 34 69 34c28 0 53 -18 66 -43c7 -16 19 -34 38 -57c11 -13 4 -33 -14 -33c-26 0 -53 9 -70 30c-12 14 -20 27 -34 50c-28 -29 -38 -41 -61 -60c-18 -15 -42 -22 -65 -22z" />
    <glyph glyph-name="udieresis" unicode="&#xfc;" horiz-adv-x="542" 
d="M147 239l29 147c10 47 14 65 26 112c7 26 -15 50 -41 44c-8 -1 -16 -3 -24 -4c-27 -4 -38 -34 -40 -61c-1 -12 -3 -28 -7 -48l-50 -266c-6 -37 -8 -51 -8 -65c0 -73 58 -108 124 -108c14 0 66 3 112 35c44 31 73 112 89 136c-4 -22 -13 -84 -14 -108
c-2 -28 21 -52 50 -52c26 0 48 21 47 47v8c0 38 9 105 34 244c17 98 30 155 45 208c7 22 -15 42 -38 38c-7 -1 -15 -3 -23 -4c-28 -5 -45 -32 -46 -61c-1 -25 -6 -63 -17 -123c-15 -79 -37 -166 -62 -209c-43 -72 -107 -77 -128 -77c-55 0 -73 33 -73 71c0 22 4 45 15 96z
M257 730c37 0 52 -27 52 -52c0 -37 -32 -76 -74 -76c-25 0 -51 15 -51 51c0 43 36 77 73 77zM446 730c37 0 52 -27 52 -52c0 -37 -32 -76 -74 -76c-25 0 -51 15 -51 51c0 43 36 77 73 77z" />
    <glyph glyph-name="ugrave" unicode="&#xf9;" horiz-adv-x="542" 
d="M147 239l29 147c10 47 14 65 26 112c7 26 -15 50 -41 44c-8 -1 -16 -3 -24 -4c-27 -4 -38 -34 -40 -61c-1 -12 -3 -28 -7 -48l-50 -266c-6 -37 -8 -51 -8 -65c0 -73 58 -108 124 -108c14 0 66 3 112 35c44 31 73 112 89 136c-4 -22 -13 -84 -14 -108
c-2 -28 21 -52 50 -52c26 0 48 21 47 47v8c0 38 9 105 34 244c17 98 30 155 45 208c7 22 -15 42 -38 38c-7 -1 -15 -3 -23 -4c-28 -5 -45 -32 -46 -61c-1 -25 -6 -63 -17 -123c-15 -79 -37 -166 -62 -209c-43 -72 -107 -77 -128 -77c-55 0 -73 33 -73 71c0 22 4 45 15 96z
M319 626c-45 34 -53 42 -62 67c-6 25 9 44 31 44c33 0 42 -20 50 -48c5 -19 21 -38 53 -61c16 -10 22 -26 8 -26c-23 0 -52 8 -80 24z" />
    <glyph glyph-name="yacute" unicode="&#xfd;" horiz-adv-x="479" 
d="M192 -4l-26 -48c-20 -36 -61 -107 -138 -111c-28 -2 -56 -15 -64 -42c-8 -26 13 -52 40 -49c143 17 199 126 256 237l163 358c17 40 43 100 68 145c3 6 5 10 8 15c11 19 -2 43 -24 43h-9c-33 2 -59 -23 -69 -55c-15 -49 -49 -139 -123 -314l-49 -114l-45 330
c-6 44 -9 75 -10 97c-3 30 -26 56 -57 55h-10h-11c-24 1 -43 -22 -35 -46c8 -28 19 -73 32 -149c23 -130 31 -183 41 -299c3 -30 32 -48 62 -53zM257 602c-14 0 -8 16 7 26c33 23 49 42 54 61c7 28 17 48 50 48c22 0 37 -19 30 -44c-8 -25 -16 -33 -62 -67
c-27 -16 -57 -24 -79 -24z" />
    <glyph glyph-name="ydieresis" unicode="&#xff;" horiz-adv-x="479" 
d="M192 -4l-26 -48c-20 -36 -61 -107 -138 -111c-28 -2 -56 -15 -64 -42c-8 -26 13 -52 40 -49c143 17 199 126 256 237l163 358c17 40 43 100 68 145c3 6 5 10 8 15c11 19 -2 43 -24 43h-9c-33 2 -59 -23 -69 -55c-15 -49 -49 -139 -123 -314l-49 -114l-45 330
c-6 44 -9 75 -10 97c-3 30 -26 56 -57 55h-10h-11c-24 1 -43 -22 -35 -46c8 -28 19 -73 32 -149c23 -130 31 -183 41 -299c3 -30 32 -48 62 -53zM215 730c37 0 52 -27 52 -52c0 -37 -32 -76 -74 -76c-25 0 -51 15 -51 51c0 43 36 77 73 77zM404 730c37 0 52 -27 52 -52
c0 -37 -32 -76 -74 -76c-25 0 -51 15 -51 51c0 43 36 77 73 77z" />
    <glyph glyph-name="zcaron" unicode="&#x17e;" horiz-adv-x="437" 
d="M199 320l-144 -196c-9 -11 -46 -60 -54 -70c-3 -4 -6 -8 -10 -13c-14 -17 0 -43 23 -42c56 3 101 4 167 4c60 0 104 -2 136 -4c34 -1 65 21 77 54c1 2 2 4 2 7c7 17 -14 29 -31 22c-14 -6 -30 -10 -52 -12c-26 -3 -77 -5 -110 -5c-24 0 -46 1 -78 2l153 217
c42 56 108 145 149 203c7 8 12 15 18 23c13 17 -3 40 -24 39c-39 -4 -75 -5 -149 -5c-78 0 -123 2 -152 4c-30 2 -56 -20 -62 -50c-3 -21 17 -35 37 -31c16 4 37 6 67 7c58 3 102 3 144 1c-28 -43 -70 -105 -107 -155zM413 737c14 0 17 -17 7 -26c-31 -27 -58 -54 -60 -57
c-8 -7 -14 -13 -18 -18c-18 -20 -42 -34 -69 -34c-28 0 -53 18 -66 43c-7 16 -19 34 -38 57c-11 13 -4 33 14 33c26 0 53 -9 70 -30c12 -14 20 -27 34 -50c28 29 38 41 61 60c18 15 42 22 65 22z" />
    <glyph glyph-name="lozenge" unicode="&#x25ca;" horiz-adv-x="900" 
d="M389 680c3 4 0 10 -5 9c-8 0 -15 -4 -17 -11c-1 -6 -4 -13 -8 -24l-28 -69c-4 46 -3 92 -11 91c-7 0 -14 -4 -17 -11c-2 -4 -4 -10 -7 -16l-14 -33c-4 -10 -8 -20 -13 -30v21l-1 54c0 7 1 13 1 17c0 6 -5 11 -12 11h-2c-6 1 -11 -6 -10 -12s2 -12 2 -26l3 -43
c1 -7 0 -19 0 -28c0 -7 5 -13 12 -13h2c8 0 15 4 18 11c2 7 5 14 10 26l15 40c2 -23 3 -45 3 -64c0 -7 6 -13 13 -13h2c8 0 15 5 18 12c1 2 1 3 2 4l36 81c3 7 5 11 8 16zM518 680c2 4 -1 10 -6 9c-7 0 -14 -4 -16 -11c-2 -6 -4 -13 -8 -24l-29 -69c-3 46 -2 92 -10 91
c-7 0 -14 -4 -17 -11c-2 -4 -4 -10 -7 -16l-14 -33c-4 -10 -9 -20 -13 -30v21l-1 54c0 7 0 13 1 17c0 6 -5 11 -12 11h-2c-7 1 -11 -6 -10 -12s1 -12 2 -26l3 -43v-28c0 -7 5 -13 12 -13h2c7 0 15 4 18 11c2 7 5 14 10 26l15 40c1 -23 2 -45 3 -64c0 -7 6 -13 13 -13h2
c8 0 15 5 18 12c0 2 1 3 2 4l36 81c3 7 5 11 8 16zM647 680c2 4 -1 10 -6 9c-7 0 -15 -4 -16 -11c-2 -6 -4 -13 -8 -24l-29 -69c-3 46 -2 92 -11 91c-7 0 -14 -4 -16 -11c-2 -4 -5 -10 -7 -16l-14 -33c-5 -10 -9 -20 -13 -30v21l-1 54v17c1 6 -5 11 -12 11h-2
c-6 1 -10 -6 -10 -12c2 -6 2 -12 3 -26l3 -43c0 -7 0 -19 -1 -28c0 -7 6 -13 13 -13h1c8 0 16 4 18 11c3 7 5 14 10 26l16 40c1 -23 2 -45 3 -64c0 -7 6 -13 13 -13h2c8 0 15 5 17 12c1 2 2 3 2 4l37 81c3 7 5 11 8 16zM116 422h-17c2 9 3 15 5 23c2 5 -4 9 -9 8
c-7 -2 -13 -8 -14 -16c0 -5 -1 -9 -2 -15h-2c-4 0 -8 -3 -9 -8c0 -4 2 -7 6 -7h2l-15 -76c-2 -14 -3 -21 3 -29c3 -5 12 -9 25 -9h5c6 1 10 6 11 12c1 3 -2 7 -5 6c-2 0 -4 -1 -6 -1c-8 0 -13 4 -13 13c0 6 1 16 4 28c3 15 8 42 11 56c3 0 11 0 16 -1c5 0 9 3 11 8
c0 4 -3 8 -7 8zM140 401l-12 -63c-3 -17 -5 -26 -7 -31c-1 -6 3 -11 8 -11c8 0 13 5 15 13c2 15 7 43 8 47c6 22 12 32 17 36c7 8 16 12 25 12c19 0 18 -13 16 -27l-9 -51c-2 -9 -3 -15 -4 -19c-1 -5 4 -11 9 -11c7 0 13 5 13 12c1 4 2 10 3 17l8 50c2 12 3 18 3 23
c0 17 -14 24 -28 24c-7 0 -15 -1 -25 -7c-11 -7 -18 -26 -22 -32l7 41c2 11 3 17 5 23c1 6 -5 10 -10 9c-3 0 -5 0 -8 -1c-5 0 -7 -6 -6 -11c0 -7 -2 -19 -6 -43zM300 307c-34 0 -26 38 -26 38c18 1 33 1 49 9c7 3 15 9 21 18c5 7 8 16 8 23c0 15 -11 27 -32 27
c-15 0 -35 -6 -51 -25c-7 -9 -19 -29 -19 -54c0 -29 9 -49 45 -50c9 0 16 1 21 2c6 1 10 6 11 12c1 3 -2 6 -4 5c-6 -2 -13 -5 -23 -5zM290 396c10 11 20 13 25 13c8 0 15 -5 15 -15c0 -9 -5 -17 -11 -23c-13 -12 -29 -21 -45 -21c2 12 6 34 16 46zM373 382l-8 -43
c-3 -14 -5 -21 -6 -27c-2 -7 0 -15 7 -17c6 -2 13 -3 22 -3c41 0 67 28 77 66c2 8 4 16 4 24c0 27 -16 39 -33 39c-21 0 -36 -28 -42 -36l6 36c3 15 4 22 6 28c1 5 -5 9 -11 8c-2 -1 -5 -1 -8 -2c-5 0 -8 -6 -7 -11v-5c0 -13 -3 -33 -7 -57zM399 384c7 11 16 18 27 18
c15 0 20 -13 20 -27c0 -13 -5 -69 -51 -69c-5 0 -9 1 -14 2c3 23 7 58 18 76zM532 307c-34 0 -27 38 -27 38c18 1 33 1 49 9c8 3 16 9 22 18c5 7 7 16 7 23c0 15 -11 27 -32 27c-14 0 -35 -6 -50 -25c-8 -9 -19 -29 -19 -54c0 -29 9 -49 45 -50c8 0 15 1 21 2s10 6 11 12
c1 3 -2 6 -5 5c-5 -2 -12 -5 -22 -5zM522 396c10 11 20 13 24 13c8 0 15 -5 15 -15c0 -9 -4 -17 -10 -23c-13 -12 -29 -21 -45 -21c1 12 6 34 16 46zM603 376l-8 -42c-1 -11 -3 -19 -5 -27c-2 -6 3 -10 8 -10h2c7 0 12 4 13 10c0 5 1 10 2 17l4 26c2 13 4 28 13 39
c6 8 18 15 29 15c21 0 20 -12 14 -42l-2 -15c-4 -22 -7 -33 -9 -40c-1 -6 3 -11 9 -10h2c6 0 12 4 12 11c1 11 4 30 6 39l6 32c2 11 2 16 2 20c0 18 -16 23 -29 23c-11 0 -22 -4 -31 -11c-7 -5 -13 -21 -17 -27c2 7 5 22 6 27s-4 10 -10 8c-2 0 -5 0 -7 -1
c-6 0 -7 -6 -7 -11v-2c0 -8 -2 -20 -3 -29zM815 350l12 68c3 15 4 23 6 29c1 6 -5 10 -11 9c-1 -1 -3 -1 -4 -1c-6 -1 -9 -7 -9 -13c1 -5 0 -12 -3 -24c-5 2 -10 3 -17 3c-19 0 -38 -10 -51 -26c-21 -25 -22 -57 -22 -63c0 -26 15 -39 33 -39c21 0 34 28 43 40
c-1 -7 -3 -22 -4 -25c-1 -7 5 -12 11 -12s10 6 10 11c0 13 3 29 6 43zM738 339c0 14 10 68 49 68c7 0 11 -1 17 -3c-9 -44 -12 -58 -18 -71c-8 -16 -20 -21 -28 -21c-13 0 -20 12 -20 27zM320 52c-7 0 -17 -7 -17 -18c0 -8 7 -11 12 -11c9 0 16 8 16 17c0 7 -4 12 -11 12z
M372 111l-8 -43c-3 -13 -4 -21 -6 -27c-2 -7 0 -15 7 -17c6 -2 13 -3 22 -3c41 0 68 28 78 66c2 8 3 16 3 24c0 28 -16 39 -33 39c-21 0 -35 -28 -41 -36l6 36c3 14 4 22 5 28c1 5 -5 9 -10 8c-3 -1 -6 -1 -8 -2c-6 0 -8 -6 -8 -11c0 -2 1 -3 1 -5c0 -13 -4 -33 -8 -57z
M399 114c6 10 16 17 27 17c15 0 20 -13 20 -27c0 -13 -5 -69 -51 -69c-6 0 -9 1 -14 2c2 23 6 58 18 77zM532 37c-35 -1 -27 37 -27 37c18 1 33 1 49 9c7 3 16 9 21 18c5 7 8 16 8 23c0 15 -11 27 -32 27c-15 0 -35 -6 -51 -25c-7 -9 -19 -29 -19 -54c1 -28 9 -49 45 -50
c9 0 16 1 21 2c6 1 10 6 12 12c1 3 -2 6 -5 5c-6 -2 -13 -4 -22 -4zM522 125c9 11 19 13 24 13c8 0 15 -5 15 -15c0 -9 -5 -16 -11 -23c-13 -11 -28 -21 -45 -21c2 12 6 35 17 46z" />
    <glyph glyph-name="infinity" unicode="&#x221e;" horiz-adv-x="819" 
d="M300 340c-62 -51 -90 -71 -124 -71h-6c-36 3 -61 25 -61 57c0 4 0 8 1 12l1 3c7 42 41 66 83 70h4c33 0 56 -21 102 -71zM404 342c107 80 147 122 206 122c60 0 98 -39 98 -98c0 -87 -66 -151 -141 -151c-47 0 -78 30 -127 84c-10 11 -36 43 -36 43zM560 152
c119 0 221 95 221 227c0 90 -60 148 -155 148c-76 1 -125 -40 -231 -118c-12 -8 -26 -16 -36 -27c-56 62 -89 92 -144 92h-10c-84 -4 -148 -48 -163 -131l-1 -5c-2 -10 -3 -20 -3 -29c0 -67 46 -102 119 -106h10c56 0 99 34 178 95c91 -96 133 -146 215 -146z" />
    <glyph glyph-name="Euro" unicode="&#x20ac;" horiz-adv-x="562" 
d="M587 711c27 -5 40 -34 30 -59c-10 -23 -38 -32 -60 -20c-20 10 -49 17 -93 17c-136 0 -221 -87 -264 -196h75c12 0 23 0 35 1c18 2 34 -13 30 -31c-4 -20 -23 -34 -44 -33h-16h-99c-7 -29 -11 -58 -12 -87h70c11 0 23 0 35 2c18 1 33 -14 30 -32c-4 -20 -23 -34 -44 -33
h-17l-75 1c10 -109 73 -186 207 -186c34 0 63 5 100 18c6 3 12 5 17 8c15 7 33 -6 27 -21c-14 -35 -42 -63 -79 -68c-26 -3 -58 -6 -95 -6c-104 0 -196 28 -248 109c-23 35 -37 84 -41 145h-43h-7c-17 0 -32 15 -29 32c4 21 23 35 44 34c10 -1 17 -1 35 -2c2 28 6 57 12 86
h-66h-7c-18 0 -32 15 -29 32c3 21 22 34 43 33c10 0 23 -1 41 -1h36c55 145 173 268 408 268c15 0 51 -1 93 -11z" />
    <glyph glyph-name="lessequal" unicode="&#x2264;" horiz-adv-x="785" 
d="M717 543c24 5 43 -19 38 -43c-4 -20 -9 -47 -18 -92l-29 -163c-18 -100 -26 -158 -28 -194c-2 -28 -29 -47 -57 -47h-7c-25 -1 -44 23 -37 47c6 21 12 50 21 99l25 134c21 116 27 174 24 205c-2 22 9 45 31 48c14 1 26 3 37 6zM776 742c16 -12 16 -37 16 -37
c0 -32 -24 -83 -68 -83c-24 0 -49 16 -49 52c0 7 1 15 4 24c5 23 -43 35 -69 31c-72 -11 -97 -92 -112 -170h33h43c15 1 25 -15 22 -31c-4 -19 -21 -31 -41 -31h-36h-33l-54 -323c-6 -33 -12 -65 -18 -98c-16 -91 -58 -332 -260 -339c-22 0 -33 24 -25 45c7 21 31 30 53 32
c42 3 65 29 75 41c37 46 56 160 80 293l57 349c-62 2 -129 2 -191 0l-49 -288c-5 -32 -11 -65 -17 -98c-17 -89 -56 -304 -258 -310c-22 -1 -33 24 -25 44c8 22 34 30 57 32c27 3 52 16 71 41c38 48 54 136 77 265l52 314h-41h-6c-18 0 -28 20 -24 37c4 18 24 26 42 25h42
c17 65 33 124 93 168c45 33 90 42 130 44c23 1 39 -21 31 -42c-9 -22 -34 -32 -57 -32c-58 0 -88 -61 -107 -138c62 0 130 -4 194 0c18 105 47 159 98 204c77 69 250 6 270 -21z" />
    <glyph glyph-name="greaterequal" unicode="&#x2265;" horiz-adv-x="808" 
d="M506 763c77 69 247 6 267 -21c16 -11 17 -37 17 -37c-9 -40 -19 -95 -35 -186l-47 -288c-8 -51 -23 -110 -14 -133c0 0 8 -34 40 -37c25 0 34 4 54 11c15 5 24 -14 19 -29c-9 -24 -32 -41 -57 -44c-16 -2 -32 -3 -50 -3c-95 0 -104 68 -100 120c1 34 10 76 11 86
c9 55 3 29 43 260c8 46 17 99 22 140c5 39 6 74 8 96c1 25 -48 35 -74 31c-72 -11 -97 -92 -112 -170h33h43c15 1 25 -15 22 -31c-4 -19 -21 -31 -41 -31h-36h-33l-54 -323c-6 -33 -12 -65 -18 -98c-16 -91 -58 -332 -261 -339c-21 0 -32 24 -24 45c7 21 31 30 53 32
c42 3 65 29 75 41c37 46 56 160 80 293l57 349c-62 2 -129 2 -191 0l-49 -288c-5 -32 -11 -65 -17 -98c-17 -89 -56 -304 -258 -310c-22 -1 -33 24 -25 44c8 22 34 30 57 32c27 3 52 16 71 41c38 48 54 136 77 265l52 314h-41h-6c-18 0 -27 20 -24 37c4 18 24 26 42 25h42
c17 65 33 124 93 168c45 33 90 42 130 44c23 1 39 -21 31 -42c-9 -22 -33 -32 -57 -32c-58 0 -88 -61 -107 -138c62 0 130 -4 194 0c18 105 47 159 98 204z" />
    <glyph glyph-name="radical" unicode="&#x221a;" horiz-adv-x="846" 
d="M549 818l-278 -698c-8 -23 -17 -49 -24 -67h-1c-2 19 -4 44 -9 66l-57 305c-5 30 -37 47 -65 36l-75 -29c-13 -5 -20 -19 -16 -32c3 -13 17 -19 29 -15l58 23l86 -416c4 -19 20 -32 39 -32c20 0 38 12 46 30l331 818c4 9 12 15 22 15h176c66 0 132 55 66 55h-240
c-37 0 -74 -24 -88 -59z" />
    <glyph glyph-name="partialdiff" unicode="&#x2202;" horiz-adv-x="537" 
d="M112 674c6 -16 23 -23 37 -16c30 14 73 26 123 26c90 0 174 -71 177 -222c0 -30 -3 -61 -7 -88h-1c-19 39 -78 88 -155 88c-154 0 -267 -127 -264 -278c1 -103 64 -193 189 -193c212 0 328 241 324 465c-3 196 -114 302 -250 302c-66 0 -119 -18 -157 -38
c-16 -9 -23 -29 -16 -46zM224 62c-66 0 -109 47 -110 124c-2 113 71 205 172 205c66 0 120 -49 136 -98c-24 -122 -96 -231 -198 -231z" />
    <glyph glyph-name="integral" unicode="&#x222b;" horiz-adv-x="469" 
d="M354 733c5 15 -1 34 -17 36c-7 0 -14 1 -21 1c-131 0 -173 -134 -189 -245c-23 -149 -39 -334 -62 -491c-9 -57 -28 -182 -110 -182h-11c-16 2 -31 -8 -35 -23c-5 -17 4 -36 21 -39c8 -1 16 -1 25 -1c129 0 167 138 184 245c24 156 40 338 61 484c11 71 29 191 112 191
c18 0 36 7 42 24z" />
    <glyph glyph-name="pi" unicode="&#x3c0;" horiz-adv-x="532" 
d="M513 441h38c20 0 38 14 43 34c4 18 -9 35 -27 35h-359c-63 0 -102 -6 -127 -16c-15 -6 -20 -22 -19 -38c1 -14 15 -22 29 -20c22 4 49 5 82 5c-7 -33 -15 -71 -25 -108c-28 -106 -66 -215 -104 -289c-9 -17 3 -38 22 -38c28 0 54 14 67 38c37 70 75 185 102 292
c10 37 18 73 25 105h163l-51 -289c-8 -48 -12 -83 -12 -107s24 -39 48 -39c23 0 40 22 41 46c2 25 6 59 14 107z" />
    <glyph glyph-name="summation" unicode="&#x2211;" horiz-adv-x="599" 
d="M143 42v4l246 262c24 26 28 64 11 94l-151 256l1 3c11 0 170 5 227 5c49 0 79 -3 92 -5c23 -4 45 15 50 38c5 21 -12 40 -34 39c-43 -1 -151 -2 -208 -2h-193c-18 0 -33 -13 -36 -30c-3 -19 1 -40 11 -57l173 -297l-293 -311c-13 -13 -21 -30 -24 -47
c-2 -14 9 -27 23 -27c51 0 175 0 225 1c57 0 161 -1 204 -1c32 -1 59 22 69 52c5 18 -10 39 -28 34c-7 -2 -15 -3 -24 -5c-45 -8 -159 -9 -189 -9c-31 0 -136 1 -152 3z" />
    <glyph glyph-name="product" unicode="&#x220f;" horiz-adv-x="735" 
d="M220 667l-103 -521c-13 -59 -22 -103 -33 -138c-7 -22 13 -41 36 -40h11c25 0 47 18 50 42c2 25 8 62 19 123l104 530h264l-100 -517c-13 -59 -22 -103 -33 -138c-7 -22 13 -41 35 -40h12c25 0 47 18 50 42c2 25 8 62 18 123l105 534c19 1 74 0 85 -2c25 -3 53 5 58 29
c6 25 -15 46 -40 45c-15 -1 -35 -1 -61 -2h-504c-16 0 -29 0 -41 1c-29 1 -60 -15 -66 -44c-5 -21 13 -42 35 -36c28 8 58 9 99 9z" />
    <glyph glyph-name="apple" unicode="&#xf8ff;" horiz-adv-x="542" 
d="M456 529c53 -36 47 -84 38 -145l-29 -159c-17 -97 -22 -149 -22 -181c0 -25 -23 -41 -47 -42c-25 -1 -46 18 -44 43c4 41 21 128 21 140c-9 -17 -40 -75 -67 -108c-15 -18 -58 -85 -148 -85c-98 0 -151 69 -134 171c7 36 26 85 83 127c84 61 189 57 218 57
c15 0 41 0 67 -1l5 25c15 70 -5 135 -100 127c-47 -3 -71 -8 -84 -13c-21 -7 -48 -11 -52 8c-5 20 -2 43 23 50c31 12 70 20 145 17c30 -2 90 -5 127 -31zM301 113c55 52 65 103 81 173c-21 3 -43 5 -69 5c-21 0 -57 -2 -82 -10c-28 -9 -92 -39 -106 -118
c-7 -42 8 -93 74 -93c44 0 76 20 102 43z" />
    <glyph glyph-name="Delta" unicode="&#x2206;" horiz-adv-x="663" 
d="M116 5h510c15 0 28 10 30 25c3 17 3 34 0 51l-103 554c-6 30 -32 52 -62 52c-33 0 -62 -18 -78 -47l-302 -562c-8 -15 -14 -31 -17 -48c-2 -13 8 -25 22 -25zM568 78h-367l198 376c27 51 57 115 74 153h3c5 -42 18 -122 27 -172z" />
    <glyph glyph-name="approxequal" unicode="&#x2248;" horiz-adv-x="674" 
d="M653 428c-10 12 -29 11 -44 0c-31 -21 -71 -40 -108 -40c-54 0 -77 23 -108 35c-32 14 -58 38 -121 38c-56 0 -112 -27 -153 -58c-15 -12 -20 -31 -10 -44c8 -12 26 -12 40 -2c32 22 73 41 111 41c55 0 78 -23 108 -35c34 -14 60 -38 124 -38c55 0 110 27 151 59
c15 11 19 31 10 44zM620 222c-9 11 -27 11 -41 1c-31 -23 -72 -42 -112 -42c-53 0 -76 23 -107 35c-33 14 -60 38 -122 38c-55 0 -111 -26 -153 -57c-15 -12 -19 -31 -10 -45c8 -13 28 -10 44 0c32 22 71 39 107 39c56 0 79 -22 109 -35c33 -13 60 -37 122 -37
c54 0 111 26 153 58c15 12 19 32 10 45z" />
    <glyph glyph-name="notequal" unicode="&#x2260;" horiz-adv-x="669" 
d="M608 342h-175l-57 -102h213c22 0 36 -17 33 -39c-4 -21 -25 -39 -46 -39h-243l-26 -46c-16 -26 -24 -41 -31 -58c-8 -20 -28 -33 -49 -32c-15 1 -27 17 -18 30c30 45 44 67 66 106h-169c-22 0 -36 18 -32 39c3 22 24 39 46 39h200l50 91c2 4 4 7 6 11h-238
c-22 0 -36 18 -33 39c4 22 25 39 46 39h267c16 32 29 60 55 115c8 19 29 28 49 27c16 -1 30 -16 21 -29c-12 -19 -23 -37 -54 -92l-12 -21h144c22 0 36 -17 32 -39c-3 -21 -24 -39 -45 -39z" />
    <glyph glyph-name="uni03A9" unicode="&#x3a9;" horiz-adv-x="750" 
d="M488 74v4c93 63 229 193 226 363c-2 152 -110 277 -289 277c-214 0 -375 -177 -372 -401c2 -101 80 -190 132 -239l-1 -4c-32 0 -88 3 -114 6c-13 1 -24 2 -34 4c-24 3 -47 -16 -42 -40c6 -29 33 -48 62 -43c22 4 47 5 89 5h77c16 0 31 12 34 28c3 18 -5 35 -18 47
c-51 48 -90 127 -92 231c-2 159 99 335 272 335c134 0 199 -106 201 -215c2 -163 -101 -290 -198 -354c-15 -10 -26 -26 -28 -44c-3 -15 9 -28 24 -28h103c42 0 67 -1 89 -5c29 -5 56 14 62 43c5 24 -18 43 -42 40c-10 -2 -21 -3 -34 -4c-26 -3 -75 -6 -107 -6z" />
  </font>
</defs>
</svg>
