<?xml version="1.0" encoding="utf-8"?>
<!-- Generator: Adobe Illustrator 16.0.0, SVG Export Plug-In . SVG Version: 6.00 Build 0)  -->
<!DOCTYPE svg PUBLIC "-//W3C//DTD SVG 1.1//EN" "http://www.w3.org/Graphics/SVG/1.1/DTD/svg11.dtd">
<svg version="1.1" id="Layer_2" xmlns="http://www.w3.org/2000/svg" xmlns:xlink="http://www.w3.org/1999/xlink" x="0px" y="0px"
	 width="465px" height="235px" viewBox="0 0 465 235" enable-background="new 0 0 465 235" xml:space="preserve">
<g>
	<path fill="none" stroke="#fff" stroke-width="2" stroke-linecap="round" stroke-linejoin="round" stroke-miterlimit="10" d="M187.021,219.744c-40.713-15.628-69.612-55.096-69.612-101.31"/></g>
           <g>
                <path d="M328.47,153.772c-14.652,42.558-55.05,73.137-102.587,73.137"/></g>
            <g>
                <path d="M255.205,13.968c45.667,12.795,79.153,54.723,79.153,104.467"/></g>
           <g>
                <path d="M125.24,77.88c16.056-39.818,55.07-67.92,100.643-67.92"/></g>
           <g>
                <path d="M   333.448,167.707 329.061,152.175 316.412,162.149 329.061,152.175 L  333.448,167.707 329.061,152.175 316.412,162.149 329.061,152.175 z"/></g>
             <g>
                <path d="M   268.758,8.804 253.275,13.351 263.375,25.894 253.275,13.351 L  268.758,8.804 253.275,13.351 263.375,25.894 253.275,13.351 z"/></g>
                <g>
                <path d="M   121.228,63.843 124.619,79.621 137.881,70.472 124.619,79.621 L  121.228,63.843 124.619,79.621 137.881,70.472 124.619,79.621 z"/></g>
                <g>
                <path d="M   172.574,222.136 188.638,220.549 181.042,206.345 188.638,220.549 L  172.574,222.136 188.638,220.549 181.042,206.345 188.638,220.549 z"/></g>
                <g>
                <path d="M277.573,97.977c0,29.237-23.709,52.94-52.934,52.94c-29.235,0-52.941-23.703-52.941-52.94c0-29.234,23.706-52.937,52.941-52.937  C253.864,45.04,277.573,68.743,277.573,97.977z"/></g>
              <g>
                <path d="M194.969,149.07v17.165l8.724,17.642c0,0,3.49,7.306,20.355,7.306c16.872,0,19.586-6.723,19.586-6.723l9.498-17.646v-16.189  C253.132,150.624,222.827,167.06,194.969,149.07z"/></g>
                 <g>
                <path d="M195.195,165.794c14.122,11.59,42.605,12.173,56.926,1.438"/></g>
                 <g>
                <path d="M203.793,84.745c0,0-1.609-23.132,21.549-23.132c17.401,0,22.336,13.401,18.807,24.617c-4.516,14.363-21.507,4.985-21.507,33.907  v10.378"/></g>
                 <g>
                <path d="M224.988,137.915c0,1.193-0.97,2.158-2.157,2.158c-1.2,0-2.169-0.965-2.169-2.158c0-1.194,0.969-2.167,2.169-2.167  C224.018,135.748,224.988,136.721,224.988,137.915z"/></g>
            
</svg>