<?xml version="1.0" encoding="utf-8"?>
<!DOCTYPE svg PUBLIC "-//W3C//DTD SVG 1.1//EN" "http://www.w3.org/Graphics/SVG/1.1/DTD/svg11.dtd">
<svg version="1.1" id="Layer_2" xmlns="http://www.w3.org/2000/svg" xmlns:xlink="http://www.w3.org/1999/xlink" x="0px" y="0px" width="465px" height="235px" viewBox="0 0 465 235" enable-background="new 0 0 465 235" xml:space="preserve">
<defs>
<style type="text/css"><![CDATA[
	path {
		fill: none;
		stroke: white;
		stroke-width: 2;
		stroke-linecap: round;
	}
]]></style>
</defs>
<g>
<path fill="none" stroke="#fff" stroke-width="2" stroke-linecap="round" stroke-linejoin="round" stroke-miterlimit="10" d="
M249.348,208.6h88.021v-10.711c2.664-0.33,4.667-2.574,4.667-5.297v-11.998c0-2.949-1.97-5.336-4.915-5.336h-2.848
c1.457-2.59,5.934-12.41,0.092-22.443c1.89-0.821,3.004-2.705,3.004-4.897v-0.668c0-2.947-1.973-5.33-4.913-5.33h-5.089v-9.342
h16.091c-11.002-36.003-44.235-55.346-44.235-55.346h26.793c2.967,5.933,9.102,10,16.174,10c9.942,0,18.029-8.058,18.029-18.006
c0-9.943-7.299-16.676-17.98-20.447c-7.559-2.667-12.016-7.212-15.344-12.939c-3.326-5.73-10.666-14.618-20.334-14.618
c-3.891,0-13.199,0-13.199,0V9.879c-71.354,26.695-48.26,122.697-48.26,122.697h14.246v9.342h-4.24c-2.951,0-5.76,2.383-5.76,5.33
v0.668c0,2.193,1.534,4.076,3.426,4.898c-5.849,10.033-0.946,19.854,0.51,22.442h-3.514c-2.947,0-5.763,2.388-5.763,5.336v11.998
c0,2.951,2.675,5.343,5.341,5.343v10.399"/>
</g>
<g>
<path d="M 177.639 227.121 L 242.738 189.436"/></g>
<g>           
<path d="M 336.878 144.604 L 356.618 134.016"/></g>
<g>
<path d="M 199.667 77.991 L 241.674 103.963"/>
</g>
<g>
<path d="M 337.602 160.381 L 371.104 180.998"/></g>
<g>
<path d="M 99.019 173.143 L 241.674 103.963"/></g>
<g>
<path d="M 99.019 128.871 L 261.255 227.121"/></g>

</svg>
