<?xml version="1.0" encoding="utf-8"?>
<!-- Generator: Adobe Illustrator 16.0.0, SVG Export Plug-In . SVG Version: 6.00 Build 0)  -->
<!DOCTYPE svg PUBLIC "-//W3C//DTD SVG 1.1//EN" "http://www.w3.org/Graphics/SVG/1.1/DTD/svg11.dtd">
<svg version="1.1" id="Layer_2" xmlns="http://www.w3.org/2000/svg" xmlns:xlink="http://www.w3.org/1999/xlink" x="0px" y="0px" width="465px" height="235px" viewBox="0 0 465 235" enable-background="new 0 0 465 235" xml:space="preserve">
<defs>
<style type="text/css"><![CDATA[
	path {
		fill: none;
		stroke: white;
		stroke-width: 2;
		stroke-linecap: round;
	}
]]></style>
</defs>
<g>
	<path fill="none" stroke="#fff" stroke-width="2" stroke-linecap="round" stroke-linejoin="round" stroke-miterlimit="10" d="M 289.182 116.005 L 335.085 116.005"/>
</g>
<g>
<path d="M 266.963 154.707 L 301.787 193.515"/></g>
<g>           
                <path d="M 206.056 155.949 L 171.409 194.561"/></g>
           <g>
                <path d="M 131.556 116.005 L 179.832 116.005"/></g>
            <g>
                <path d="M 233.012 82.28 L 233.012 40.385"/></g>
           <g>
                <path d="M179.832,101.64c0,0,0,20.047,0,31.472c0,11.429,15.645,26.158,54.53,26.158c38.883,0,54.82-14.53,54.82-26.158  c0-11.619,0-31.472,0-31.472"/></g>
           <g>
                <path d="M288.903,102.633c0,11.239-24.422,20.349-54.536,20.349c-30.121,0-54.536-9.11-54.536-20.349c0-11.247,24.415-20.354,54.536-20.354  C264.481,82.28,288.903,91.387,288.903,102.633z"/></g>
             <g>
                <path d="M335.085,107.852c0,0,0,8.543,0,13.412c0,4.865,6.667,11.141,23.232,11.141c16.571,0,23.357-6.188,23.357-11.141  c0-4.955,0-13.412,0-13.412"/></g>
                <g>
                <path d="M381.555,108.276c0,4.789-10.404,8.671-23.232,8.671c-12.833,0-23.237-3.882-23.237-8.671c0-4.793,10.404-8.672,23.237-8.672  C371.15,99.604,381.555,103.483,381.555,108.276z"/></g>
                <g>
                <path d="M288.617,201.93c0,0,0,8.545,0,13.413c0,4.866,6.666,11.142,23.231,11.142c16.569,0,23.357-6.188,23.357-11.142  c0-4.954,0-13.413,0-13.413"/></g>
                <g>
                <path d="M335.146,202.187c0,4.789-10.404,8.671-23.232,8.671c-12.833,0-23.237-3.882-23.237-8.671c0-4.793,10.404-8.672,23.237-8.672  C324.742,193.515,335.146,197.394,335.146,202.187z"/></g>
              <g>
                <path d="M137.1,201.761c0,0,0,8.545,0,13.411c0,4.867,6.666,11.144,23.231,11.144c16.57,0,23.357-6.19,23.357-11.144s0-13.411,0-13.411"/></g>
                 <g>
                <path d="M183.568,202.184c0,4.789-10.403,8.674-23.231,8.674c-12.834,0-23.237-3.885-23.237-8.674c0-4.79,10.403-8.669,23.237-8.669  C173.165,193.515,183.568,197.394,183.568,202.184z"/></g>
                 <g>
                <path d="M256.246,15.831c0,4.789-10.404,8.671-23.232,8.671c-12.833,0-23.237-3.882-23.237-8.671c0-4.793,10.404-8.672,23.237-8.672  C245.842,7.159,256.246,11.038,256.246,15.831z"/></g>
                 <g>
                <path d="M209.715,15.83c0,0,0,8.544,0,13.412c0,4.867,6.665,11.144,23.231,11.144c16.57,0,23.357-6.189,23.357-11.144  c0-4.954,0-13.412,0-13.412"/></g>
                 <g>
                <path d="M84.967,107.852c0,0,0,8.543,0,13.412c0,4.865,6.666,11.141,23.232,11.141c16.57,0,23.356-6.188,23.356-11.141  c0-4.955,0-13.412,0-13.412"/></g>
                 <g>
                <path d="M131.435,108.276c0,4.789-10.401,8.671-23.231,8.671c-12.833,0-23.236-3.882-23.236-8.671c0-4.793,10.403-8.672,23.236-8.672  C121.033,99.604,131.435,103.483,131.435,108.276z"/></g>
</svg>
