<?xml version="1.0" encoding="utf-8"?>
<!-- Generator: Adobe Illustrator 16.0.0, SVG Export Plug-In . SVG Version: 6.00 Build 0)  -->
<!DOCTYPE svg PUBLIC "-//W3C//DTD SVG 1.1//EN" "http://www.w3.org/Graphics/SVG/1.1/DTD/svg11.dtd">
<svg version="1.1" id="Layer_2" xmlns="http://www.w3.org/2000/svg" xmlns:xlink="http://www.w3.org/1999/xlink" x="0px" y="0px"
	 width="465px" height="235px" viewBox="0 0 465 235" enable-background="new 0 0 465 235" xml:space="preserve">
<g>
	<path fill="none" stroke="#fff" stroke-width="2" stroke-linecap="round" stroke-linejoin="round" stroke-miterlimit="10" d="M 182.056 221.973 L 356.699 221.973"/></g>
           <g>
                <path d="M   356.699,221.973 356.699,130.413 343.336,130.413 343.336,221.973 L  356.699,221.973 356.699,130.413 343.336,130.413 343.336,221.973"/></g>
            <g>
                <path d="M   335.383,221.973 335.383,13.027 322.023,13.027 322.023,221.973 L  335.383,221.973 335.383,13.027 322.023,13.027 322.023,221.973 "/></g>
           <g>
                <path d="M   311.904,221.973 311.904,87.271 298.541,87.271 298.541,221.973 L  311.904,221.973 311.904,87.271 298.541,87.271 298.541,221.973 "/></g>
           <g>
                <path d="M   288.426,221.973 288.426,56.106 275.063,56.106 275.063,221.973 L  288.426,221.973 288.426,56.106 275.063,56.106 275.063,221.973 "/></g>
             <g>
                <path d="M   264.943,221.973 264.943,170.233 251.582,170.233 251.582,221.973 L  264.943,221.973 264.943,170.233 251.582,170.233 251.582,221.973 "/></g>
                <g>
                <path d="M   241.463,221.973 241.463,115.045 228.102,115.045 228.102,221.973 L  241.463,221.973 241.463,115.045 228.102,115.045 228.102,221.973"/></g>
                <g>
                <path d="M   217.985,221.973 217.985,156.796 204.623,156.796 204.623,221.973 L  217.985,221.973 217.985,156.796 204.623,156.796 204.623,221.973"/></g>
                <g>
                <path d="M   195.419,221.973 195.419,130.413 182.056,130.413 182.056,221.973 L  195.419,221.973 195.419,130.413 182.056,130.413 182.056,221.973 "/></g>
              <g>
                <path d="M106.541,54.887c0,1.159-0.944,2.104-2.105,2.104  c-1.159,0-2.102-0.945-2.102-2.104c0-1.161,0.942-2.107,2.102-2.107C105.597,52.78,106.541,53.726,106.541,54.887z"/></g>
                 <g>
                <path d="M106.541,43.309c0,1.164-0.944,2.104-2.105,2.104  c-1.159,0-2.102-0.94-2.102-2.104c0-1.159,0.942-2.102,2.102-2.102C105.597,41.207,106.541,42.15,106.541,43.309z"/></g>
                 <g>
                <path d="M106.541,31.837c0,1.159-0.944,2.104-2.105,2.104  c-1.159,0-2.102-0.945-2.102-2.104c0-1.161,0.942-2.107,2.102-2.107C105.597,29.73,106.541,30.676,106.541,31.837z"/></g>
                 <g>
                <path d="M106.541,20.259c0,1.164-0.944,2.104-2.105,2.104  c-1.159,0-2.102-0.94-2.102-2.104c0-1.159,0.942-2.102,2.102-2.102C105.597,18.157,106.541,19.101,106.541,20.259z"/></g>
                <g>
                <path d="M 109.831 20.157 L 179.334 20.157 "/></g>
                <g>
                <path d="M 109.666 31.729 L 179.17 31.729 "/></g>
                <g>
                <path d="M 109.997 43.307 L 179.502 43.307 "/></g>
                <g>
                <path d="M 109.498 54.882 L 179 54.882 "/></g>
</svg>